{
.appVersion = "3108";
.formatVersion = 3;
DisplayStrings = (
"³"
);
axes = (
{
name = Weight;
tag = wght;
},
{
name = Width;
tag = wdth;
},
{
name = Punctuation;
tag = punc;
}
);
customParameters = (
{
name = "Variable Font Origin";
value = "FC837317-1536-49E4-8B36-958C77713550";
},
{
name = "Virtual Master";
value = (
{
Axis = Weight;
Location = 96;
},
{
Axis = Width;
Location = 100;
},
{
Axis = Punctuation;
Location = 1;
}
);
},
{
name = "Virtual Master";
value = (
{
Axis = Weight;
Location = 144;
},
{
Axis = Width;
Location = 100;
},
{
Axis = Punctuation;
Location = 1;
}
);
},
{
name = "Virtual Master";
value = (
{
Axis = Weight;
Location = 96;
},
{
Axis = Width;
Location = 100;
},
{
Axis = Punctuation;
Location = 100;
}
);
},
{
name = "Virtual Master";
value = (
{
Axis = Weight;
Location = 144;
},
{
Axis = Width;
Location = 100;
},
{
Axis = Punctuation;
Location = 100;
}
);
},
{
name = "Use Extension Kerning";
value = 1;
},
{
name = "Axis Mappings";
value = {
punc = {
0 = 0;
100 = 100;
};
wdth = {
100 = 100;
200 = 200;
};
wght = {
96 = 400;
144 = 700;
};
};
},
{
name = blueScale;
value = 0.037;
},
{
name = blueShift;
value = 5;
},
{
name = blueFuzz;
value = 0;
}
);
date = "2022-03-23 18:39:18 +0000";
familyName = Optical_073;
featurePrefixes = (
{
automatic = 1;
code = "languagesystem DFLT dflt;

languagesystem latn dflt;
languagesystem latn AZE;
languagesystem latn CRT;
languagesystem latn KAZ;
languagesystem latn TAT;
languagesystem latn TRK;
languagesystem latn ROM;
languagesystem latn MOL;
languagesystem latn NLD;
";
name = Languagesystems;
}
);
features = (
{
automatic = 1;
code = "feature locl;
feature sups;
feature ordn;
feature ss01;
feature ss02;
feature ss03;
feature ss04;
feature ss05;
feature ss06;
feature ss07;
";
tag = aalt;
},
{
automatic = 1;
code = "lookup ccmp_Other_1 {

glyphs = (
{
color = 5;
glyphname = A;
kernLeft = KO_A;
kernRight = KO_A;
lastChange = "2022-03-23 19:20:27 +0000";
layers = (
{
anchors = (
{
name = bottom;
pos = (699,0);
},
{
name = ogonek;
pos = (1369,0);
},
{
name = top;
pos = (700,1510);
}
);
background = {
shapes = (
{
closed = 1;
nodes = (
(258,0,l),
(404,420,l),
(964,420,l),
(1110,0,l),
(1336,0,l),
(800,1512,l),
(568,1512,l),
(32,0,l)
);
},
{
closed = 1;
nodes = (
(684,1232,l),
(898,612,l),
(470,612,l)
);
}
);
};
layerId = "FC837317-1536-49E4-8B36-958C77713550";
shapes = (
{
closed = 1;
nodes = (
(237,0,l),
(680,1237,ls),
(690,1265,o),
(696,1289,o),
(696,1306,c),
(702,1306,l),
(702,1289,o),
(707,1265,o),
(717,1238,cs),
(1161,0,l),
(1369,0,l),
(799,1510,l),
(599,1510,l),
(29,0,l)
);
},
{
closed = 1;
nodes = (
(1043,448,l),
(1043,616,l),
(355,616,l),
(355,448,l)
);
}
);
width = 1398;
},
{
anchors = (
{
name = bottom;
pos = (754,-4);
},
{
name = ogonek;
pos = (1519,0);
},
{
name = top;
pos = (771,1510);
}
);
layerId = m014;
shapes = (
{
closed = 1;
nodes = (
(327,0,l),
(743,1090,ls),
(754,1120,o),
(768,1166,o),
(768,1194,c),
(774,1194,l),
(774,1166,o),
(787,1120,o),
(798,1091,cs),
(1215,0,l),
(1519,0,l),
(907,1512,l),
(635,1512,l),
(23,0,l)
);
},
{
closed = 1;
nodes = (
(1191,336,l),
(1191,576,l),
(347,576,l),
(347,336,l)
);
}
);
width = 1542;
},
{
anchors = (
{
name = bottom;
pos = (806,0);
},
{
name = ogonek;
pos = (1569,0);
},
{
name = top;
pos = (799,1510);
}
);
background = {
shapes = (
{
closed = 1;
nodes = (
(258,0,l),
(404,420,l),
(964,420,l),
(1110,0,l),
(1336,0,l),
(800,1512,l),
(568,1512,l),
(32,0,l)
);
},
{
closed = 1;
nodes = (
(684,1232,l),
(898,612,l),
(470,612,l)
);
}
);
};
layerId = m003;
shapes = (
{
closed = 1;
nodes = (
(240,0,l),
(744,1206,ls),
(775,1279,o),
(784,1299,o),
(798,1346,c),
(800,1346,l),
(816,1299,o),
(825,1280,o),
(856,1206,cs),
(1358,0,l),
(1569,0,l),
(904,1510,l),
(694,1510,l),
(29,0,l)
);
},
{
closed = 1;
nodes = (
(1180,448,l),
(1180,616,l),
(419,616,l),
(419,448,l)
);
}
);
width = 1598;
},
{
anchors = (
{
name = bottom;
pos = (861,-4);
},
{
name = ogonek;
pos = (1719,0);
},
{
name = top;
pos = (871,1510);
}
);
guides = (
{
pos = (933,1085);
}
);
layerId = m004;
shapes = (
{
closed = 1;
nodes = (
(330,0,l),
(788,1040,ls),
(836,1149,o),
(856,1191,o),
(868,1254,c),
(874,1254,l),
(884,1191,o),
(905,1148,o),
(952,1041,cs),
(1412,0,l),
(1719,0,l),
(1012,1512,l),
(730,1512,l),
(23,0,l)
);
},
{
closed = 1;
nodes = (
(1328,336,l),
(1328,576,l),
(411,576,l),
(411,336,l)
);
}
);
width = 1742;
}
);
unicode = 65;
userData = {
KernOnName = A;
};
},
{
color = 8;
glyphname = AE;
kernLeft = KO_AE;
kernRight = KO_E;
lastChange = "2022-03-16 17:55:12 +0000";
layers = (
{
layerId = "FC837317-1536-49E4-8B36-958C77713550";
shapes = (
{
closed = 1;
nodes = (
(237,0,l),
(878,1301,ls),
(891,1328,o),
(894,1353,o),
(894,1370,c),
(899,1370,l),
(899,1510,l),
(777,1510,l),
(29,0,l)
);
},
{
closed = 1;
nodes = (
(963,428,l),
(963,596,l),
(415,596,l),
(415,428,l)
);
},
{
closed = 1;
nodes = (
(1704,0,l),
(1704,168,l),
(1026,168,l),
(1090,96,l),
(1090,765,l),
(1026,689,l),
(1584,689,l),
(1584,857,l),
(1026,857,l),
(1090,781,l),
(1090,1414,l),
(1026,1342,l),
(1694,1342,l),
(1694,1510,l),
(898,1510,l),
(898,0,l)
);
}
);
width = 1767;
},
{
layerId = m014;
shapes = (
{
closed = 1;
nodes = (
(327,0,l),
(893,1254,ls),
(906,1283,o),
(918,1330,o),
(918,1358,c),
(956,1358,l),
(981,1510,l),
(722,1510,l),
(23,0,l)
);
},
{
closed = 1;
nodes = (
(1191,356,l),
(1191,596,l),
(409,596,l),
(409,356,l)
);
},
{
closed = 1;
nodes = (
(1835,0,l),
(1835,244,l),
(1101,244,l),
(1213,140,l),
(1213,752,l),
(1101,642,l),
(1735,642,l),
(1735,886,l),
(1101,886,l),
(1213,776,l),
(1213,1370,l),
(1101,1266,l),
(1835,1266,l),
(1835,1510,l),
(923,1510,l),
(923,0,l)
);
}
);
width = 1936;
},
{
layerId = m003;
shapes = (
{
closed = 1;
nodes = (
(240,0,l),
(942,1206,ls),
(982,1275,o),
(982,1299,o),
(996,1346,c),
(1014,1346,l),
(1014,1510,l),
(892,1510,l),
(29,0,l)
);
},
{
closed = 1;
nodes = (
(1180,448,l),
(1180,616,l),
(419,616,l),
(419,448,l)
);
},
{
closed = 1;
nodes = (
(2035,0,l),
(2035,168,l),
(1133,168,l),
(1190,96,l),
(1190,766,l),
(1133,690,l),
(1880,690,l),
(1880,858,l),
(1133,858,l),
(1190,782,l),
(1190,1414,l),
(1133,1342,l),
(2019,1342,l),
(2019,1510,l),
(999,1510,l),
(999,0,l)
);
}
);
width = 2098;
},
{
layerId = m004;
shapes = (
{
closed = 1;
nodes = (
(330,0,l),
(953,1070,ls),
(1014,1172,o),
(1033,1221,o),
(1033,1284,c),
(1184,1284,l),
(1184,1510,l),
(895,1510,l),
(23,0,l)
);
},
{
closed = 1;
nodes = (
(1328,336,l),
(1328,576,l),
(411,576,l),
(411,336,l)
);
},
{
closed = 1;
nodes = (
(2086,0,l),
(2086,244,l),
(1228,244,l),
(1333,140,l),
(1333,762,l),
(1228,652,l),
(1951,652,l),
(1951,896,l),
(1228,896,l),
(1333,786,l),
(1333,1370,l),
(1228,1266,l),
(2080,1266,l),
(2080,1510,l),
(1044,1510,l),
(1044,0,l)
);
}
);
width = 2187;
}
);
metricLeft = A;
metricRight = E;
unicode = 198;
},
{
color = 5;
glyphname = B;
kernLeft = KO_H;
kernRight = KO_B;
lastChange = "2022-03-23 19:20:27 +0000";
layers = (
{
anchors = (
{
name = bottom;
pos = (624,0);
},
{
name = center;
pos = (624,755);
},
{
name = top;
pos = (624,1510);
}
);
layerId = "FC837317-1536-49E4-8B36-958C77713550";
shapes = (
{
closed = 1;
nodes = (
(731,0,ls),
(1014,0,o),
(1187,179,o),
(1187,428,cs),
(1187,650,o),
(1053,792,o),
(877,792,c),
(877,800,l),
(1017,800,o),
(1123,962,o),
(1123,1134,cs),
(1123,1356,o),
(943,1510,o),
(697,1510,cs),
(183,1510,l),
(183,0,l)
);
},
{
closed = 1;
nodes = (
(375,710,l),
(691,710,ls),
(881,710,o),
(989,602,o),
(989,416,cs),
(989,250,o),
(905,170,o),
(731,170,cs),
(375,170,l)
);
},
{
closed = 1;
nodes = (
(375,1346,l),
(633,1346,ls),
(823,1346,o),
(925,1267,o),
(925,1108,cs),
(925,964,o),
(841,874,o),
(693,874,cs),
(375,874,l)
);
}
);
width = 1298;
},
{
anchors = (
{
name = bottom;
pos = (686,0);
},
{
name = center;
pos = (686,755);
},
{
name = top;
pos = (686,1510);
}
);
layerId = m014;
shapes = (
{
closed = 1;
nodes = (
(749,0,ls),
(1065,0,o),
(1261,177,o),
(1261,442,cs),
(1261,642,o),
(1149,760,o),
(935,768,c),
(935,777,l),
(1073,783,o),
(1187,936,o),
(1187,1126,cs),
(1187,1375,o),
(993,1510,o),
(729,1510,cs),
(151,1510,l),
(151,0,l)
);
},
{
closed = 1;
nodes = (
(441,646,l),
(719,646,ls),
(875,646,o),
(963,574,o),
(963,434,cs),
(963,316,o),
(900,250,o),
(769,250,cs),
(441,250,l)
);
},
{
closed = 1;
nodes = (
(441,1266,l),
(665,1266,ls),
(810,1266,o),
(889,1210,o),
(889,1084,cs),
(889,967,o),
(821,890,o),
(701,890,cs),
(441,890,l)
);
}
);
width = 1372;
},
{
anchors = (
{
name = bottom;
pos = (624,0);
},
{
name = center;
pos = (624,755);
},
{
name = top;
pos = (624,1510);
}
);
layerId = m003;
shapes = (
{
closed = 1;
nodes = (
(931,0,ls),
(1214,0,o),
(1387,179,o),
(1387,428,cs),
(1387,651,o),
(1249,794,o),
(1067,794,c),
(1067,798,l),
(1213,798,o),
(1323,961,o),
(1323,1134,cs),
(1323,1356,o),
(1143,1510,o),
(897,1510,cs),
(183,1510,l),
(183,0,l)
);
},
{
closed = 1;
nodes = (
(375,710,l),
(891,710,ls),
(1081,710,o),
(1189,602,o),
(1189,416,cs),
(1189,250,o),
(1105,170,o),
(931,170,cs),
(375,170,l)
);
},
{
closed = 1;
nodes = (
(375,1346,l),
(833,1346,ls),
(1023,1346,o),
(1125,1267,o),
(1125,1108,cs),
(1125,964,o),
(1041,874,o),
(893,874,cs),
(375,874,l)
);
}
);
width = 1498;
},
{
anchors = (
{
name = bottom;
pos = (686,0);
},
{
name = center;
pos = (686,755);
},
{
name = top;
pos = (686,1510);
}
);
layerId = m004;
shapes = (
{
closed = 1;
nodes = (
(899,0,ls),
(1215,0,o),
(1411,177,o),
(1411,442,cs),
(1411,642,o),
(1299,760,o),
(1085,768,c),
(1085,778,l),
(1223,784,o),
(1337,936,o),
(1337,1126,cs),
(1337,1375,o),
(1143,1510,o),
(879,1510,cs),
(151,1510,l),
(151,0,l)
);
},
{
closed = 1;
nodes = (
(441,646,l),
(869,646,ls),
(1025,646,o),
(1113,574,o),
(1113,434,cs),
(1113,316,o),
(1050,250,o),
(919,250,cs),
(441,250,l)
);
},
{
closed = 1;
nodes = (
(441,1266,l),
(815,1266,ls),
(960,1266,o),
(1039,1210,o),
(1039,1084,cs),
(1039,967,o),
(971,890,o),
(851,890,cs),
(441,890,l)
);
}
);
width = 1522;
}
);
metricLeft = "=H";
metricRight = O;
unicode = 66;
userData = {
KernOnName = B;
};
},
{
color = 5;
glyphname = C;
kernLeft = KO_C;
kernRight = KO_C;
lastChange = "2022-03-23 19:20:27 +0000";
layers = (
{
anchors = (
{
name = bottom;
pos = (790,-10);
},
{
name = top;
pos = (778,1510);
}
);
background = {
shapes = (
{
closed = 1;
nodes = (
(1064,-30,o),
(1250,79,o),
(1348,301,c),
(1375,252,l),
(1123,383,l),
(1174,383,l),
(1161,339,o),
(1071,145,o),
(773,145,cs),
(475,145,o),
(315,352,o),
(315,750,cs),
(315,1150,o),
(477,1355,o),
(775,1355,cs),
(1100,1355,o),
(1153,1112,o),
(1154,1102,c),
(1115,1081,l),
(1352,1236,l),
(1320,1187,l),
(1277,1376,o),
(1093,1530,o),
(777,1530,cs),
(336,1530,o),
(111,1228,o),
(111,748,cs),
(111,273,o),
(332,-30,o),
(789,-30,cs)
);
}
);
};
layerId = "FC837317-1536-49E4-8B36-958C77713550";
shapes = (
{
closed = 1;
nodes = (
(1064,-30,o),
(1250,79,o),
(1348,301,c),
(1375,252,l),
(1123,383,l),
(1242,472,l),
(1125,249,o),
(998,145,o),
(781,145,cs),
(475,145,o),
(315,352,o),
(315,750,cs),
(315,1150,o),
(477,1355,o),
(777,1355,cs),
(1053,1355,o),
(1125,1181,o),
(1154,1102,c),
(1115,1081,l),
(1352,1236,l),
(1320,1187,l),
(1277,1376,o),
(1093,1530,o),
(778,1530,cs),
(336,1530,o),
(111,1228,o),
(111,748,cs),
(111,273,o),
(332,-30,o),
(790,-30,cs)
);
}
);
width = 1418;
},
{
anchors = (
{
name = bottom;
pos = (769,0);
},
{
name = top;
pos = (790,1510);
}
);
background = {
shapes = (
{
closed = 1;
nodes = (
(1049,-30,o),
(1262,83,o),
(1361,310,c),
(1384,256,l),
(1091,468,l),
(1126,441,l),
(1137,464,o),
(1067,227,o),
(785,227,cs),
(535,227,o),
(404,413,o),
(404,751,cs),
(404,1126,o),
(565,1273,o),
(782,1273,cs),
(1059,1273,o),
(1092,1033,o),
(1085,1046,c),
(1045,1028,l),
(1379,1182,l),
(1347,1133,l),
(1279,1381,o),
(1095,1531,o),
(791,1531,cs),
(372,1531,o),
(111,1248,o),
(111,745,cs),
(111,239,o),
(375,-30,o),
(784,-30,cs)
);
}
);
};
layerId = m014;
shapes = (
{
closed = 1;
nodes = (
(1060,-30,o),
(1266,91,o),
(1361,310,c),
(1384,256,l),
(1091,468,l),
(1151,498,l),
(1108,336,o),
(960,227,o),
(776,227,cs),
(537,227,o),
(404,410,o),
(404,749,cs),
(404,1089,o),
(538,1273,o),
(777,1273,cs),
(994,1273,o),
(1119,1121,o),
(1091,899,c),
(1045,1028,l),
(1379,1182,l),
(1347,1133,l),
(1276,1393,o),
(1082,1531,o),
(790,1531,cs),
(364,1531,o),
(111,1238,o),
(111,746,cs),
(111,257,o),
(360,-30,o),
(784,-30,cs)
);
}
);
width = 1377;
},
{
anchors = (
{
name = bottom;
pos = (921,0);
},
{
name = top;
pos = (901,1510);
}
);
background = {
shapes = (
{
closed = 1;
nodes = (
(1216,-30,o),
(1431,70,o),
(1549,299,c),
(1575,253,l),
(1310,382,l),
(1353,368,l),
(1346,338,o),
(1226,145,o),
(877,145,cs),
(515,145,o),
(319,352,o),
(319,752,cs),
(319,1150,o),
(513,1355,o),
(883,1355,cs),
(1267,1355,o),
(1340,1138,o),
(1351,1099,c),
(1312,1081,l),
(1544,1236,l),
(1513,1189,l),
(1467,1382,o),
(1248,1530,o),
(883,1530,cs),
(362,1530,o),
(111,1228,o),
(111,748,cs),
(111,273,o),
(356,-30,o),
(903,-30,cs)
);
}
);
};
layerId = m003;
shapes = (
{
closed = 1;
nodes = (
(1225,-30,o),
(1434,76,o),
(1549,299,c),
(1575,253,l),
(1310,382,l),
(1353,368,l),
(1322,242,o),
(1113,145,o),
(871,145,cs),
(515,145,o),
(319,356,o),
(319,753,cs),
(319,1151,o),
(515,1355,o),
(877,1355,cs),
(1125,1355,o),
(1304,1259,o),
(1351,1099,c),
(1312,1081,l),
(1544,1236,l),
(1513,1189,l),
(1463,1399,o),
(1221,1530,o),
(881,1530,cs),
(386,1530,o),
(111,1252,o),
(111,748,cs),
(111,242,o),
(388,-30,o),
(903,-30,cs)
);
}
);
width = 1618;
},
{
anchors = (
{
name = bottom;
pos = (887,0);
},
{
name = top;
pos = (894,1510);
}
);
background = {
shapes = (
{
closed = 1;
nodes = (
(1204,-30,o),
(1442,75,o),
(1562,308,c),
(1585,257,l),
(1278,467,l),
(1315,443,l),
(1341,478,o),
(1246,227,o),
(886,227,cs),
(577,227,o),
(408,411,o),
(408,756,cs),
(408,1120,o),
(596,1273,o),
(885,1273,cs),
(1238,1273,o),
(1283,1044,o),
(1282,1045,c),
(1241,1028,l),
(1572,1182,l),
(1539,1137,l),
(1472,1379,o),
(1262,1531,o),
(896,1531,cs),
(397,1531,o),
(111,1248,o),
(111,745,cs),
(111,239,o),
(401,-30,o),
(895,-30,cs)
);
}
);
};
layerId = m004;
shapes = (
{
closed = 1;
nodes = (
(1219,-30,o),
(1447,86,o),
(1562,308,c),
(1585,257,l),
(1278,467,l),
(1400,595,l),
(1308,315,o),
(1101,227,o),
(887,227,cs),
(576,227,o),
(408,413,o),
(408,756,cs),
(408,1095,o),
(573,1273,o),
(889,1273,cs),
(1146,1273,o),
(1287,1156,o),
(1304,927,c),
(1241,1028,l),
(1572,1182,l),
(1539,1137,l),
(1468,1393,o),
(1243,1531,o),
(895,1531,cs),
(395,1531,o),
(111,1246,o),
(111,746,cs),
(111,248,o),
(392,-30,o),
(894,-30,cs)
);
}
);
width = 1577;
}
);
metricLeft = "=O";
unicode = 67;
userData = {
KernOnName = C;
};
},
{
color = 5;
glyphname = D;
kernLeft = KO_H;
kernRight = KO_D;
lastChange = "2022-03-23 19:20:27 +0000";
layers = (
{
anchors = (
{
name = bottom;
pos = (716,0);
},
{
name = center;
pos = (716,755);
},
{
name = top;
pos = (653,1510);
}
);
layerId = "FC837317-1536-49E4-8B36-958C77713550";
shapes = (
{
closed = 1;
nodes = (
(717,0,ls),
(1097,0,o),
(1321,313,o),
(1321,758,cs),
(1321,1209,o),
(1091,1510,o),
(693,1510,cs),
(183,1510,l),
(183,0,l)
);
},
{
closed = 1;
nodes = (
(375,1452,l),
(273,1342,l),
(627,1342,ls),
(927,1342,o),
(1114,1141,o),
(1114,743,cs),
(1114,357,o),
(939,168,o),
(651,168,cs),
(273,168,l),
(375,58,l)
);
}
);
width = 1432;
},
{
anchors = (
{
name = bottom;
pos = (750,0);
},
{
name = center;
pos = (363,755);
},
{
name = top;
pos = (621,1510);
}
);
layerId = m014;
shapes = (
{
closed = 1;
nodes = (
(715,0,ls),
(1113,0,o),
(1389,312,o),
(1389,760,cs),
(1389,1208,o),
(1107,1510,o),
(691,1510,cs),
(151,1510,l),
(151,0,l)
);
},
{
closed = 1;
nodes = (
(441,1392,l),
(289,1266,l),
(625,1266,ls),
(915,1266,o),
(1095,1068,o),
(1095,748,cs),
(1095,434,o),
(927,244,o),
(649,244,cs),
(289,244,l),
(441,118,l)
);
}
);
width = 1500;
},
{
anchors = (
{
name = bottom;
pos = (802,0);
},
{
name = center;
pos = (357,755);
},
{
name = top;
pos = (732,1510);
}
);
layerId = m003;
shapes = (
{
closed = 1;
nodes = (
(818,0,ls),
(1271,0,o),
(1521,313,o),
(1521,758,cs),
(1521,1209,o),
(1264,1510,o),
(789,1510,cs),
(183,1510,l),
(183,0,l)
);
},
{
closed = 1;
nodes = (
(374,1452,l),
(272,1342,l),
(749,1342,ls),
(1095,1342,o),
(1312,1152,o),
(1312,743,cs),
(1312,348,o),
(1110,168,o),
(778,168,cs),
(272,168,l),
(374,58,l)
);
}
);
width = 1632;
},
{
anchors = (
{
name = bottom;
pos = (836,0);
},
{
name = center;
pos = (409,755);
},
{
name = top;
pos = (787,1510);
}
);
layerId = m004;
shapes = (
{
closed = 1;
nodes = (
(816,0,ls),
(1287,0,o),
(1589,313,o),
(1589,758,cs),
(1589,1209,o),
(1279,1510,o),
(787,1510,cs),
(151,1510,l),
(151,0,l)
);
},
{
closed = 1;
nodes = (
(440,1392,l),
(288,1266,l),
(707,1266,ls),
(1065,1266,o),
(1290,1069,o),
(1290,746,cs),
(1290,435,o),
(1082,244,o),
(736,244,cs),
(288,244,l),
(440,118,l)
);
}
);
width = 1700;
}
);
metricLeft = "=H";
metricRight = "=O";
unicode = 68;
userData = {
KernOnName = D;
};
},
{
color = 5;
glyphname = E;
kernLeft = KO_H;
kernRight = KO_E;
lastChange = "2022-03-23 19:20:27 +0000";
layers = (
{
anchors = (
{
name = bottom;
pos = (615,0);
},
{
name = ogonek;
pos = (1119,0);
},
{
name = top;
pos = (639,1510);
},
{
name = topleft;
pos = (25,1510);
}
);
layerId = "FC837317-1536-49E4-8B36-958C77713550";
shapes = (
{
closed = 1;
nodes = (
(1119,0,l),
(1119,168,l),
(311,168,l),
(375,96,l),
(375,766,l),
(311,690,l),
(999,690,l),
(999,858,l),
(311,858,l),
(375,782,l),
(375,1414,l),
(311,1342,l),
(1109,1342,l),
(1109,1510,l),
(183,1510,l),
(183,0,l)
);
}
);
width = 1182;
},
{
anchors = (
{
name = bottom;
pos = (607,0);
},
{
name = ogonek;
pos = (1093,0);
},
{
name = top;
pos = (627,1510);
},
{
name = topleft;
pos = (151,1510);
}
);
layerId = m014;
shapes = (
{
closed = 1;
nodes = (
(1093,0,l),
(1093,244,l),
(329,244,l),
(441,140,l),
(441,762,l),
(329,652,l),
(993,652,l),
(993,896,l),
(329,896,l),
(441,786,l),
(441,1370,l),
(329,1266,l),
(1093,1266,l),
(1093,1510,l),
(151,1510,l),
(151,0,l)
);
}
);
width = 1194;
},
{
anchors = (
{
name = bottom;
pos = (784,0);
},
{
name = ogonek;
pos = (1319,0);
},
{
name = top;
pos = (754,1510);
},
{
name = topleft;
pos = (-23,1510);
}
);
layerId = m003;
shapes = (
{
closed = 1;
nodes = (
(1319,0,l),
(1319,168,l),
(317,168,l),
(374,96,l),
(374,766,l),
(317,690,l),
(1164,690,l),
(1164,858,l),
(317,858,l),
(374,782,l),
(374,1414,l),
(317,1342,l),
(1303,1342,l),
(1303,1510,l),
(183,1510,l),
(183,0,l)
);
}
);
width = 1382;
},
{
anchors = (
{
name = bottom;
pos = (757,0);
},
{
name = ogonek;
pos = (1293,0);
},
{
name = top;
pos = (735,1510);
},
{
name = topleft;
pos = (151,1510);
}
);
layerId = m004;
shapes = (
{
closed = 1;
nodes = (
(1293,0,l),
(1293,244,l),
(335,244,l),
(440,140,l),
(440,762,l),
(335,652,l),
(1158,652,l),
(1158,896,l),
(335,896,l),
(440,786,l),
(440,1370,l),
(335,1266,l),
(1287,1266,l),
(1287,1510,l),
(151,1510,l),
(151,0,l)
);
}
);
width = 1394;
}
);
metricLeft = H;
unicode = 69;
userData = {
KernOnName = E;
};
},
{
color = 8;
glyphname = Schwa;
kernRight = KO_O;
lastChange = "2022-03-16 17:55:40 +0000";
layers = (
{
layerId = "FC837317-1536-49E4-8B36-958C77713550";
shapes = (
{
closed = 1;
nodes = (
(1025,-30,o),
(1232,270,o),
(1232,765,cs),
(1232,1284,o),
(1005,1527,o),
(617,1527,cs),
(378,1527,o),
(225,1435,o),
(136,1288,c),
(271,1164,l),
(329,1259,o),
(429,1356,o),
(625,1356,cs),
(906,1356,o),
(1028,1156,o),
(1028,760,cs),
(1028,359,o),
(903,144,o),
(656,144,cs),
(447,144,o),
(288,297,o),
(315,663,c),
(1126,660,l),
(1126,826,l),
(120,826,l),
(52,76,o),
(384,-30,o),
(623,-30,cs)
);
}
);
width = 1343;
},
{
layerId = m014;
shapes = (
{
closed = 1;
nodes = (
(1122,-30,o),
(1373,293,o),
(1373,764,cs),
(1373,1247,o),
(1108,1528,o),
(686,1528,cs),
(394,1528,o),
(188,1393,o),
(126,1175,c),
(374,1057,l),
(419,1189,o),
(529,1276,o),
(691,1276,cs),
(931,1276,o),
(1079,1085,o),
(1079,743,cs),
(1079,415,o),
(943,226,o),
(714,226,cs),
(450,226,o),
(373,478,o),
(397,606,c),
(1097,604,l),
(1097,841,l),
(137,841,l),
(20,253,o),
(308,-30,o),
(702,-30,cs)
);
}
);
width = 1484;
},
{
layerId = m003;
shapes = (
{
closed = 1;
nodes = (
(1177,-30,o),
(1414,270,o),
(1414,765,cs),
(1414,1284,o),
(1154,1527,o),
(703,1527,cs),
(425,1527,o),
(244,1435,o),
(138,1288,c),
(273,1164,l),
(346,1259,o),
(472,1356,o),
(714,1356,cs),
(1061,1356,o),
(1210,1156,o),
(1210,761,cs),
(1210,359,o),
(1055,144,o),
(745,144,cs),
(484,144,o),
(283,297,o),
(317,663,c),
(1308,660,l),
(1308,826,l),
(122,826,l),
(42,76,o),
(433,-30,o),
(710,-30,cs)
);
}
);
width = 1525;
},
{
layerId = m004;
shapes = (
{
closed = 1;
nodes = (
(1273,-30,o),
(1558,293,o),
(1558,764,cs),
(1558,1247,o),
(1258,1528,o),
(776,1528,cs),
(442,1528,o),
(203,1393,o),
(131,1175,c),
(379,1057,l),
(437,1189,o),
(578,1276,o),
(781,1276,cs),
(1082,1276,o),
(1264,1085,o),
(1264,744,cs),
(1264,415,o),
(1094,226,o),
(804,226,cs),
(470,226,o),
(371,478,o),
(402,606,c),
(1282,604,l),
(1282,841,l),
(142,841,l),
(6,253,o),
(340,-30,o),
(791,-30,cs)
);
}
);
width = 1669;
}
);
metricLeft = O;
metricRight = O;
unicode = 399;
},
{
color = 5;
glyphname = F;
kernLeft = KO_H;
kernRight = KO_F;
lastChange = "2022-03-23 19:20:27 +0000";
layers = (
{
anchors = (
{
name = bottom;
pos = (570,0);
},
{
name = top;
pos = (570,1510);
}
);
layerId = "FC837317-1536-49E4-8B36-958C77713550";
shapes = (
{
closed = 1;
nodes = (
(375,0,l),
(375,728,l),
(299,653,l),
(997,653,l),
(997,827,l),
(299,827,l),
(375,752,l),
(375,1414,l),
(299,1337,l),
(1087,1337,l),
(1087,1510,l),
(183,1510,l),
(183,0,l)
);
}
);
width = 1140;
},
{
anchors = (
{
name = bottom;
pos = (592,0);
},
{
name = top;
pos = (592,1510);
}
);
layerId = m014;
shapes = (
{
closed = 1;
nodes = (
(439,0,l),
(439,704,l),
(325,598,l),
(981,598,l),
(981,842,l),
(325,842,l),
(439,736,l),
(439,1372,l),
(325,1266,l),
(1121,1266,l),
(1121,1510,l),
(151,1510,l),
(151,0,l)
);
}
);
width = 1184;
},
{
anchors = (
{
name = bottom;
pos = (642,0);
},
{
name = top;
pos = (642,1510);
}
);
layerId = m003;
shapes = (
{
closed = 1;
nodes = (
(375,0,l),
(375,728,l),
(299,653,l),
(1200,653,l),
(1200,827,l),
(299,827,l),
(375,752,l),
(375,1414,l),
(299,1337,l),
(1287,1337,l),
(1287,1510,l),
(183,1510,l),
(183,0,l)
);
}
);
width = 1340;
},
{
anchors = (
{
name = bottom;
pos = (664,0);
},
{
name = top;
pos = (664,1510);
}
);
layerId = m004;
shapes = (
{
closed = 1;
nodes = (
(439,0,l),
(439,704,l),
(325,598,l),
(1184,598,l),
(1184,842,l),
(325,842,l),
(439,736,l),
(439,1372,l),
(325,1266,l),
(1321,1266,l),
(1321,1510,l),
(151,1510,l),
(151,0,l)
);
}
);
width = 1384;
}
);
metricLeft = "=H";
unicode = 70;
userData = {
KernOnName = F;
};
},
{
color = 5;
glyphname = G;
kernLeft = KO_G;
kernRight = KO_G;
lastChange = "2022-03-23 19:20:27 +0000";
layers = (
{
anchors = (
{
name = bottom;
pos = (747,0);
},
{
name = top;
pos = (747,1510);
}
);
background = {
shapes = (
{
angle = 180;
pos = (1553,1162);
ref = n;
}
);
};
layerId = "FC837317-1536-49E4-8B36-958C77713550";
shapes = (
{
closed = 1;
nodes = (
(993,-30,o),
(1141,92,o),
(1192,233,c),
(1197,233,l),
(1197,152,o),
(1199,85,o),
(1209,-4,c),
(1343,-4,l),
(1343,826,l),
(717,826,l),
(717,660,l),
(1209,663,l),
(1153,709,l),
(1153,343,l),
(1163,398,l),
(1114,270,o),
(999,144,o),
(765,144,cs),
(459,144,o),
(315,359,o),
(315,755,cs),
(315,1156,o),
(463,1356,o),
(765,1356,cs),
(1114,1356,o),
(1198,1171,o),
(1243,1064,c),
(1135,1112,l),
(1360,1318,l),
(1341,1266,l),
(1247,1426,o),
(1077,1527,o),
(810,1527,cs),
(367,1527,o),
(111,1284,o),
(111,766,cs),
(111,270,o),
(340,-30,o),
(744,-30,cs)
);
}
);
width = 1454;
},
{
anchors = (
{
name = bottom;
pos = (734,0);
},
{
name = top;
pos = (836,1510);
}
);
background = {
shapes = (
{
angle = 180;
pos = (1647,1106);
ref = n;
}
);
};
layerId = m014;
shapes = (
{
closed = 1;
nodes = (
(1016,-30,o),
(1139,71,o),
(1192,204,c),
(1197,204,l),
(1204,112,o),
(1209,75,o),
(1227,-10,c),
(1407,-10,l),
(1407,841,l),
(787,841,l),
(787,604,l),
(1197,606,l),
(1167,653,l),
(1167,321,l),
(1182,354,l),
(1138,287,o),
(1016,226,o),
(819,226,cs),
(552,226,o),
(405,415,o),
(405,743,cs),
(405,1085,o),
(565,1276,o),
(815,1276,cs),
(1020,1276,o),
(1149,1171,o),
(1182,1015,c),
(1127,1036,l),
(1448,1190,l),
(1431,1117,l),
(1390,1369,o),
(1161,1528,o),
(836,1528,cs),
(387,1528,o),
(111,1247,o),
(111,766,cs),
(111,293,o),
(374,-30,o),
(759,-30,cs)
);
}
);
width = 1529;
},
{
anchors = (
{
name = bottom;
pos = (929,20);
},
{
name = top;
pos = (849,1510);
}
);
background = {
shapes = (
{
closed = 1;
nodes = (
(948,-30,o),
(1198,14,o),
(1328,66,c),
(1328,826,l),
(722,826,l),
(722,654,l),
(1139,664,l),
(1146,197,l),
(1034,167,o),
(919,144,o),
(809,144,cs),
(476,144,o),
(340,355,o),
(340,749,cs),
(340,1166,o),
(492,1356,o),
(825,1356,cs),
(933,1356,o),
(1072,1336,o),
(1260,1302,c),
(1260,1480,l),
(1118,1512,o),
(986,1527,o),
(867,1527,cs),
(372,1527,o),
(136,1282,o),
(136,765,cs),
(136,269,o),
(354,-30,o),
(783,-30,cs)
);
},
{
closed = 1;
nodes = (
(948,-30,o),
(1198,14,o),
(1328,66,c),
(1328,826,l),
(722,826,l),
(722,654,l),
(1139,664,l),
(1146,197,l),
(1034,167,o),
(919,144,o),
(809,144,cs),
(476,144,o),
(340,355,o),
(340,749,cs),
(340,1166,o),
(492,1356,o),
(825,1356,cs),
(933,1356,o),
(1072,1336,o),
(1260,1302,c),
(1260,1480,l),
(1118,1512,o),
(986,1527,o),
(867,1527,cs),
(372,1527,o),
(136,1282,o),
(136,765,cs),
(136,269,o),
(354,-30,o),
(783,-30,cs)
);
}
);
};
layerId = m003;
shapes = (
{
closed = 1;
nodes = (
(1096,-30,o),
(1316,84,o),
(1370,236,c),
(1373,236,l),
(1381,154,o),
(1391,73,o),
(1404,-9,c),
(1543,-9,l),
(1543,826,l),
(801,826,l),
(801,660,l),
(1400,662,l),
(1337,709,l),
(1337,343,l),
(1347,398,l),
(1291,274,o),
(1105,144,o),
(870,144,cs),
(483,144,o),
(319,367,o),
(319,755,cs),
(319,1156,o),
(494,1356,o),
(857,1356,cs),
(1203,1356,o),
(1367,1202,o),
(1462,1027,c),
(1329,1111,l),
(1549,1319,l),
(1537,1266,l),
(1408,1407,o),
(1229,1527,o),
(889,1527,cs),
(403,1527,o),
(111,1284,o),
(111,761,cs),
(111,270,o),
(369,-30,o),
(854,-30,cs)
);
}
);
width = 1654;
},
{
anchors = (
{
name = bottom;
pos = (889,0);
},
{
name = top;
pos = (959,1510);
}
);
background = {
shapes = (
{
closed = 1;
nodes = (
(1038,-30,o),
(1293,14,o),
(1432,66,c),
(1388,306,l),
(1223,262,o),
(1044,220,o),
(890,220,cs),
(576,220,o),
(450,404,o),
(450,748,cs),
(450,1110,o),
(594,1276,o),
(913,1276,cs),
(1026,1276,o),
(1170,1256,o),
(1364,1222,c),
(1364,1480,l),
(1182,1520,o),
(1024,1528,o),
(932,1528,cs),
(418,1528,o),
(156,1269,o),
(156,762,cs),
(156,272,o),
(396,-30,o),
(855,-30,cs)
);
},
{
closed = 1;
nodes = (
(1432,66,l),
(1432,866,l),
(1142,866,l),
(1166,66,l)
);
},
{
closed = 1;
nodes = (
(1274,634,l),
(1274,866,l),
(812,866,l),
(812,622,l)
);
},
{
closed = 1;
nodes = (
(1009,-30,o),
(1259,74,o),
(1353,292,c),
(1142,442,l),
(1142,426,o),
(1034,227,o),
(834,227,cs),
(592,227,o),
(456,413,o),
(456,746,cs),
(456,1127,o),
(618,1273,o),
(832,1273,cs),
(1069,1273,o),
(1101,1060,o),
(1101,1047,c),
(1353,1143,l),
(1291,1419,o),
(1114,1531,o),
(849,1531,cs),
(421,1531,o),
(156,1248,o),
(156,750,cs),
(156,239,o),
(434,-30,o),
(814,-30,cs)
);
}
);
};
layerId = m004;
shapes = (
{
closed = 1;
nodes = (
(1096,-30,o),
(1342,49,o),
(1382,226,c),
(1388,226,l),
(1396,133,o),
(1400,105,o),
(1423,-10,c),
(1614,-10,l),
(1614,841,l),
(874,841,l),
(874,604,l),
(1395,607,l),
(1357,653,l),
(1357,371,l),
(1372,424,l),
(1309,304,o),
(1132,226,o),
(922,226,cs),
(590,226,o),
(409,410,o),
(409,748,cs),
(409,1087,o),
(593,1276,o),
(925,1276,cs),
(1202,1276,o),
(1394,1145,o),
(1396,866,c),
(1205,986,l),
(1671,1347,l),
(1618,1118,l),
(1532,1385,o),
(1301,1528,o),
(959,1528,cs),
(429,1528,o),
(111,1240,o),
(111,760,cs),
(111,284,o),
(411,-30,o),
(865,-30,cs)
);
}
);
width = 1725;
}
);
metricLeft = "=O";
metricRight = O;
unicode = 71;
userData = {
KernOnName = G;
};
},
{
color = 5;
glyphname = H;
kernLeft = KO_H;
kernRight = KO_H;
lastChange = "2022-03-23 19:20:27 +0000";
layers = (
{
anchors = (
{
name = bar;
pos = (759,1146);
},
{
name = bottom;
pos = (759,0);
},
{
name = center;
pos = (759,755);
},
{
name = top;
pos = (759,1510);
},
{
name = topleft;
pos = (183,1510);
}
);
layerId = "FC837317-1536-49E4-8B36-958C77713550";
shapes = (
{
closed = 1;
nodes = (
(1335,0,l),
(1335,1510,l),
(1143,1510,l),
(1143,860,l),
(375,860,l),
(375,1510,l),
(183,1510,l),
(183,0,l),
(375,0,l),
(375,692,l),
(1143,692,l),
(1143,0,l)
);
}
);
width = 1518;
},
{
anchors = (
{
name = bar;
pos = (752,1197);
},
{
name = bottom;
pos = (752,0);
},
{
name = center;
pos = (752,755);
},
{
name = top;
pos = (752,1510);
},
{
name = topleft;
pos = (25,1510);
}
);
layerId = m014;
shapes = (
{
closed = 1;
nodes = (
(1353,0,l),
(1353,1510,l),
(1063,1510,l),
(1063,908,l),
(441,908,l),
(441,1510,l),
(151,1510,l),
(151,0,l),
(441,0,l),
(441,664,l),
(1063,664,l),
(1063,0,l)
);
}
);
width = 1504;
},
{
anchors = (
{
name = bar;
pos = (859,1146);
},
{
name = bottom;
pos = (859,0);
},
{
name = center;
pos = (859,973);
},
{
name = top;
pos = (859,1510);
},
{
name = topleft;
pos = (-17,1510);
}
);
layerId = m003;
shapes = (
{
closed = 1;
nodes = (
(1535,0,l),
(1535,1510,l),
(1344,1510,l),
(1344,860,l),
(374,860,l),
(374,1510,l),
(183,1510,l),
(183,0,l),
(374,0,l),
(374,692,l),
(1344,692,l),
(1344,0,l)
);
}
);
width = 1718;
},
{
anchors = (
{
name = bar;
pos = (852,1207);
},
{
name = bottom;
pos = (852,0);
},
{
name = center;
pos = (852,755);
},
{
name = top;
pos = (852,1510);
},
{
name = topleft;
pos = (-17,1510);
}
);
layerId = m004;
shapes = (
{
closed = 1;
nodes = (
(1553,0,l),
(1553,1510,l),
(1264,1510,l),
(1264,908,l),
(440,908,l),
(440,1510,l),
(151,1510,l),
(151,0,l),
(440,0,l),
(440,664,l),
(1264,664,l),
(1264,0,l)
);
}
);
width = 1704;
}
);
unicode = 72;
userData = {
KernOnName = H;
};
},
{
color = 5;
glyphname = I;
kernLeft = KO_I;
kernRight = KO_I;
lastChange = "2022-03-23 19:20:27 +0000";
layers = (
{
anchors = (
{
name = bottom;
pos = (496,0);
},
{
name = ogonek;
pos = (580,0);
},
{
name = top;
pos = (496,1510);
},
{
name = topleft;
pos = (94,1510);
}
);
layerId = "FC837317-1536-49E4-8B36-958C77713550";
shapes = (
{
closed = 1;
nodes = (
(880,0,l),
(881,164,l),
(592,164,l),
(592,1346,l),
(879,1346,l),
(878,1510,l),
(114,1510,l),
(113,1346,l),
(400,1346,l),
(400,164,l),
(111,164,l),
(112,0,l)
);
}
);
width = 992;
},
{
anchors = (
{
name = bottom;
pos = (594,0);
},
{
name = ogonek;
pos = (739,0);
},
{
name = top;
pos = (594,1510);
},
{
name = topleft;
pos = (24,1510);
}
);
layerId = m014;
shapes = (
{
closed = 1;
nodes = (
(1075,0,l),
(1076,242,l),
(739,242,l),
(739,1268,l),
(1074,1268,l),
(1073,1510,l),
(114,1510,l),
(113,1268,l),
(447,1268,l),
(447,242,l),
(111,242,l),
(112,0,l)
);
}
);
width = 1187;
},
{
anchors = (
{
name = bottom;
pos = (687,0);
},
{
name = ogonek;
pos = (830,0);
},
{
name = top;
pos = (687,1510);
},
{
name = topleft;
pos = (407,1510);
}
);
layerId = m004;
shapes = (
{
closed = 1;
nodes = (
(1266,0,l),
(1267,244,l),
(830,244,l),
(830,1266,l),
(1265,1266,l),
(1264,1510,l),
(114,1510,l),
(113,1266,l),
(538,1266,l),
(538,244,l),
(111,244,l),
(112,0,l)
);
}
);
width = 1378;
},
{
anchors = (
{
name = bottom;
pos = (596,0);
},
{
name = ogonek;
pos = (737,0);
},
{
name = top;
pos = (617,1510);
},
{
name = topleft;
pos = (337,1510);
}
);
layerId = m003;
shapes = (
{
closed = 1;
nodes = (
(1080,0,l),
(1081,168,l),
(692,168,l),
(692,1342,l),
(1079,1342,l),
(1078,1510,l),
(114,1510,l),
(113,1342,l),
(500,1342,l),
(500,168,l),
(111,168,l),
(112,0,l)
);
}
);
width = 1192;
}
);
metricLeft = O;
metricRight = O;
unicode = 73;
userData = {
KernOnName = I;
};
},
{
color = 5;
glyphname = IJ;
kernRight = KO_J;
lastChange = "2022-03-12 19:28:29 +0000";
layers = (
{
layerId = "FC837317-1536-49E4-8B36-958C77713550";
shapes = (
{
closed = 1;
nodes = (
(920,400,l),
(921,564,l),
(612,564,l),
(612,1346,l),
(919,1346,l),
(918,1510,l),
(114,1510,l),
(113,1346,l),
(420,1346,l),
(420,564,l),
(111,564,l),
(112,400,l)
);
},
{
alignment = -1;
pos = (414,0);
ref = J;
}
);
width = 1646;
},
{
layerId = m014;
shapes = (
{
closed = 1;
nodes = (
(1075,450,l),
(1076,692,l),
(739,692,l),
(739,1268,l),
(1074,1268,l),
(1073,1510,l),
(114,1510,l),
(113,1268,l),
(447,1268,l),
(447,692,l),
(111,692,l),
(112,450,l)
);
},
{
pos = (641,0);
ref = J;
}
);
width = 1799;
},
{
layerId = m003;
shapes = (
{
closed = 1;
nodes = (
(1220,400,l),
(1221,568,l),
(762,568,l),
(762,1342,l),
(1219,1342,l),
(1218,1510,l),
(114,1510,l),
(113,1342,l),
(570,1342,l),
(570,568,l),
(111,568,l),
(112,400,l)
);
},
{
pos = (672,0);
ref = J;
}
);
width = 2104;
},
{
layerId = m004;
shapes = (
{
closed = 1;
nodes = (
(1346,450,l),
(1347,694,l),
(870,694,l),
(870,1266,l),
(1345,1266,l),
(1344,1510,l),
(114,1510,l),
(113,1266,l),
(578,1266,l),
(578,694,l),
(111,694,l),
(112,450,l)
);
},
{
pos = (945,0);
ref = J;
}
);
width = 2303;
}
);
metricLeft = I;
metricRight = J;
unicode = 306;
},
{
color = 5;
glyphname = J;
kernLeft = KO_J;
kernRight = KO_J;
lastChange = "2022-03-23 19:20:54 +0000";
layers = (
{
anchors = (
{
name = bottom;
pos = (616,0);
},
{
name = top;
pos = (908,1510);
}
);
layerId = "FC837317-1536-49E4-8B36-958C77713550";
shapes = (
{
closed = 1;
nodes = (
(875,-34,o),
(963,198,o),
(963,446,cs),
(963,1510,l),
(771,1510,l),
(771,481,ls),
(771,226,o),
(706,136,o),
(530,136,cs),
(365,136,o),
(184,216,o),
(179,226,c),
(179,34,l),
(271,-5,o),
(411,-34,o),
(532,-34,cs)
);
}
);
width = 1232;
},
{
anchors = (
{
name = bottom;
pos = (579,0);
},
{
name = top;
pos = (840,1510);
}
);
layerId = m014;
shapes = (
{
closed = 1;
nodes = (
(732,-19,o),
(951,103,o),
(951,466,cs),
(951,1510,l),
(661,1510,l),
(661,492,ls),
(661,345,o),
(639,243,o),
(447,243,cs),
(328,243,o),
(131,282,o),
(111,300,c),
(111,28,l),
(229,-7,o),
(341,-19,o),
(434,-19,cs)
);
}
);
width = 1158;
},
{
anchors = (
{
name = bottom;
pos = (656,0);
},
{
name = top;
pos = (1077,1510);
}
);
layerId = m003;
shapes = (
{
closed = 1;
nodes = (
(1163,-35,o),
(1163,256,o),
(1163,446,cs),
(1163,1510,l),
(972,1510,l),
(972,481,ls),
(972,217,o),
(868,136,o),
(637,136,cs),
(403,136,o),
(179,219,o),
(179,226,c),
(179,34,l),
(285,-1,o),
(483,-35,o),
(656,-35,cs)
);
}
);
width = 1432;
},
{
anchors = (
{
name = bottom;
pos = (691,0);
},
{
name = top;
pos = (1015,1510);
}
);
layerId = m004;
shapes = (
{
closed = 1;
nodes = (
(1003,-21,o),
(1151,121,o),
(1151,466,cs),
(1151,1510,l),
(862,1510,l),
(862,492,ls),
(862,314,o),
(790,243,o),
(552,243,cs),
(366,243,o),
(120,286,o),
(111,300,c),
(111,28,l),
(228,0,o),
(422,-21,o),
(583,-21,cs)
);
}
);
width = 1358;
}
);
unicode = 74;
userData = {
KernOnName = J;
};
},
{
color = 5;
glyphname = K;
kernLeft = KO_H;
kernRight = KO_K;
lastChange = "2022-03-23 19:20:27 +0000";
layers = (
{
anchors = (
{
name = bottom;
pos = (720,0);
},
{
name = top;
pos = (720,1510);
}
);
layerId = "FC837317-1536-49E4-8B36-958C77713550";
shapes = (
{
closed = 1;
nodes = (
(1315,1510,l),
(1083,1510,l),
(355,698,l),
(355,432,l)
);
},
{
closed = 1;
nodes = (
(375,0,l),
(375,1510,l),
(183,1510,l),
(183,0,l)
);
},
{
closed = 1;
nodes = (
(1425,0,l),
(741,916,l),
(597,794,l),
(1175,0,l)
);
}
);
width = 1440;
},
{
anchors = (
{
name = bottom;
pos = (676,0);
},
{
name = top;
pos = (718,1510);
}
);
layerId = m014;
shapes = (
{
closed = 1;
nodes = (
(1349,1510,l),
(997,1510,l),
(401,810,l),
(401,462,l)
);
},
{
closed = 1;
nodes = (
(441,0,l),
(441,1510,l),
(151,1510,l),
(151,0,l)
);
},
{
closed = 1;
nodes = (
(1421,0,l),
(765,970,l),
(569,776,l),
(1081,0,l)
);
}
);
width = 1436;
},
{
anchors = (
{
name = bottom;
pos = (800,0);
},
{
name = top;
pos = (800,1510);
}
);
layerId = m003;
shapes = (
{
closed = 1;
nodes = (
(1484,1510,l),
(1243,1510,l),
(358,658,l),
(358,432,l)
);
},
{
closed = 1;
nodes = (
(374,0,l),
(374,1510,l),
(183,1510,l),
(183,0,l)
);
},
{
closed = 1;
nodes = (
(1625,0,l),
(816,916,l),
(665,794,l),
(1363,0,l)
);
}
);
width = 1640;
},
{
anchors = (
{
name = bottom;
pos = (798,0);
},
{
name = top;
pos = (798,1510);
}
);
layerId = m004;
shapes = (
{
closed = 1;
nodes = (
(1518,1510,l),
(1147,1510,l),
(404,780,l),
(404,462,l)
);
},
{
closed = 1;
nodes = (
(440,0,l),
(440,1510,l),
(151,1510,l),
(151,0,l)
);
},
{
closed = 1;
nodes = (
(1621,0,l),
(840,970,l),
(647,786,l),
(1259,0,l)
);
}
);
width = 1636;
}
);
metricLeft = "=H";
unicode = 75;
userData = {
KernOnName = K;
};
},
{
color = 5;
glyphname = L;
kernLeft = KO_H;
kernRight = KO_L;
lastChange = "2022-03-23 19:20:27 +0000";
layers = (
{
anchors = (
{
name = bottom;
pos = (555,0);
},
{
name = center;
pos = (375,810);
},
{
name = top;
pos = (587,1510);
},
{
name = topright;
pos = (724,1510);
}
);
layerId = "FC837317-1536-49E4-8B36-958C77713550";
shapes = (
{
closed = 1;
nodes = (
(1027,0,l),
(1027,188,l),
(299,188,l),
(375,96,l),
(375,1510,l),
(183,1510,l),
(183,0,l)
);
}
);
width = 1110;
},
{
anchors = (
{
name = bottom;
pos = (568,0);
},
{
name = center;
pos = (331,804);
},
{
name = top;
pos = (568,1510);
},
{
name = topright;
pos = (821,1510);
}
);
layerId = m014;
shapes = (
{
closed = 1;
nodes = (
(1025,0,l),
(1025,260,l),
(353,260,l),
(443,150,l),
(443,1510,l),
(151,1510,l),
(151,0,l)
);
}
);
width = 1136;
},
{
anchors = (
{
name = bottom;
pos = (699,0);
},
{
name = center;
pos = (334,815);
},
{
name = top;
pos = (727,1504);
},
{
name = topright;
pos = (828,1510);
}
);
layerId = m003;
shapes = (
{
closed = 1;
nodes = (
(1227,0,l),
(1227,188,l),
(285,188,l),
(373,96,l),
(373,1510,l),
(183,1510,l),
(183,0,l)
);
}
);
width = 1310;
},
{
anchors = (
{
name = bottom;
pos = (640,0);
},
{
name = center;
pos = (421,833);
},
{
name = top;
pos = (714,1510);
},
{
name = topright;
pos = (925,1510);
}
);
layerId = m004;
shapes = (
{
closed = 1;
nodes = (
(1225,0,l),
(1225,260,l),
(339,260,l),
(441,150,l),
(441,1510,l),
(151,1510,l),
(151,0,l)
);
}
);
width = 1336;
}
);
metricLeft = H;
unicode = 76;
userData = {
KernOnName = L;
};
},
{
color = 5;
glyphname = M;
kernLeft = KO_H;
kernRight = KO_H;
lastChange = "2022-03-16 19:19:45 +0000";
layers = (
{
anchors = (
{
name = bottom;
pos = (928,0);
},
{
name = top;
pos = (928,1510);
}
);
layerId = "FC837317-1536-49E4-8B36-958C77713550";
shapes = (
{
closed = 1;
nodes = (
(371,0,l),
(371,883,l),
(365,1151,l),
(375,1151,l),
(833,0,l),
(1023,0,l),
(1483,1151,l),
(1493,1151,l),
(1485,883,l),
(1485,0,l),
(1673,0,l),
(1673,1510,l),
(1435,1510,l),
(971,360,ls),
(934,269,o),
(930,260,o),
(929,222,c),
(925,222,l),
(921,262,o),
(918,272,o),
(885,354,cs),
(417,1510,l),
(183,1510,l),
(183,0,l)
);
}
);
width = 1856;
},
{
anchors = (
{
name = bottom;
pos = (953,0);
},
{
name = top;
pos = (953,1510);
}
);
layerId = m014;
shapes = (
{
closed = 1;
nodes = (
(441,0,l),
(441,736,l),
(411,1190,l),
(417,1190,l),
(829,0,l),
(1077,0,l),
(1489,1194,l),
(1495,1194,l),
(1465,736,l),
(1465,0,l),
(1755,0,l),
(1755,1510,l),
(1337,1510,l),
(1001,508,ls),
(967,408,o),
(957,386,o),
(957,350,c),
(949,350,l),
(949,386,o),
(938,409,o),
(905,508,cs),
(569,1510,l),
(151,1510,l),
(151,0,l)
);
}
);
width = 1906;
},
{
anchors = (
{
name = bottom;
pos = (1028,0);
},
{
name = top;
pos = (1028,1510);
}
);
background = {
shapes = (
{
closed = 1;
nodes = (
(368,0,l),
(368,886,l),
(378,1116,l),
(382,1116,l),
(927,0,l),
(1132,0,l),
(1677,1172,l),
(1687,1172,l),
(1688,886,l),
(1688,0,l),
(1873,0,l),
(1873,1510,l),
(1672,1510,l),
(1097,390,l),
(1029,210,l),
(1024,210,l),
(959,390,l),
(384,1510,l),
(183,1510,l),
(183,0,l)
);
}
);
};
layerId = m003;
shapes = (
{
closed = 1;
nodes = (
(368,0,l),
(368,786,l),
(356,1184,l),
(366,1184,l),
(931,0,l),
(1125,0,l),
(1693,1184,l),
(1703,1184,l),
(1688,786,l),
(1688,0,l),
(1873,0,l),
(1873,1510,l),
(1652,1510,l),
(1080,321,ls),
(1046,251,o),
(1034,225,o),
(1032,188,c),
(1029,188,l),
(1023,226,o),
(1016,250,o),
(984,315,cs),
(406,1510,l),
(183,1510,l),
(183,0,l)
);
}
);
width = 2056;
},
{
anchors = (
{
name = bottom;
pos = (1053,0);
},
{
name = top;
pos = (1053,1510);
}
);
background = {
shapes = (
{
closed = 1;
nodes = (
(438,0,l),
(438,536,l),
(418,1190,l),
(424,1190,l),
(923,0,l),
(1184,0,l),
(1683,1194,l),
(1691,1194,l),
(1668,536,l),
(1668,0,l),
(1955,0,l),
(1955,1510,l),
(1562,1510,l),
(1113,508,l),
(1055,338,l),
(1050,338,l),
(993,508,l),
(544,1510,l),
(151,1510,l),
(151,0,l)
);
},
{
closed = 1;
nodes = (
(438,0,l),
(438,536,l),
(418,1190,l),
(424,1190,l),
(923,0,l),
(1184,0,l),
(1683,1194,l),
(1691,1194,l),
(1668,536,l),
(1668,0,l),
(1955,0,l),
(1955,1510,l),
(1562,1510,l),
(1113,508,l),
(1055,338,l),
(1050,338,l),
(993,508,l),
(544,1510,l),
(151,1510,l),
(151,0,l)
);
}
);
};
layerId = m004;
shapes = (
{
closed = 1;
nodes = (
(438,0,l),
(438,776,l),
(411,1190,l),
(419,1190,l),
(924,0,l),
(1182,0,l),
(1688,1194,l),
(1696,1194,l),
(1668,776,l),
(1668,0,l),
(1955,0,l),
(1955,1510,l),
(1556,1510,l),
(1111,478,ls),
(1070,382,o),
(1061,356,o),
(1060,320,c),
(1053,320,l),
(1051,356,o),
(1049,376,o),
(1004,478,cs),
(554,1510,l),
(151,1510,l),
(151,0,l)
);
}
);
width = 2106;
}
);
metricLeft = "=H";
metricRight = "=H";
unicode = 77;
},
{
color = 5;
glyphname = N;
kernLeft = KO_H;
kernRight = KO_H;
lastChange = "2022-03-23 19:20:27 +0000";
layers = (
{
anchors = (
{
name = bottom;
pos = (764,0);
},
{
name = top;
pos = (764,1510);
}
);
layerId = "FC837317-1536-49E4-8B36-958C77713550";
shapes = (
{
closed = 1;
nodes = (
(375,0,l),
(375,947,ls),
(375,1040,o),
(370,1117,o),
(358,1225,c),
(363,1225,l),
(1137,0,l),
(1345,0,l),
(1345,1510,l),
(1153,1510,l),
(1153,573,ls),
(1153,478,o),
(1158,417,o),
(1171,289,c),
(1165,289,l),
(397,1510,l),
(183,1510,l),
(183,0,l)
);
}
);
width = 1528;
},
{
anchors = (
{
name = bottom;
pos = (756,0);
},
{
name = top;
pos = (786,1510);
}
);
layerId = m014;
shapes = (
{
closed = 1;
nodes = (
(441,0,l),
(441,780,ls),
(441,903,o),
(427,1028,o),
(414,1120,c),
(418,1120,l),
(1080,0,l),
(1421,0,l),
(1421,1510,l),
(1131,1510,l),
(1131,712,ls),
(1131,619,o),
(1137,544,o),
(1157,398,c),
(1153,398,l),
(490,1510,l),
(151,1510,l),
(151,0,l)
);
}
);
width = 1572;
},
{
anchors = (
{
name = bottom;
pos = (874,0);
},
{
name = top;
pos = (874,1510);
}
);
layerId = m003;
shapes = (
{
closed = 1;
nodes = (
(374,0,l),
(374,952,ls),
(374,1045,o),
(373,1111,o),
(357,1230,c),
(362,1230,l),
(1350,0,l),
(1545,0,l),
(1545,1510,l),
(1354,1510,l),
(1354,568,ls),
(1354,473,o),
(1354,410,o),
(1371,284,c),
(1366,284,l),
(388,1510,l),
(183,1510,l),
(183,0,l)
);
}
);
width = 1728;
},
{
anchors = (
{
name = bottom;
pos = (886,0);
},
{
name = top;
pos = (886,1510);
}
);
background = {
anchors = (
{
name = bottom;
pos = (886,0);
},
{
name = top;
pos = (886,1510);
}
);
shapes = (
{
closed = 1;
nodes = (
(440,0,l),
(440,720,l),
(411,1120,l),
(416,1120,l),
(1296,0,l),
(1621,0,l),
(1621,1510,l),
(1332,1510,l),
(1332,742,l),
(1361,398,l),
(1356,398,l),
(478,1510,l),
(151,1510,l),
(151,0,l)
);
}
);
};
layerId = m004;
shapes = (
{
closed = 1;
nodes = (
(440,0,l),
(440,834,ls),
(440,931,o),
(429,1028,o),
(417,1120,c),
(422,1120,l),
(1289,0,l),
(1621,0,l),
(1621,1510,l),
(1332,1510,l),
(1332,702,ls),
(1332,619,o),
(1336,539,o),
(1354,398,c),
(1349,398,l),
(486,1510,l),
(151,1510,l),
(151,0,l)
);
}
);
width = 1772;
}
);
metricLeft = "=H";
metricRight = "=H";
unicode = 78;
userData = {
KernOnName = N;
};
},
{
color = 3;
glyphname = Eng;
lastChange = "2022-03-23 21:55:56 +0000";
layers = (
{
layerId = "FC837317-1536-49E4-8B36-958C77713550";
shapes = (
{
closed = 1;
nodes = (
(1257,-434,o),
(1345,-224,o),
(1345,0,cs),
(1345,1510,l),
(1153,1510,l),
(1153,573,ls),
(1153,478,o),
(1158,417,o),
(1171,289,c),
(1165,289,l),
(397,1510,l),
(183,1510,l),
(183,0,l),
(375,0,l),
(375,947,ls),
(375,1040,o),
(370,1117,o),
(358,1225,c),
(363,1225,l),
(1153,-26,l),
(1153,-202,o),
(1088,-264,o),
(912,-264,cs),
(747,-264,o),
(566,-184,o),
(561,-174,c),
(561,-366,l),
(653,-405,o),
(793,-434,o),
(914,-434,cs)
);
}
);
width = 1528;
},
{
layerId = m014;
shapes = (
{
closed = 1;
nodes = (
(1202,-419,o),
(1421,-313,o),
(1421,0,cs),
(1421,1510,l),
(1131,1510,l),
(1131,712,ls),
(1131,619,o),
(1137,544,o),
(1157,398,c),
(1153,398,l),
(490,1510,l),
(151,1510,l),
(151,0,l),
(441,0,l),
(441,780,ls),
(441,903,o),
(427,1028,o),
(414,1120,c),
(418,1120,l),
(1131,-86,l),
(1131,-128,o),
(1109,-157,o),
(917,-157,cs),
(798,-157,o),
(601,-118,o),
(581,-100,c),
(581,-372,l),
(699,-407,o),
(811,-419,o),
(904,-419,cs)
);
}
);
width = 1572;
},
{
layerId = m003;
shapes = (
{
closed = 1;
nodes = (
(1545,-435,o),
(1545,-180,o),
(1545,-14,cs),
(1545,1510,l),
(1354,1510,l),
(1354,568,ls),
(1354,473,o),
(1354,410,o),
(1371,284,c),
(1366,284,l),
(388,1510,l),
(183,1510,l),
(183,0,l),
(374,0,l),
(374,952,ls),
(374,1045,o),
(373,1111,o),
(357,1230,c),
(362,1230,l),
(1354,-5,l),
(1354,-203,o),
(1250,-264,o),
(1019,-264,cs),
(785,-264,o),
(561,-181,o),
(561,-174,cs),
(561,-366,l),
(667,-401,o),
(865,-435,o),
(1038,-435,cs)
);
}
);
width = 1728;
},
{
layerId = m004;
shapes = (
{
closed = 1;
nodes = (
(1474,-430,o),
(1622,-288,o),
(1621,-3,cs),
(1621,1510,l),
(1332,1510,l),
(1332,702,ls),
(1332,619,o),
(1336,539,o),
(1354,398,c),
(1349,398,l),
(486,1510,l),
(151,1510,l),
(151,0,l),
(440,0,l),
(440,834,ls),
(440,931,o),
(429,1028,o),
(417,1120,c),
(422,1120,l),
(1333,-48,l),
(1333,-109,o),
(1261,-166,o),
(1023,-166,cs),
(837,-166,o),
(591,-123,o),
(582,-109,c),
(582,-381,l),
(699,-409,o),
(893,-430,o),
(1054,-430,cs)
);
}
);
width = 1772;
}
);
metricLeft = N;
metricRight = N;
unicode = 330;
},
{
color = 5;
glyphname = O;
kernLeft = KO_O;
kernRight = KO_O;
lastChange = "2022-03-23 19:20:27 +0000";
layers = (
{
anchors = (
{
name = bottom;
pos = (751,0);
},
{
name = center;
pos = (751,755);
},
{
name = ogonek;
pos = (1348,10);
},
{
name = top;
pos = (751,1510);
},
{
name = topleft;
pos = (25,1510);
},
{
name = topright;
pos = (1477,1510);
}
);
layerId = "FC837317-1536-49E4-8B36-958C77713550";
shapes = (
{
closed = 1;
nodes = (
(1141,-32,o),
(1391,274,o),
(1391,752,cs),
(1391,1230,o),
(1143,1530,o),
(751,1530,cs),
(359,1530,o),
(111,1230,o),
(111,752,cs),
(111,274,o),
(361,-32,o),
(751,-32,cs)
);
},
{
closed = 1;
nodes = (
(483,142,o),
(315,376,o),
(315,750,cs),
(315,1124,o),
(481,1356,o),
(751,1356,cs),
(1021,1356,o),
(1187,1124,o),
(1187,750,cs),
(1187,376,o),
(1019,142,o),
(751,142,cs)
);
}
);
width = 1502;
},
{
anchors = (
{
name = bottom;
pos = (807,-32);
},
{
name = center;
pos = (807,755);
},
{
name = ogonek;
pos = (967,0);
},
{
name = top;
pos = (807,1510);
},
{
name = topleft;
pos = (25,1510);
},
{
name = topright;
pos = (1589,1510);
}
);
layerId = m014;
shapes = (
{
closed = 1;
nodes = (
(1239,-32,o),
(1503,266,o),
(1503,752,cs),
(1503,1238,o),
(1241,1530,o),
(807,1530,cs),
(373,1530,o),
(111,1238,o),
(111,752,cs),
(111,266,o),
(375,-32,o),
(807,-32,cs)
);
},
{
closed = 1;
nodes = (
(573,218,o),
(411,436,o),
(411,750,cs),
(411,1066,o),
(571,1278,o),
(807,1278,cs),
(1043,1278,o),
(1203,1066,o),
(1203,750,cs),
(1203,436,o),
(1041,218,o),
(807,218,cs)
);
}
);
width = 1614;
},
{
anchors = (
{
name = bottom;
pos = (851,0);
},
{
name = center;
pos = (851,755);
},
{
name = ogonek;
pos = (1544,10);
},
{
name = top;
pos = (851,1510);
},
{
name = topleft;
pos = (9,1510);
},
{
name = topright;
pos = (1693,1510);
}
);
layerId = m003;
shapes = (
{
closed = 1;
nodes = (
(1299,-32,o),
(1591,274,o),
(1591,752,cs),
(1591,1230,o),
(1301,1530,o),
(851,1530,cs),
(401,1530,o),
(111,1230,o),
(111,752,cs),
(111,274,o),
(403,-32,o),
(851,-32,cs)
);
},
{
closed = 1;
nodes = (
(520,142,o),
(317,376,o),
(317,750,cs),
(317,1124,o),
(517,1356,o),
(851,1356,cs),
(1185,1356,o),
(1385,1124,o),
(1385,750,cs),
(1385,376,o),
(1182,142,o),
(851,142,cs)
);
}
);
width = 1702;
},
{
anchors = (
{
name = bottom;
pos = (907,0);
},
{
name = center;
pos = (907,755);
},
{
name = ogonek;
pos = (1096,0);
},
{
name = top;
pos = (907,1510);
},
{
name = topleft;
pos = (9,1510);
},
{
name = topright;
pos = (1805,1510);
}
);
layerId = m004;
shapes = (
{
closed = 1;
nodes = (
(1397,-32,o),
(1703,266,o),
(1703,752,cs),
(1703,1238,o),
(1399,1530,o),
(907,1530,cs),
(415,1530,o),
(111,1238,o),
(111,752,cs),
(111,266,o),
(417,-32,o),
(907,-32,cs)
);
},
{
closed = 1;
nodes = (
(610,218,o),
(413,436,o),
(413,750,cs),
(413,1066,o),
(607,1278,o),
(907,1278,cs),
(1207,1278,o),
(1401,1066,o),
(1401,750,cs),
(1401,436,o),
(1204,218,o),
(907,218,cs)
);
}
);
width = 1814;
}
);
unicode = 79;
userData = {
KernOnName = O;
};
},
{
color = 4;
glyphname = OE;
kernLeft = KO_G;
kernRight = KO_E;
lastChange = "2022-03-21 14:50:33 +0000";
layers = (
{
layerId = "FC837317-1536-49E4-8B36-958C77713550";
shapes = (
{
closed = 1;
nodes = (
(1154,-32,o),
(1369,333,o),
(1369,753,cs),
(1369,1167,o),
(1161,1530,o),
(753,1530,cs),
(384,1530,o),
(111,1232,o),
(111,753,cs),
(111,276,o),
(381,-32,o),
(751,-32,cs)
);
},
{
closed = 1;
nodes = (
(471,142,o),
(315,375,o),
(315,752,cs),
(315,1123,o),
(466,1356,o),
(754,1356,cs),
(1036,1356,o),
(1187,1132,o),
(1187,757,cs),
(1187,384,o),
(1037,142,o),
(751,142,cs)
);
},
{
closed = 1;
nodes = (
(2063,0,l),
(2063,168,l),
(1305,168,l),
(1369,96,l),
(1369,766,l),
(1305,690,l),
(1943,690,l),
(1943,858,l),
(1305,858,l),
(1369,782,l),
(1369,1416,l),
(1305,1344,l),
(2053,1344,l),
(2053,1512,l),
(1187,1512,l),
(1187,0,l)
);
}
);
width = 2126;
},
{
layerId = m014;
shapes = (
{
closed = 1;
nodes = (
(1319,-32,o),
(1463,608,o),
(1463,752,cs),
(1463,892,o),
(1325,1530,o),
(787,1530,cs),
(425,1530,o),
(111,1239,o),
(111,752,cs),
(111,267,o),
(423,-32,o),
(787,-32,cs)
);
},
{
closed = 1;
nodes = (
(531,218,o),
(411,428,o),
(411,750,cs),
(411,1058,o),
(521,1278,o),
(787,1278,cs),
(1046,1278,o),
(1183,1080,o),
(1183,750,cs),
(1183,442,o),
(1051,218,o),
(787,218,cs)
);
},
{
closed = 1;
nodes = (
(2125,0,l),
(2125,244,l),
(1361,244,l),
(1463,140,l),
(1463,762,l),
(1361,652,l),
(2025,652,l),
(2025,896,l),
(1361,896,l),
(1463,786,l),
(1463,1370,l),
(1361,1266,l),
(2125,1266,l),
(2125,1510,l),
(1183,1510,l),
(1183,0,l)
);
}
);
width = 2226;
},
{
layerId = m003;
shapes = (
{
closed = 1;
nodes = (
(1239,-32,o),
(1511,274,o),
(1511,753,cs),
(1511,1230,o),
(1241,1530,o),
(812,1530,cs),
(383,1530,o),
(111,1229,o),
(111,752,cs),
(111,273,o),
(385,-32,o),
(812,-32,cs)
);
},
{
closed = 1;
nodes = (
(507,142,o),
(315,376,o),
(315,751,cs),
(315,1124,o),
(505,1356,o),
(822,1356,cs),
(1138,1356,o),
(1337,1125,o),
(1337,752,cs),
(1337,377,o),
(1135,142,o),
(821,142,cs)
);
},
{
closed = 1;
nodes = (
(2386,0,l),
(2386,168,l),
(1468,168,l),
(1532,96,l),
(1532,766,l),
(1468,690,l),
(2266,690,l),
(2266,858,l),
(1468,858,l),
(1532,782,l),
(1532,1416,l),
(1468,1344,l),
(2376,1344,l),
(2376,1512,l),
(1340,1512,l),
(1340,0,l)
);
}
);
width = 2449;
},
{
layerId = m004;
shapes = (
{
closed = 1;
nodes = (
(1386,-32,o),
(1573,525,o),
(1573,754,cs),
(1573,979,o),
(1394,1530,o),
(841,1530,cs),
(446,1530,o),
(111,1250,o),
(111,763,cs),
(111,278,o),
(444,-32,o),
(846,-32,cs)
);
},
{
closed = 1;
nodes = (
(569,218,o),
(411,435,o),
(411,751,cs),
(411,1065,o),
(567,1278,o),
(873,1278,cs),
(1179,1278,o),
(1310,1064,o),
(1310,755,cs),
(1310,444,o),
(1178,218,o),
(870,218,cs)
);
},
{
closed = 1;
nodes = (
(2422,0,l),
(2422,244,l),
(1488,244,l),
(1580,140,l),
(1580,762,l),
(1488,652,l),
(2322,652,l),
(2322,896,l),
(1488,896,l),
(1580,786,l),
(1580,1372,l),
(1488,1268,l),
(2422,1268,l),
(2422,1512,l),
(1310,1512,l),
(1310,0,l)
);
}
);
width = 2523;
}
);
metricLeft = O;
metricRight = E;
unicode = 338;
},
{
color = 5;
glyphname = P;
kernLeft = KO_H;
kernRight = KO_P;
lastChange = "2022-03-23 19:20:27 +0000";
layers = (
{
anchors = (
{
name = bottom;
pos = (593,0);
},
{
name = top;
pos = (593,1510);
}
);
layerId = "FC837317-1536-49E4-8B36-958C77713550";
shapes = (
{
closed = 1;
nodes = (
(643,572,ls),
(951,572,o),
(1129,771,o),
(1129,1045,cs),
(1129,1329,o),
(937,1510,o),
(621,1510,cs),
(375,1510,l),
(375,1342,l),
(585,1342,ls),
(815,1342,o),
(929,1246,o),
(929,1043,cs),
(929,843,o),
(819,740,o),
(639,740,cs),
(375,740,l),
(375,572,l)
);
},
{
closed = 1;
nodes = (
(375,0,l),
(375,1510,l),
(183,1510,l),
(183,0,l)
);
}
);
width = 1206;
},
{
anchors = (
{
name = bottom;
pos = (660,0);
},
{
name = top;
pos = (660,1510);
}
);
layerId = m014;
shapes = (
{
closed = 1;
nodes = (
(691,488,ls),
(1037,488,o),
(1245,668,o),
(1245,1003,cs),
(1245,1341,o),
(1034,1510,o),
(681,1510,cs),
(439,1510,l),
(439,1270,l),
(645,1270,ls),
(853,1270,o),
(951,1171,o),
(951,999,cs),
(951,827,o),
(856,728,o),
(655,728,cs),
(439,728,l),
(439,488,l)
);
},
{
closed = 1;
nodes = (
(439,0,l),
(439,1510,l),
(151,1510,l),
(151,0,l)
);
}
);
width = 1320;
},
{
anchors = (
{
name = bottom;
pos = (658,0);
},
{
name = top;
pos = (658,1510);
}
);
layerId = m003;
shapes = (
{
closed = 1;
nodes = (
(735,572,ls),
(1114,572,o),
(1329,772,o),
(1329,1043,cs),
(1329,1330,o),
(1089,1510,o),
(699,1510,cs),
(375,1510,l),
(375,1342,l),
(652,1342,ls),
(966,1342,o),
(1125,1246,o),
(1125,1043,cs),
(1125,843,o),
(972,740,o),
(750,740,cs),
(375,740,l),
(375,572,l)
);
},
{
closed = 1;
nodes = (
(375,0,l),
(375,1510,l),
(183,1510,l),
(183,0,l)
);
}
);
width = 1406;
},
{
anchors = (
{
name = bottom;
pos = (725,0);
},
{
name = top;
pos = (725,1510);
}
);
layerId = m004;
shapes = (
{
closed = 1;
nodes = (
(783,488,ls),
(1200,488,o),
(1445,669,o),
(1445,1001,cs),
(1445,1342,o),
(1186,1510,o),
(759,1510,cs),
(439,1510,l),
(439,1270,l),
(712,1270,ls),
(1004,1270,o),
(1147,1171,o),
(1147,999,cs),
(1147,827,o),
(1009,728,o),
(766,728,cs),
(439,728,l),
(439,488,l)
);
},
{
closed = 1;
nodes = (
(439,0,l),
(439,1510,l),
(151,1510,l),
(151,0,l)
);
}
);
width = 1520;
}
);
metricLeft = "=H";
unicode = 80;
userData = {
KernOnName = P;
};
},
{
color = 8;
glyphname = Thorn;
kernLeft = KO_H;
lastChange = "2022-03-23 22:35:48 +0000";
layers = (
{
layerId = "FC837317-1536-49E4-8B36-958C77713550";
shapes = (
{
closed = 1;
nodes = (
(643,342,ls),
(951,342,o),
(1129,528,o),
(1129,785,cs),
(1129,1051,o),
(937,1220,o),
(621,1220,cs),
(375,1220,l),
(375,1052,l),
(585,1052,ls),
(815,1052,o),
(929,966,o),
(929,783,cs),
(929,603,o),
(819,510,o),
(639,510,cs),
(375,510,l),
(375,342,l)
);
},
{
closed = 1;
nodes = (
(375,0,l),
(375,1510,l),
(183,1510,l),
(183,0,l)
);
}
);
width = 1206;
},
{
layerId = m014;
shapes = (
{
closed = 1;
nodes = (
(691,298,ls),
(1037,298,o),
(1245,468,o),
(1245,787,cs),
(1245,1108,o),
(1034,1270,o),
(681,1270,cs),
(439,1270,l),
(439,1030,l),
(645,1030,ls),
(853,1030,o),
(951,938,o),
(951,781,cs),
(951,626,o),
(856,538,o),
(655,538,cs),
(439,538,l),
(439,298,l)
);
},
{
closed = 1;
nodes = (
(439,0,l),
(439,1510,l),
(151,1510,l),
(151,0,l)
);
}
);
width = 1320;
},
{
layerId = m003;
shapes = (
{
closed = 1;
nodes = (
(735,322,ls),
(1114,322,o),
(1329,486,o),
(1329,793,cs),
(1329,1100,o),
(1089,1260,o),
(699,1260,cs),
(375,1260,l),
(375,1092,l),
(652,1092,ls),
(966,1092,o),
(1125,1016,o),
(1125,793,cs),
(1125,570,o),
(972,490,o),
(750,490,cs),
(375,490,l),
(375,322,l)
);
},
{
closed = 1;
nodes = (
(375,0,l),
(375,1510,l),
(183,1510,l),
(183,0,l)
);
}
);
width = 1406;
},
{
layerId = m004;
shapes = (
{
closed = 1;
nodes = (
(783,278,ls),
(1200,278,o),
(1445,459,o),
(1445,791,cs),
(1445,1132,o),
(1186,1300,o),
(759,1300,cs),
(439,1300,l),
(439,1060,l),
(712,1060,ls),
(1004,1060,o),
(1147,961,o),
(1147,787,cs),
(1147,617,o),
(1009,518,o),
(766,518,cs),
(439,518,l),
(439,278,l)
);
},
{
closed = 1;
nodes = (
(439,0,l),
(439,1510,l),
(151,1510,l),
(151,0,l)
);
}
);
width = 1520;
}
);
metricLeft = H;
metricRight = P;
unicode = 222;
},
{
color = 5;
glyphname = Q;
kernLeft = KO_O;
kernRight = KO_Q;
lastChange = "2022-03-23 19:19:50 +0000";
layers = (
{
anchors = (
{
name = bottom;
pos = (778,0);
},
{
name = top;
pos = (778,1510);
}
);
layerId = "FC837317-1536-49E4-8B36-958C77713550";
shapes = (
{
closed = 1;
nodes = (
(1141,-32,o),
(1391,274,o),
(1391,752,cs),
(1391,1230,o),
(1143,1530,o),
(751,1530,cs),
(359,1530,o),
(111,1230,o),
(111,752,cs),
(111,274,o),
(361,-32,o),
(751,-32,cs)
);
},
{
closed = 1;
nodes = (
(1445,-96,l),
(1160,260,l),
(811,708,l),
(671,594,l),
(1029,131,l),
(1293,-220,l)
);
},
{
closed = 1;
nodes = (
(483,142,o),
(315,376,o),
(315,750,cs),
(315,1124,o),
(481,1356,o),
(751,1356,cs),
(1021,1356,o),
(1187,1124,o),
(1187,750,cs),
(1187,376,o),
(1019,142,o),
(751,142,cs)
);
}
);
width = 1556;
},
{
anchors = (
{
name = bottom;
pos = (807,0);
},
{
name = top;
pos = (807,1510);
}
);
guides = (
{
angle = 37.4762;
pos = (370,292);
}
);
layerId = m014;
shapes = (
{
closed = 1;
nodes = (
(1231,-32,o),
(1503,274,o),
(1503,752,cs),
(1503,1230,o),
(1233,1530,o),
(807,1530,cs),
(381,1530,o),
(111,1230,o),
(111,752,cs),
(111,274,o),
(383,-32,o),
(807,-32,cs)
);
},
{
closed = 1;
nodes = (
(1503,-96,l),
(1209,275,l),
(883,702,l),
(683,544,l),
(1011,129,l),
(1303,-254,l)
);
},
{
closed = 1;
nodes = (
(563,218,o),
(411,422,o),
(411,750,cs),
(411,1076,o),
(561,1278,o),
(807,1278,cs),
(1053,1278,o),
(1203,1076,o),
(1203,750,cs),
(1203,422,o),
(1051,218,o),
(807,218,cs)
);
}
);
width = 1614;
},
{
anchors = (
{
name = bottom;
pos = (778,0);
},
{
name = top;
pos = (778,1510);
}
);
layerId = m003;
shapes = (
{
closed = 1;
nodes = (
(1299,-32,o),
(1591,274,o),
(1591,752,cs),
(1591,1230,o),
(1301,1530,o),
(851,1530,cs),
(401,1530,o),
(111,1230,o),
(111,752,cs),
(111,274,o),
(403,-32,o),
(851,-32,cs)
);
},
{
closed = 1;
nodes = (
(1625,-106,l),
(1340,250,l),
(991,698,l),
(851,584,l),
(1209,121,l),
(1473,-230,l)
);
},
{
closed = 1;
nodes = (
(520,142,o),
(317,376,o),
(317,750,cs),
(317,1124,o),
(517,1356,o),
(851,1356,cs),
(1185,1356,o),
(1385,1124,o),
(1385,750,cs),
(1385,376,o),
(1182,142,o),
(851,142,cs)
);
}
);
width = 1736;
},
{
anchors = (
{
name = bottom;
pos = (807,0);
},
{
name = top;
pos = (807,1510);
}
);
guides = (
{
angle = 37.4762;
pos = (370,292);
}
);
layerId = m004;
shapes = (
{
closed = 1;
nodes = (
(1397,-32,o),
(1703,266,o),
(1703,752,cs),
(1703,1238,o),
(1399,1530,o),
(907,1530,cs),
(415,1530,o),
(111,1238,o),
(111,752,cs),
(111,266,o),
(417,-32,o),
(907,-32,cs)
);
},
{
closed = 1;
nodes = (
(1643,-96,l),
(1349,275,l),
(1023,702,l),
(823,544,l),
(1151,129,l),
(1443,-254,l)
);
},
{
closed = 1;
nodes = (
(610,218,o),
(413,436,o),
(413,750,cs),
(413,1066,o),
(607,1278,o),
(907,1278,cs),
(1207,1278,o),
(1401,1066,o),
(1401,750,cs),
(1401,436,o),
(1204,218,o),
(907,218,cs)
);
}
);
width = 1814;
}
);
metricLeft = "=O";
metricRight = "=O";
unicode = 81;
},
{
color = 5;
glyphname = R;
kernLeft = KO_H;
kernRight = KO_R;
lastChange = "2022-03-23 19:20:27 +0000";
layers = (
{
anchors = (
{
name = bottom;
pos = (651,0);
},
{
name = top;
pos = (595,1510);
}
);
layerId = "FC837317-1536-49E4-8B36-958C77713550";
shapes = (
{
closed = 1;
nodes = (
(1257,0,l),
(743,794,l),
(777,662,l),
(992,708,o),
(1133,872,o),
(1133,1104,cs),
(1133,1358,o),
(963,1510,o),
(671,1510,cs),
(375,1510,l),
(375,1342,l),
(635,1342,ls),
(833,1342,o),
(933,1260,o),
(933,1094,cs),
(933,927,o),
(831,812,o),
(691,812,cs),
(375,812,l),
(375,644,l),
(719,644,l),
(595,692,l),
(1027,0,l)
);
},
{
closed = 1;
nodes = (
(375,0,l),
(375,1510,l),
(183,1510,l),
(183,0,l)
);
}
);
width = 1376;
},
{
anchors = (
{
name = bottom;
pos = (655,0);
},
{
name = top;
pos = (635,1510);
}
);
layerId = m014;
shapes = (
{
closed = 1;
nodes = (
(1329,0,l),
(851,742,l),
(797,608,l),
(1099,666,o),
(1233,842,o),
(1233,1064,cs),
(1233,1338,o),
(1029,1510,o),
(689,1510,cs),
(391,1510,l),
(391,1270,l),
(653,1270,ls),
(848,1270,o),
(939,1175,o),
(939,1035,cs),
(939,898,o),
(853,820,o),
(647,822,cs),
(391,824,l),
(391,584,l),
(759,584,l),
(591,664,l),
(993,0,l)
);
},
{
closed = 1;
nodes = (
(439,0,l),
(439,1510,l),
(151,1510,l),
(151,0,l)
);
}
);
width = 1350;
},
{
anchors = (
{
name = bottom;
pos = (796,0);
},
{
name = top;
pos = (686,1510);
}
);
layerId = m003;
shapes = (
{
closed = 1;
nodes = (
(1457,0,l),
(808,794,l),
(890,662,l),
(1138,714,o),
(1291,887,o),
(1291,1115,cs),
(1291,1362,o),
(1111,1510,o),
(811,1510,cs),
(327,1510,l),
(327,1342,l),
(766,1342,ls),
(975,1342,o),
(1089,1257,o),
(1089,1103,cs),
(1089,937,o),
(957,812,o),
(784,812,cs),
(327,812,l),
(327,644,l),
(810,644,l),
(657,692,l),
(1203,0,l)
);
},
{
closed = 1;
nodes = (
(375,0,l),
(375,1510,l),
(183,1510,l),
(183,0,l)
);
}
);
width = 1478;
},
{
anchors = (
{
name = bottom;
pos = (763,0);
},
{
name = top;
pos = (763,1510);
}
);
layerId = m004;
shapes = (
{
closed = 1;
nodes = (
(1529,0,l),
(906,742,l),
(910,608,l),
(1219,667,o),
(1391,833,o),
(1391,1072,cs),
(1391,1340,o),
(1176,1510,o),
(839,1510,cs),
(413,1510,l),
(413,1270,l),
(794,1270,ls),
(983,1270,o),
(1095,1183,o),
(1095,1037,cs),
(1095,898,o),
(993,822,o),
(810,822,cs),
(413,822,l),
(413,584,l),
(850,584,l),
(653,664,l),
(1159,0,l)
);
},
{
closed = 1;
nodes = (
(439,0,l),
(439,1510,l),
(151,1510,l),
(151,0,l)
);
}
);
width = 1550;
}
);
metricLeft = H;
unicode = 82;
userData = {
KernOnName = R;
};
},
{
color = 5;
glyphname = S;
kernLeft = KO_S;
kernRight = KO_S;
lastChange = "2022-03-23 19:20:27 +0000";
layers = (
{
anchors = (
{
name = bottom;
pos = (578,0);
},
{
name = top;
pos = (598,1510);
}
);
background = {
shapes = (
{
closed = 1;
nodes = (
(847,-32,o),
(1030,138,o),
(1030,399,cs),
(1030,602,o),
(920,734,o),
(660,850,cs),
(406,964,o),
(316,1038,o),
(316,1150,cs),
(316,1274,o),
(427,1355,o),
(605,1355,cs),
(694,1355,o),
(798,1335,o),
(944,1290,c),
(958,1478,l),
(813,1514,o),
(701,1529,o),
(606,1529,cs),
(305,1529,o),
(112,1380,o),
(112,1145,cs),
(112,956,o),
(236,821,o),
(506,702,cs),
(748,595,o),
(826,512,o),
(826,381,cs),
(826,229,o),
(720,146,o),
(547,146,cs),
(416,146,o),
(262,194,o),
(104,284,c),
(96,74,l),
(251,7,o),
(408,-32,o),
(550,-32,cs)
);
}
);
};
layerId = "FC837317-1536-49E4-8B36-958C77713550";
shapes = (
{
closed = 1;
nodes = (
(875,-32,o),
(1068,138,o),
(1068,396,cs),
(1068,594,o),
(950,726,o),
(675,835,cs),
(439,929,o),
(337,1023,o),
(337,1149,cs),
(337,1271,o),
(433,1352,o),
(576,1352,cs),
(700,1352,o),
(806,1283,o),
(875,1152,c),
(1032,1295,l),
(919,1460,o),
(789,1529,o),
(598,1529,cs),
(315,1529,o),
(133,1377,o),
(133,1140,cs),
(133,940,o),
(265,792,o),
(521,691,cs),
(765,595,o),
(864,497,o),
(864,368,cs),
(864,236,o),
(747,146,o),
(577,146,cs),
(443,146,o),
(264,244,o),
(197,354,c),
(89,183,l),
(221,41,o),
(387,-32,o),
(582,-32,cs)
);
}
);
width = 1156;
},
{
anchors = (
{
name = bottom;
pos = (611,0);
},
{
name = top;
pos = (611,1510);
}
);
background = {
shapes = (
{
closed = 1;
nodes = (
(943,-32,o),
(1163,147,o),
(1163,438,cs),
(1163,660,o),
(1035,788,o),
(737,874,cs),
(515,938,o),
(419,1006,o),
(419,1104,cs),
(419,1209,o),
(531,1278,o),
(699,1278,cs),
(813,1278,o),
(951,1246,o),
(1079,1190,c),
(1079,1458,l),
(965,1504,o),
(822,1530,o),
(685,1530,cs),
(335,1530,o),
(119,1362,o),
(119,1104,cs),
(119,891,o),
(265,740,o),
(527,662,cs),
(765,592,o),
(863,522,o),
(863,412,cs),
(863,297,o),
(756,222,o),
(581,222,cs),
(437,222,o),
(279,274,o),
(125,370,c),
(125,74,l),
(275,2,o),
(425,-32,o),
(582,-32,cs)
);
},
{
closed = 1;
nodes = (
(945,-32,o),
(1168,146,o),
(1168,442,cs),
(1168,662,o),
(1044,787,o),
(752,878,cs),
(537,945,o),
(444,1008,o),
(444,1108,cs),
(444,1203,o),
(529,1268,o),
(661,1268,cs),
(873,1268,o),
(915,1098,o),
(916,1085,c),
(876,1069,l),
(1197,1252,l),
(1168,1203,l),
(1098,1396,o),
(937,1530,o),
(668,1530,cs),
(368,1530,o),
(144,1363,o),
(144,1101,cs),
(144,890,o),
(286,741,o),
(542,658,cs),
(773,583,o),
(868,519,o),
(868,413,cs),
(868,294,o),
(752,222,o),
(609,222,cs),
(373,222,o),
(305,419,o),
(310,434,c),
(347,453,l),
(40,246,l),
(68,298,l),
(132,88,o),
(333,-32,o),
(611,-32,cs)
);
}
);
};
layerId = m014;
shapes = (
{
closed = 1;
nodes = (
(953,-32,o),
(1172,153,o),
(1172,442,cs),
(1172,658,o),
(1050,781,o),
(752,874,cs),
(525,944,o),
(437,1013,o),
(437,1108,cs),
(437,1205,o),
(524,1270,o),
(654,1270,cs),
(775,1270,o),
(862,1209,o),
(908,1091,c),
(1151,1230,l),
(1069,1425,o),
(897,1530,o),
(661,1530,cs),
(351,1530,o),
(137,1355,o),
(137,1101,cs),
(137,897,o),
(277,744,o),
(542,658,cs),
(784,579,o),
(872,514,o),
(872,413,cs),
(872,301,o),
(761,220,o),
(609,220,cs),
(474,220,o),
(364,295,o),
(307,426,c),
(77,271,l),
(151,76,o),
(341,-32,o),
(611,-32,cs)
);
}
);
width = 1237;
},
{
anchors = (
{
name = bottom;
pos = (742,0);
},
{
name = top;
pos = (684,1510);
}
);
background = {
shapes = (
{
closed = 1;
nodes = (
(847,-32,o),
(1030,138,o),
(1030,399,cs),
(1030,602,o),
(920,734,o),
(660,850,cs),
(406,964,o),
(316,1038,o),
(316,1150,cs),
(316,1274,o),
(427,1355,o),
(605,1355,cs),
(694,1355,o),
(798,1335,o),
(944,1290,c),
(958,1478,l),
(813,1514,o),
(701,1529,o),
(606,1529,cs),
(305,1529,o),
(112,1380,o),
(112,1145,cs),
(112,956,o),
(236,821,o),
(506,702,cs),
(748,595,o),
(826,512,o),
(826,381,cs),
(826,229,o),
(720,146,o),
(547,146,cs),
(416,146,o),
(262,194,o),
(104,284,c),
(96,74,l),
(251,7,o),
(408,-32,o),
(550,-32,cs)
);
}
);
};
layerId = m003;
shapes = (
{
closed = 1;
nodes = (
(1049,-32,o),
(1268,132,o),
(1268,390,cs),
(1268,595,o),
(1127,722,o),
(762,832,cs),
(450,926,o),
(332,1014,o),
(332,1147,cs),
(332,1272,o),
(452,1352,o),
(641,1352,cs),
(817,1352,o),
(1018,1260,o),
(1057,1162,c),
(1200,1295,l),
(1127,1427,o),
(888,1529,o),
(650,1529,cs),
(340,1529,o),
(125,1370,o),
(125,1140,cs),
(125,934,o),
(313,768,o),
(598,685,cs),
(943,585,o),
(1061,502,o),
(1061,370,cs),
(1061,234,o),
(915,146,o),
(687,146,cs),
(496,146,o),
(254,241,o),
(139,361,c),
(69,183,l),
(238,45,o),
(464,-32,o),
(703,-32,cs)
);
}
);
width = 1356;
},
{
anchors = (
{
name = bottom;
pos = (777,0);
},
{
name = top;
pos = (777,1510);
}
);
background = {
shapes = (
{
closed = 1;
nodes = (
(943,-32,o),
(1163,147,o),
(1163,438,cs),
(1163,660,o),
(1035,788,o),
(737,874,cs),
(515,938,o),
(419,1006,o),
(419,1104,cs),
(419,1209,o),
(531,1278,o),
(699,1278,cs),
(813,1278,o),
(951,1246,o),
(1079,1190,c),
(1079,1458,l),
(965,1504,o),
(822,1530,o),
(685,1530,cs),
(335,1530,o),
(119,1362,o),
(119,1104,cs),
(119,891,o),
(265,740,o),
(527,662,cs),
(765,592,o),
(863,522,o),
(863,412,cs),
(863,297,o),
(756,222,o),
(581,222,cs),
(437,222,o),
(279,274,o),
(125,370,c),
(125,74,l),
(275,2,o),
(425,-32,o),
(582,-32,cs)
);
}
);
};
layerId = m004;
shapes = (
{
closed = 1;
nodes = (
(1120,-32,o),
(1368,146,o),
(1368,436,cs),
(1368,645,o),
(1239,784,o),
(804,889,cs),
(571,945,o),
(462,1007,o),
(462,1105,cs),
(462,1205,o),
(578,1268,o),
(740,1268,cs),
(912,1268,o),
(1022,1199,o),
(1089,1095,c),
(1324,1232,l),
(1195,1451,o),
(1011,1530,o),
(765,1530,cs),
(406,1530,o),
(159,1363,o),
(159,1102,cs),
(159,895,o),
(314,739,o),
(721,639,cs),
(955,581,o),
(1065,517,o),
(1065,407,cs),
(1065,292,o),
(924,222,o),
(716,222,cs),
(536,222,o),
(397,297,o),
(278,421,c),
(105,212,l),
(270,28,o),
(492,-32,o),
(723,-32,cs)
);
}
);
width = 1437;
}
);
unicode = 83;
userData = {
KernOnName = S;
};
},
{
color = 4;
glyphname = Germandbls;
kernLeft = KO_H;
lastChange = "2022-03-23 19:32:56 +0000";
layers = (
{
layerId = "FC837317-1536-49E4-8B36-958C77713550";
shapes = (
{
closed = 1;
nodes = (
(984,-32,o),
(1159,111,o),
(1159,335,cs),
(1159,648,o),
(816,677,o),
(816,782,cs),
(816,867,o),
(1045,932,o),
(1045,1182,cs),
(1045,1389,o),
(889,1530,o),
(627,1530,cs),
(361,1530,o),
(183,1384,o),
(183,1161,cs),
(183,0,l),
(379,0,l),
(379,1121,ls),
(379,1291,o),
(485,1351,o),
(626,1351,cs),
(759,1351,o),
(843,1298,o),
(843,1174,cs),
(843,967,o),
(609,944,o),
(609,766,cs),
(609,548,o),
(962,552,o),
(962,314,cs),
(962,180,o),
(849,136,o),
(751,136,cs),
(669,136,o),
(599,167,o),
(541,243,c),
(458,98,l),
(500,29,o),
(620,-32,o),
(764,-32,cs)
);
}
);
width = 1247;
},
{
layerId = m014;
shapes = (
{
closed = 1;
nodes = (
(1073,-32,o),
(1283,107,o),
(1283,388,cs),
(1283,721,o),
(990,741,o),
(990,806,cs),
(990,855,o),
(1159,925,o),
(1159,1152,cs),
(1159,1385,o),
(980,1530,o),
(670,1530,cs),
(350,1530,o),
(151,1376,o),
(151,1142,cs),
(151,0,l),
(443,0,l),
(443,1102,ls),
(443,1248,o),
(548,1301,o),
(679,1301,cs),
(822,1301,o),
(877,1237,o),
(877,1132,cs),
(877,940,o),
(693,932,o),
(693,791,cs),
(693,609,o),
(996,612,o),
(996,377,cs),
(996,234,o),
(885,216,o),
(815,216,cs),
(724,216,o),
(662,247,o),
(605,323,c),
(522,98,l),
(562,33,o),
(665,-32,o),
(831,-32,cs)
);
}
);
width = 1348;
},
{
layerId = m003;
shapes = (
{
closed = 1;
nodes = (
(1138,-32,o),
(1339,111,o),
(1339,337,cs),
(1339,648,o),
(956,677,o),
(956,780,cs),
(956,867,o),
(1225,932,o),
(1225,1179,cs),
(1225,1389,o),
(1031,1530,o),
(725,1530,cs),
(392,1530,o),
(183,1364,o),
(183,1111,cs),
(183,0,l),
(379,0,l),
(379,1071,ls),
(379,1278,o),
(519,1351,o),
(724,1351,cs),
(899,1351,o),
(1023,1298,o),
(1023,1165,cs),
(1023,967,o),
(749,944,o),
(749,764,cs),
(749,548,o),
(1142,552,o),
(1142,321,cs),
(1142,180,o),
(997,136,o),
(871,136,cs),
(765,136,o),
(675,167,o),
(601,243,c),
(518,98,l),
(568,29,o),
(711,-32,o),
(880,-32,cs)
);
}
);
width = 1427;
},
{
layerId = m004;
shapes = (
{
closed = 1;
nodes = (
(1227,-32,o),
(1463,110,o),
(1463,391,cs),
(1463,724,o),
(1130,741,o),
(1130,805,cs),
(1130,855,o),
(1339,925,o),
(1339,1151,cs),
(1339,1385,o),
(1116,1530,o),
(764,1530,cs),
(374,1530,o),
(151,1352,o),
(151,1082,cs),
(151,0,l),
(443,0,l),
(443,1042,ls),
(443,1232,o),
(576,1301,o),
(777,1301,cs),
(965,1301,o),
(1057,1241,o),
(1057,1125,cs),
(1057,944,o),
(833,932,o),
(833,788,cs),
(833,609,o),
(1176,617,o),
(1176,387,cs),
(1176,239,o),
(1034,216,o),
(936,216,cs),
(823,216,o),
(736,247,o),
(665,323,c),
(582,98,l),
(628,33,o),
(755,-32,o),
(945,-32,cs)
);
}
);
width = 1532;
}
);
metricLeft = F;
metricRight = S;
unicode = 7838;
},
{
color = 5;
glyphname = T;
kernLeft = KO_T;
kernRight = KO_T;
lastChange = "2022-03-23 19:20:27 +0000";
layers = (
{
anchors = (
{
name = bottom;
pos = (679,0);
},
{
name = center;
pos = (658,755);
},
{
name = top;
pos = (658,1510);
}
);
layerId = "FC837317-1536-49E4-8B36-958C77713550";
shapes = (
{
closed = 1;
nodes = (
(755,0,l),
(755,1414,l),
(679,1342,l),
(1233,1342,l),
(1233,1510,l),
(83,1510,l),
(83,1342,l),
(639,1342,l),
(563,1414,l),
(563,0,l)
);
}
);
width = 1316;
},
{
anchors = (
{
name = bottom;
pos = (647,0);
},
{
name = center;
pos = (602,755);
},
{
name = top;
pos = (602,1510);
}
);
layerId = m014;
shapes = (
{
closed = 1;
nodes = (
(747,0,l),
(747,1392,l),
(633,1270,l),
(1177,1270,l),
(1177,1510,l),
(27,1510,l),
(27,1270,l),
(573,1270,l),
(459,1392,l),
(459,0,l)
);
}
);
width = 1204;
},
{
anchors = (
{
name = bottom;
pos = (847,0);
},
{
name = center;
pos = (758,755);
},
{
name = top;
pos = (758,1510);
}
);
layerId = m003;
shapes = (
{
closed = 1;
nodes = (
(855,0,l),
(855,1414,l),
(779,1342,l),
(1433,1342,l),
(1433,1510,l),
(83,1510,l),
(83,1342,l),
(739,1342,l),
(663,1414,l),
(663,0,l)
);
}
);
width = 1516;
},
{
anchors = (
{
name = bottom;
pos = (728,0);
},
{
name = center;
pos = (702,755);
},
{
name = top;
pos = (702,1510);
}
);
layerId = m004;
shapes = (
{
closed = 1;
nodes = (
(847,0,l),
(847,1392,l),
(733,1270,l),
(1377,1270,l),
(1377,1510,l),
(27,1510,l),
(27,1270,l),
(673,1270,l),
(559,1392,l),
(559,0,l)
);
}
);
width = 1404;
}
);
unicode = 84;
userData = {
KernOnName = T;
};
},
{
color = 5;
glyphname = U;
kernLeft = KO_U;
kernRight = KO_U;
lastChange = "2022-03-23 19:20:27 +0000";
layers = (
{
anchors = (
{
name = bottom;
pos = (654,0);
},
{
name = ogonek;
pos = (795,0);
},
{
name = top;
pos = (654,1510);
},
{
name = topright;
pos = (1283,1510);
}
);
layerId = "FC837317-1536-49E4-8B36-958C77713550";
shapes = (
{
closed = 1;
nodes = (
(1004,-20,o),
(1197,181,o),
(1197,544,cs),
(1197,1510,l),
(1005,1510,l),
(1005,530,ls),
(1005,290,o),
(877,154,o),
(653,154,cs),
(429,154,o),
(303,290,o),
(303,530,cs),
(303,1510,l),
(111,1510,l),
(111,544,ls),
(111,180,o),
(303,-20,o),
(653,-20,cs)
);
}
);
width = 1308;
},
{
anchors = (
{
name = bottom;
pos = (697,0);
},
{
name = ogonek;
pos = (864,0);
},
{
name = top;
pos = (697,1510);
},
{
name = topright;
pos = (1283,1510);
}
);
layerId = m014;
shapes = (
{
closed = 1;
nodes = (
(1101,-20,o),
(1283,172,o),
(1283,596,cs),
(1283,1510,l),
(993,1510,l),
(993,588,ls),
(993,343,o),
(899,230,o),
(697,230,cs),
(495,230,o),
(401,343,o),
(401,588,cs),
(401,1510,l),
(111,1510,l),
(111,596,ls),
(111,173,o),
(295,-20,o),
(699,-20,cs)
);
}
);
width = 1394;
},
{
anchors = (
{
name = bottom;
pos = (754,0);
},
{
name = ogonek;
pos = (924,0);
},
{
name = top;
pos = (754,1507);
},
{
name = topright;
pos = (1397,1510);
}
);
layerId = m003;
shapes = (
{
closed = 1;
nodes = (
(1165,-20,o),
(1397,183,o),
(1397,544,cs),
(1397,1510,l),
(1206,1510,l),
(1206,530,ls),
(1206,288,o),
(1045,154,o),
(755,154,cs),
(464,154,o),
(302,289,o),
(302,530,cs),
(302,1510,l),
(111,1510,l),
(111,544,ls),
(111,182,o),
(340,-20,o),
(752,-20,cs)
);
}
);
width = 1508;
},
{
anchors = (
{
name = bottom;
pos = (797,0);
},
{
name = ogonek;
pos = (958,0);
},
{
name = top;
pos = (797,1510);
},
{
name = topright;
pos = (1588,1510);
}
);
layerId = m004;
shapes = (
{
closed = 1;
nodes = (
(1266,-20,o),
(1483,175,o),
(1483,596,cs),
(1483,1510,l),
(1194,1510,l),
(1194,588,ls),
(1194,339,o),
(1073,230,o),
(798,230,cs),
(523,230,o),
(400,340,o),
(400,588,cs),
(400,1510,l),
(111,1510,l),
(111,596,ls),
(111,176,o),
(329,-20,o),
(798,-20,cs)
);
}
);
width = 1594;
}
);
metricLeft = O;
metricRight = O;
unicode = 85;
userData = {
KernOnName = U;
};
},
{
color = 5;
glyphname = V;
kernLeft = KO_V;
kernRight = KO_V;
lastChange = "2022-03-23 19:20:27 +0000";
layers = (
{
anchors = (
{
name = bottom;
pos = (708,0);
},
{
name = top;
pos = (708,1510);
}
);
layerId = "FC837317-1536-49E4-8B36-958C77713550";
shapes = (
{
closed = 1;
nodes = (
(829,-2,l),
(1350,1510,l),
(1134,1510,l),
(709,205,l),
(705,205,l),
(282,1510,l),
(66,1510,l),
(589,-2,l)
);
}
);
width = 1416;
},
{
anchors = (
{
name = bottom;
pos = (731,0);
},
{
name = top;
pos = (731,1510);
}
);
layerId = m014;
shapes = (
{
closed = 1;
nodes = (
(875,-2,l),
(1441,1510,l),
(1127,1510,l),
(733,326,l),
(729,326,l),
(335,1510,l),
(21,1510,l),
(589,-2,l)
);
}
);
width = 1462;
},
{
anchors = (
{
name = bottom;
pos = (808,0);
},
{
name = top;
pos = (808,1510);
}
);
layerId = m003;
shapes = (
{
closed = 1;
nodes = (
(943,-2,l),
(1553,1510,l),
(1337,1510,l),
(809,162,l),
(804,162,l),
(279,1510,l),
(63,1510,l),
(676,-2,l)
);
}
);
width = 1616;
},
{
anchors = (
{
name = bottom;
pos = (831,0);
},
{
name = top;
pos = (831,1510);
}
);
layerId = m004;
shapes = (
{
closed = 1;
nodes = (
(991,-2,l),
(1641,1510,l),
(1323,1510,l),
(833,300,l),
(828,300,l),
(339,1510,l),
(21,1510,l),
(674,-2,l)
);
}
);
width = 1662;
}
);
unicode = 86;
userData = {
KernOnName = V;
};
},
{
color = 5;
glyphname = W;
kernLeft = KO_W;
kernRight = KO_W;
lastChange = "2022-03-23 19:20:27 +0000";
layers = (
{
anchors = (
{
name = bottom;
pos = (1069,0);
},
{
name = top;
pos = (1069,1510);
}
);
layerId = "FC837317-1536-49E4-8B36-958C77713550";
shapes = (
{
closed = 1;
nodes = (
(749,-2,l),
(1068,1158,l),
(1072,1158,l),
(1391,-2,l),
(1633,-2,l),
(2072,1510,l),
(1855,1510,l),
(1518,188,l),
(1514,188,l),
(1178,1438,l),
(960,1438,l),
(622,188,l),
(618,188,l),
(283,1510,l),
(66,1510,l),
(507,-2,l)
);
}
);
width = 2138;
},
{
anchors = (
{
name = bottom;
pos = (1038,0);
},
{
name = top;
pos = (1038,1510);
}
);
layerId = m014;
shapes = (
{
closed = 1;
nodes = (
(755,-2,l),
(1035,1050,l),
(1039,1050,l),
(1321,-2,l),
(1635,-2,l),
(2055,1510,l),
(1733,1510,l),
(1475,352,l),
(1471,352,l),
(1193,1462,l),
(881,1462,l),
(605,352,l),
(601,352,l),
(343,1510,l),
(21,1510,l),
(441,-2,l)
);
}
);
width = 2076;
},
{
anchors = (
{
name = bottom;
pos = (1166,0);
},
{
name = top;
pos = (1166,1510);
}
);
layerId = m003;
shapes = (
{
closed = 1;
nodes = (
(804,-2,l),
(1165,1160,l),
(1170,1160,l),
(1530,-2,l),
(1780,-2,l),
(2269,1510,l),
(2053,1510,l),
(1664,182,l),
(1659,182,l),
(1277,1438,l),
(1056,1438,l),
(670,182,l),
(666,182,l),
(279,1510,l),
(63,1510,l),
(555,-2,l)
);
}
);
width = 2332;
},
{
anchors = (
{
name = bottom;
pos = (1138,0);
},
{
name = top;
pos = (1138,1510);
}
);
layerId = m004;
shapes = (
{
closed = 1;
nodes = (
(814,-2,l),
(1135,1050,l),
(1140,1050,l),
(1462,-2,l),
(1786,-2,l),
(2255,1510,l),
(1933,1510,l),
(1624,352,l),
(1619,352,l),
(1295,1462,l),
(980,1462,l),
(656,352,l),
(652,352,l),
(343,1510,l),
(21,1510,l),
(491,-2,l)
);
}
);
width = 2276;
}
);
metricLeft = V;
metricRight = V;
unicode = 87;
userData = {
KernOnName = W;
};
},
{
color = 5;
glyphname = X;
kernLeft = KO_X;
kernRight = KO_X;
lastChange = "2022-03-23 19:20:27 +0000";
layers = (
{
anchors = (
{
name = bottom;
pos = (763,0);
},
{
name = top;
pos = (763,1510);
}
);
layerId = "FC837317-1536-49E4-8B36-958C77713550";
shapes = (
{
closed = 1;
nodes = (
(352,0,l),
(791,699,l),
(735,699,l),
(1174,0,l),
(1406,0,l),
(839,855,l),
(839,709,l),
(1399,1510,l),
(1166,1510,l),
(747,865,l),
(779,865,l),
(360,1510,l),
(127,1510,l),
(687,709,l),
(687,855,l),
(120,0,l)
);
}
);
width = 1526;
},
{
anchors = (
{
name = bottom;
pos = (811,0);
},
{
name = top;
pos = (811,1510);
}
);
layerId = m014;
shapes = (
{
closed = 1;
nodes = (
(452,0,l),
(886,706,l),
(735,706,l),
(1165,0,l),
(1511,0,l),
(943,862,l),
(943,716,l),
(1507,1510,l),
(1168,1510,l),
(748,862,l),
(879,862,l),
(459,1510,l),
(115,1510,l),
(679,716,l),
(679,862,l),
(111,0,l)
);
}
);
width = 1622;
},
{
anchors = (
{
name = bottom;
pos = (863,0);
},
{
name = top;
pos = (863,1510);
}
);
layerId = m003;
shapes = (
{
closed = 1;
nodes = (
(369,0,l),
(889,706,l),
(837,706,l),
(1359,0,l),
(1603,0,l),
(932,862,l),
(932,716,l),
(1588,1510,l),
(1344,1510,l),
(851,872,l),
(873,872,l),
(380,1510,l),
(138,1510,l),
(794,716,l),
(794,862,l),
(123,0,l)
);
}
);
width = 1726;
},
{
anchors = (
{
name = bottom;
pos = (911,0);
},
{
name = top;
pos = (911,1510);
}
);
layerId = m004;
shapes = (
{
closed = 1;
nodes = (
(469,0,l),
(986,706,l),
(835,706,l),
(1350,0,l),
(1711,0,l),
(1036,862,l),
(1036,716,l),
(1706,1510,l),
(1350,1510,l),
(850,872,l),
(975,872,l),
(475,1510,l),
(116,1510,l),
(786,716,l),
(786,862,l),
(111,0,l)
);
}
);
width = 1822;
}
);
unicode = 88;
userData = {
KernOnName = X;
};
},
{
color = 5;
glyphname = Y;
kernLeft = KO_Y;
kernRight = KO_Y;
lastChange = "2022-03-23 19:20:27 +0000";
layers = (
{
anchors = (
{
name = bottom;
pos = (719,0);
},
{
name = top;
pos = (719,1510);
},
{
name = topleft;
pos = (107,1508);
}
);
guides = (
{
pos = (721,822);
}
);
layerId = "FC837317-1536-49E4-8B36-958C77713550";
shapes = (
{
closed = 1;
nodes = (
(817,0,l),
(817,593,l),
(1331,1508,l),
(1111,1508,l),
(745,822,ls),
(725,785,o),
(721,772,o),
(721,761,c),
(717,761,l),
(717,773,o),
(713,786,o),
(694,822,cs),
(327,1508,l),
(107,1508,l),
(625,593,l),
(625,0,l)
);
}
);
width = 1438;
},
{
anchors = (
{
name = bottom;
pos = (713,0);
},
{
name = top;
pos = (713,1510);
},
{
name = topleft;
pos = (25,1510);
}
);
layerId = m014;
shapes = (
{
closed = 1;
nodes = (
(859,0,l),
(859,584,l),
(1409,1508,l),
(1086,1508,l),
(755,907,ls),
(733,867,o),
(716,845,o),
(716,805,c),
(710,805,l),
(710,844,o),
(694,866,o),
(671,907,cs),
(340,1508,l),
(17,1508,l),
(569,584,l),
(569,0,l)
);
}
);
width = 1426;
},
{
anchors = (
{
name = bottom;
pos = (819,0);
},
{
name = top;
pos = (819,1510);
},
{
name = topleft;
pos = (-34,1510);
}
);
guides = (
{
pos = (824,871);
}
);
layerId = m003;
shapes = (
{
closed = 1;
nodes = (
(917,0,l),
(917,593,l),
(1531,1508,l),
(1308,1508,l),
(883,871,ls),
(842,809,o),
(821,778,o),
(821,754,c),
(817,754,l),
(817,778,o),
(797,809,o),
(756,871,cs),
(330,1508,l),
(107,1508,l),
(726,593,l),
(726,0,l)
);
}
);
width = 1638;
},
{
anchors = (
{
name = bottom;
pos = (813,0);
},
{
name = top;
pos = (813,1510);
},
{
name = topleft;
pos = (-77,1510);
}
);
background = {
shapes = (
{
closed = 1;
nodes = (
(959,0,l),
(959,584,l),
(1609,1508,l),
(1283,1508,l),
(947,1025,l),
(815,834,l),
(811,834,l),
(676,1029,l),
(343,1508,l),
(17,1508,l),
(670,584,l),
(670,0,l)
);
}
);
};
layerId = m004;
shapes = (
{
closed = 1;
nodes = (
(959,0,l),
(959,574,l),
(1609,1508,l),
(1273,1508,l),
(864,890,ls),
(826,832,o),
(817,803,o),
(814,769,c),
(812,769,l),
(809,802,o),
(801,832,o),
(762,890,cs),
(353,1508,l),
(17,1508,l),
(670,574,l),
(670,0,l)
);
}
);
width = 1626;
}
);
unicode = 89;
userData = {
KernOnName = Y;
};
},
{
color = 5;
glyphname = Z;
kernLeft = KO_Z;
kernRight = KO_Z;
lastChange = "2022-03-23 19:20:27 +0000";
layers = (
{
anchors = (
{
name = bottom;
pos = (632,0);
},
{
name = center;
pos = (632,755);
},
{
name = top;
pos = (632,1510);
}
);
layerId = "FC837317-1536-49E4-8B36-958C77713550";
shapes = (
{
closed = 1;
nodes = (
(1153,0,l),
(1153,168,l),
(263,168,l),
(277,60,l),
(1153,1370,l),
(1153,1510,l),
(111,1510,l),
(111,1342,l),
(1003,1342,l),
(983,1450,l),
(111,148,l),
(111,0,l)
);
}
);
width = 1264;
},
{
anchors = (
{
name = bottom;
pos = (632,0);
},
{
name = center;
pos = (632,755);
},
{
name = top;
pos = (632,1510);
}
);
layerId = m014;
shapes = (
{
closed = 1;
nodes = (
(1153,0,l),
(1153,240,l),
(263,240,l),
(381,132,l),
(1153,1298,l),
(1153,1510,l),
(111,1510,l),
(111,1270,l),
(1003,1270,l),
(879,1378,l),
(111,220,l),
(111,0,l)
);
}
);
width = 1264;
},
{
anchors = (
{
name = bottom;
pos = (732,0);
},
{
name = center;
pos = (732,755);
},
{
name = top;
pos = (732,1510);
}
);
layerId = m003;
shapes = (
{
closed = 1;
nodes = (
(1353,0,l),
(1353,168,l),
(292,168,l),
(269,60,l),
(1353,1370,l),
(1353,1510,l),
(111,1510,l),
(111,1342,l),
(1174,1342,l),
(1190,1450,l),
(111,148,l),
(111,0,l)
);
}
);
width = 1464;
},
{
anchors = (
{
name = bottom;
pos = (732,0);
},
{
name = center;
pos = (732,755);
},
{
name = top;
pos = (732,1510);
}
);
layerId = m004;
shapes = (
{
closed = 1;
nodes = (
(1353,0,l),
(1353,240,l),
(292,240,l),
(378,132,l),
(1353,1298,l),
(1353,1510,l),
(111,1510,l),
(111,1270,l),
(1174,1270,l),
(1081,1378,l),
(111,220,l),
(111,0,l)
);
}
);
width = 1464;
}
);
metricLeft = O;
metricRight = O;
unicode = 90;
userData = {
KernOnName = Z;
};
},
{
color = 7;
glyphname = I.ss02;
kernLeft = KO_H;
kernRight = KO_H;
lastChange = "2022-03-16 19:32:57 +0000";
layers = (
{
anchors = (
{
name = bottom;
pos = (279,0);
},
{
name = ogonek;
pos = (375,0);
},
{
name = top;
pos = (279,1510);
},
{
name = topleft;
pos = (25,1510);
}
);
layerId = "FC837317-1536-49E4-8B36-958C77713550";
shapes = (
{
closed = 1;
nodes = (
(375,0,l),
(375,1510,l),
(183,1510,l),
(183,0,l)
);
}
);
width = 558;
},
{
anchors = (
{
name = bottom;
pos = (297,0);
},
{
name = ogonek;
pos = (443,0);
},
{
name = top;
pos = (297,1510);
},
{
name = topleft;
pos = (25,1510);
}
);
layerId = m014;
shapes = (
{
closed = 1;
nodes = (
(443,0,l),
(443,1510,l),
(151,1510,l),
(151,0,l)
);
}
);
width = 594;
},
{
anchors = (
{
name = bottom;
pos = (300,0);
},
{
name = ogonek;
pos = (443,0);
},
{
name = top;
pos = (300,1510);
},
{
name = topleft;
pos = (20,1510);
}
);
layerId = m004;
shapes = (
{
closed = 1;
nodes = (
(443,0,l),
(443,1510,l),
(151,1510,l),
(151,0,l)
);
}
);
width = 594;
},
{
anchors = (
{
name = bottom;
pos = (300,0);
},
{
name = ogonek;
pos = (375,0);
},
{
name = top;
pos = (300,1510);
},
{
name = topleft;
pos = (20,1510);
}
);
layerId = m003;
shapes = (
{
closed = 1;
nodes = (
(375,0,l),
(375,1510,l),
(183,1510,l),
(183,0,l)
);
}
);
width = 558;
}
);
metricLeft = H;
metricRight = H;
},
{
color = 5;
glyphname = IJ.ss02;
kernLeft = KO_U;
kernRight = KO_H;
lastChange = "2022-03-16 19:38:01 +0000";
layers = (
{
layerId = "FC837317-1536-49E4-8B36-958C77713550";
shapes = (
{
closed = 1;
nodes = (
(303,520,l),
(303,1510,l),
(111,1510,l),
(111,520,l)
);
},
{
pos = (-68,0);
ref = J;
}
);
width = 1078;
},
{
layerId = m014;
shapes = (
{
closed = 1;
nodes = (
(403,585,l),
(403,1510,l),
(111,1510,l),
(111,585,l)
);
},
{
ref = J;
}
);
width = 1102;
},
{
layerId = m003;
shapes = (
{
closed = 1;
nodes = (
(303,520,l),
(303,1510,l),
(111,1510,l),
(111,520,l)
);
},
{
pos = (-68,0);
ref = J;
}
);
width = 1278;
},
{
layerId = m004;
shapes = (
{
closed = 1;
nodes = (
(403,585,l),
(403,1510,l),
(111,1510,l),
(111,585,l)
);
},
{
ref = J;
}
);
width = 1302;
}
);
metricLeft = I;
metricRight = H;
},
{
color = 5;
glyphname = a;
kernLeft = KO_a;
kernRight = KO_a;
lastChange = "2022-03-23 19:20:27 +0000";
layers = (
{
anchors = (
{
name = bottom;
pos = (445,-32);
},
{
name = ogonek;
pos = (1126,4);
},
{
name = top;
pos = (565,1152);
}
);
background = {
shapes = (
{
pos = (-113,0);
ref = n;
}
);
};
layerId = "FC837317-1536-49E4-8B36-958C77713550";
shapes = (
{
closed = 1;
nodes = (
(602,-32,o),
(745,56,o),
(791,180,c),
(796,180,l),
(807,58,o),
(887,-22,o),
(996,-22,cs),
(1038,-22,o),
(1092,-11,o),
(1126,4,c),
(1126,162,l),
(1119,155,o),
(1075,146,o),
(1046,146,cs),
(990,146,o),
(964,178,o),
(964,244,cs),
(964,788,ls),
(964,1029,o),
(830,1152,o),
(565,1152,cs),
(366,1152,o),
(210,1082,o),
(104,946,c),
(219,815,l),
(304,935,o),
(408,989,o),
(547,989,cs),
(710,989,o),
(772,915,o),
(772,723,cs),
(772,688,l),
(334,681,o),
(84,541,o),
(84,303,cs),
(84,114,o),
(242,-32,o),
(445,-32,cs)
);
},
{
closed = 1;
nodes = (
(361,138,o),
(282,206,o),
(282,310,cs),
(282,460,o),
(448,542,o),
(772,550,c),
(772,333,l),
(718,211,o),
(611,138,o),
(484,138,cs)
);
}
);
width = 1180;
},
{
anchors = (
{
name = bottom;
pos = (449,-32);
},
{
name = ogonek;
pos = (1205,10);
},
{
name = top;
pos = (627,1152);
}
);
background = {
shapes = (
{
pos = (-140,0);
ref = n;
},
{
closed = 1;
nodes = (
(580,-32,o),
(741,56,o),
(761,202,c),
(765,202,l),
(790,44,o),
(867,-22,o),
(1002,-22,cs),
(1060,-22,o),
(1124,-10,o),
(1170,10,c),
(1170,244,l),
(1146,233,o),
(1125,228,o),
(1100,228,cs),
(1042,228,o),
(1024,256,o),
(1024,346,cs),
(1024,756,ls),
(1024,1019,o),
(889,1152,o),
(625,1152,cs),
(428,1152,o),
(246,1078,o),
(123,948,c),
(288,737,l),
(356,850,o),
(451,909,o),
(566,909,cs),
(682,909,o),
(736,856,o),
(736,744,cs),
(736,692,l),
(338,679,o),
(119,539,o),
(119,299,cs),
(119,113,o),
(260,-32,o),
(441,-32,cs)
);
},
{
closed = 1;
nodes = (
(458,208,o),
(413,252,o),
(413,333,cs),
(413,456,o),
(506,510,o),
(736,518,c),
(736,352,l),
(696,259,o),
(627,208,o),
(539,208,cs)
);
}
);
};
layerId = m014;
shapes = (
{
closed = 1;
nodes = (
(647,-32,o),
(776,77,o),
(796,222,c),
(804,222,l),
(825,62,o),
(907,-22,o),
(1039,-22,cs),
(1093,-22,o),
(1163,-8,o),
(1205,10,c),
(1205,244,l),
(1195,230,o),
(1159,218,o),
(1127,218,cs),
(1079,218,o),
(1059,244,o),
(1059,306,cs),
(1059,776,ls),
(1059,1025,o),
(913,1152,o),
(627,1152,cs),
(422,1152,o),
(252,1087,o),
(114,954,c),
(272,764,l),
(336,854,o),
(455,915,o),
(582,915,cs),
(707,915,o),
(771,856,o),
(771,734,cs),
(771,702,l),
(324,680,o),
(84,542,o),
(84,307,cs),
(84,115,o),
(243,-32,o),
(449,-32,cs)
);
},
{
closed = 1;
nodes = (
(443,208,o),
(378,261,o),
(378,344,cs),
(378,455,o),
(496,510,o),
(771,528,c),
(771,360,l),
(750,274,o),
(650,208,o),
(541,208,cs)
);
}
);
width = 1247;
},
{
anchors = (
{
name = bottom;
pos = (524,-32);
},
{
name = ogonek;
pos = (1326,4);
},
{
name = top;
pos = (637,1120);
}
);
background = {
shapes = (
{
pos = (-113,0);
ref = n;
}
);
};
layerId = m003;
shapes = (
{
closed = 1;
nodes = (
(713,-32,o),
(884,52,o),
(954,180,c),
(960,180,l),
(970,58,o),
(1059,-22,o),
(1184,-22,cs),
(1228,-22,o),
(1286,-12,o),
(1326,4,c),
(1326,155,l),
(1315,147,o),
(1256,136,o),
(1223,136,cs),
(1156,136,o),
(1120,180,o),
(1120,264,cs),
(1120,765,ls),
(1120,1014,o),
(948,1152,o),
(637,1152,cs),
(414,1152,o),
(244,1081,o),
(134,945,c),
(249,824,l),
(335,938,o),
(455,989,o),
(619,989,cs),
(834,989,o),
(928,901,o),
(928,723,cs),
(928,686,l),
(402,689,o),
(84,544,o),
(84,301,cs),
(84,113,o),
(276,-32,o),
(524,-32,cs)
);
},
{
closed = 1;
nodes = (
(388,138,o),
(283,209,o),
(283,310,cs),
(283,462,o),
(519,549,o),
(928,547,c),
(928,333,l),
(840,211,o),
(693,138,o),
(539,138,cs)
);
}
);
width = 1380;
},
{
anchors = (
{
name = bottom;
pos = (528,-32);
},
{
name = ogonek;
pos = (1405,10);
},
{
name = top;
pos = (728,1152);
}
);
background = {
shapes = (
{
pos = (-140,0);
ref = n;
},
{
closed = 1;
nodes = (
(580,-32,o),
(741,56,o),
(761,202,c),
(765,202,l),
(790,44,o),
(867,-22,o),
(1002,-22,cs),
(1060,-22,o),
(1124,-10,o),
(1170,10,c),
(1170,244,l),
(1146,233,o),
(1125,228,o),
(1100,228,cs),
(1042,228,o),
(1024,256,o),
(1024,346,cs),
(1024,756,ls),
(1024,1019,o),
(889,1152,o),
(625,1152,cs),
(428,1152,o),
(246,1078,o),
(123,948,c),
(288,737,l),
(356,850,o),
(451,909,o),
(566,909,cs),
(682,909,o),
(736,856,o),
(736,744,cs),
(736,692,l),
(338,679,o),
(119,539,o),
(119,299,cs),
(119,113,o),
(260,-32,o),
(441,-32,cs)
);
},
{
closed = 1;
nodes = (
(458,208,o),
(413,252,o),
(413,333,cs),
(413,456,o),
(506,510,o),
(736,518,c),
(736,352,l),
(696,259,o),
(627,208,o),
(539,208,cs)
);
}
);
};
layerId = m004;
shapes = (
{
closed = 1;
nodes = (
(738,-32,o),
(913,72,o),
(956,222,c),
(961,222,l),
(980,64,o),
(1072,-22,o),
(1225,-22,cs),
(1285,-22,o),
(1360,-9,o),
(1405,10,c),
(1405,244,l),
(1388,230,o),
(1339,218,o),
(1301,218,cs),
(1243,218,o),
(1215,247,o),
(1215,306,cs),
(1215,776,ls),
(1215,1013,o),
(1033,1152,o),
(728,1152,cs),
(491,1152,o),
(240,1069,o),
(115,951,c),
(293,782,l),
(383,861,o),
(544,915,o),
(701,915,cs),
(854,915,o),
(927,863,o),
(927,754,cs),
(927,702,l),
(382,680,o),
(84,540,o),
(84,305,cs),
(84,116,o),
(278,-32,o),
(528,-32,cs)
);
},
{
closed = 1;
nodes = (
(465,208,o),
(379,258,o),
(379,340,cs),
(379,453,o),
(545,510,o),
(927,528,c),
(927,360,l),
(867,262,o),
(753,208,o),
(606,208,cs)
);
}
);
width = 1459;
}
);
unicode = 97;
userData = {
KernOnName = a;
};
},
{
color = 5;
glyphname = ae;
kernLeft = KO_a;
kernRight = KO_e;
lastChange = "2022-03-21 14:56:57 +0000";
layers = (
{
layerId = "FC837317-1536-49E4-8B36-958C77713550";
shapes = (
{
closed = 1;
nodes = (
(604,-32,o),
(767,67,o),
(832,207,c),
(912,59,o),
(1060,-32,o),
(1246,-32,cs),
(1420,-32,o),
(1569,48,o),
(1644,178,c),
(1514,277,l),
(1457,194,o),
(1351,136,o),
(1239,136,cs),
(1073,136,o),
(964,263,o),
(940,494,c),
(1635,494,l),
(1639,516,o),
(1643,582,o),
(1643,635,cs),
(1643,960,o),
(1494,1152,o),
(1239,1152,cs),
(1091,1152,o),
(935,1088,o),
(865,959,c),
(830,1076,o),
(714,1152,o),
(528,1152,cs),
(349,1152,o),
(203,1082,o),
(104,946,c),
(219,815,l),
(296,935,o),
(390,989,o),
(524,989,cs),
(680,989,o),
(742,915,o),
(742,723,cs),
(742,688,l),
(323,681,o),
(84,541,o),
(84,303,cs),
(84,114,o),
(234,-32,o),
(437,-32,cs)
);
},
{
closed = 1;
nodes = (
(353,138,o),
(282,206,o),
(282,308,cs),
(282,460,o),
(438,542,o),
(742,550,c),
(742,314,l),
(701,226,o),
(587,138,o),
(462,138,cs)
);
},
{
closed = 1;
nodes = (
(944,870,o),
(1045,984,o),
(1214,984,cs),
(1373,984,o),
(1454,882,o),
(1454,708,cs),
(1454,689,o),
(1453,670,o),
(1451,650,c),
(934,650,l)
);
}
);
width = 1737;
},
{
layerId = m014;
shapes = (
{
closed = 1;
nodes = (
(660,-32,o),
(830,62,o),
(891,212,c),
(935,62,o),
(1089,-32,o),
(1294,-32,cs),
(1444,-32,o),
(1599,18,o),
(1697,209,c),
(1486,333,l),
(1480,311,o),
(1449,202,o),
(1279,202,cs),
(1111,202,o),
(1038,308,o),
(1031,466,c),
(1685,466,l),
(1691,498,o),
(1702,566,o),
(1702,653,cs),
(1702,975,o),
(1550,1152,o),
(1289,1152,cs),
(1124,1152,o),
(989,1081,o),
(924,985,c),
(891,1065,o),
(761,1152,o),
(574,1152,cs),
(413,1152,o),
(256,1087,o),
(114,954,c),
(272,764,l),
(333,854,o),
(446,915,o),
(575,915,cs),
(702,915,o),
(771,856,o),
(771,734,cs),
(771,702,l),
(325,680,o),
(84,542,o),
(84,304,cs),
(84,115,o),
(236,-32,o),
(472,-32,cs)
);
},
{
closed = 1;
nodes = (
(437,208,o),
(378,261,o),
(378,341,cs),
(378,455,o),
(496,510,o),
(771,528,c),
(771,360,l),
(749,274,o),
(642,208,o),
(534,208,cs)
);
},
{
closed = 1;
nodes = (
(1035,816,o),
(1088,918,o),
(1241,918,cs),
(1359,918,o),
(1434,857,o),
(1434,719,cs),
(1434,696,o),
(1432,677,o),
(1429,656,c),
(1031,656,l)
);
}
);
width = 1788;
},
{
layerId = m003;
shapes = (
{
closed = 1;
nodes = (
(763,-32,o),
(953,67,o),
(1032,202,c),
(1123,51,o),
(1285,-32,o),
(1489,-32,cs),
(1691,-32,o),
(1874,49,o),
(1964,178,c),
(1834,277,l),
(1759,193,o),
(1617,134,o),
(1481,134,cs),
(1266,134,o),
(1116,283,o),
(1116,494,c),
(1955,494,l),
(1959,519,o),
(1963,585,o),
(1963,633,cs),
(1963,957,o),
(1782,1152,o),
(1467,1152,cs),
(1271,1152,o),
(1112,1076,o),
(1055,949,c),
(1011,1082,o),
(858,1152,o),
(623,1152,cs),
(392,1152,o),
(224,1084,o),
(104,946,c),
(219,815,l),
(319,940,o),
(429,994,o),
(613,994,cs),
(842,994,o),
(942,910,o),
(942,723,cs),
(942,688,l),
(392,681,o),
(84,538,o),
(84,302,cs),
(84,107,o),
(296,-32,o),
(549,-32,cs)
);
},
{
closed = 1;
nodes = (
(412,138,o),
(282,203,o),
(282,313,cs),
(282,457,o),
(506,542,o),
(942,550,c),
(942,324,l),
(880,219,o),
(734,138,o),
(564,138,cs)
);
},
{
closed = 1;
nodes = (
(1123,867,o),
(1239,989,o),
(1454,989,cs),
(1660,989,o),
(1778,883,o),
(1778,705,cs),
(1778,685,o),
(1777,660,o),
(1775,637,c),
(1110,637,l)
);
}
);
width = 2077;
},
{
layerId = m004;
shapes = (
{
closed = 1;
nodes = (
(758,-32,o),
(969,65,o),
(1041,212,c),
(1094,62,o),
(1275,-32,o),
(1515,-32,cs),
(1737,-32,o),
(1899,49,o),
(1997,209,c),
(1786,333,l),
(1766,261,o),
(1639,202,o),
(1489,202,cs),
(1302,202,o),
(1191,293,o),
(1181,466,c),
(1985,466,l),
(1996,523,o),
(2002,591,o),
(2002,650,cs),
(2002,972,o),
(1825,1152,o),
(1512,1152,cs),
(1324,1152,o),
(1158,1087,o),
(1074,985,c),
(1025,1080,o),
(836,1152,o),
(637,1152,cs),
(445,1152,o),
(266,1085,o),
(104,954,c),
(262,764,l),
(341,858,o),
(482,915,o),
(648,915,cs),
(823,915,o),
(921,852,o),
(921,734,cs),
(921,702,l),
(375,680,o),
(84,542,o),
(84,299,cs),
(84,108,o),
(264,-32,o),
(534,-32,cs)
);
},
{
closed = 1;
nodes = (
(451,208,o),
(378,263,o),
(378,341,cs),
(378,457,o),
(540,510,o),
(921,528,c),
(921,360,l),
(892,274,o),
(736,208,o),
(587,208,cs)
);
},
{
closed = 1;
nodes = (
(1188,835,o),
(1284,918,o),
(1490,918,cs),
(1654,918,o),
(1744,848,o),
(1744,713,cs),
(1744,699,o),
(1743,681,o),
(1739,656,c),
(1181,656,l)
);
}
);
width = 2088;
}
);
metricLeft = a;
metricRight = e;
unicode = 230;
},
{
color = 5;
glyphname = b;
kernLeft = KO_h;
kernRight = KO_p;
lastChange = "2022-03-11 21:41:54 +0000";
layers = (
{
anchors = (
{
name = bottom;
pos = (651,0);
},
{
name = center;
pos = (651,560);
},
{
name = top;
pos = (651,1120);
}
);
background = {
anchors = (
{
name = bottom;
pos = (661,0);
},
{
name = center;
pos = (661,560);
},
{
name = ogonek;
pos = (1193,20);
},
{
name = top;
pos = (661,1120);
},
{
name = topright;
pos = (1287,1120);
}
);
shapes = (
{
closed = 1;
nodes = (
(993,-32,o),
(1205,200,o),
(1205,558,cs),
(1205,916,o),
(993,1152,o),
(681,1152,cs),
(379,1152,o),
(157,916,o),
(157,558,cs),
(157,200,o),
(379,-32,o),
(681,-32,cs)
);
},
{
closed = 1;
nodes = (
(487,136,o),
(355,286,o),
(355,558,cs),
(355,830,o),
(487,984,o),
(681,984,cs),
(877,984,o),
(1007,830,o),
(1007,558,cs),
(1007,286,o),
(877,136,o),
(681,136,cs)
);
}
);
};
layerId = "FC837317-1536-49E4-8B36-958C77713550";
shapes = (
{
closed = 1;
nodes = (
(1018,-30,o),
(1209,203,o),
(1209,564,cs),
(1209,919,o),
(1024,1152,o),
(733,1152,cs),
(564,1152,o),
(432,1074,o),
(367,934,c),
(361,934,l),
(366,970,o),
(367,1019,o),
(367,1550,c),
(175,1550,l),
(175,0,l),
(348,0,l),
(360,121,o),
(362,145,o),
(362,168,c),
(368,168,l),
(438,38,o),
(559,-30,o),
(720,-30,cs)
);
},
{
closed = 1;
nodes = (
(492,138,o),
(357,292,o),
(357,560,cs),
(357,564,ls),
(357,826,o),
(496,984,o),
(710,984,cs),
(910,984,o),
(1011,846,o),
(1011,557,cs),
(1011,276,o),
(915,138,o),
(709,138,cs)
);
}
);
width = 1306;
},
{
anchors = (
{
name = bottom;
pos = (689,0);
},
{
name = center;
pos = (689,560);
},
{
name = top;
pos = (689,1120);
}
);
layerId = m014;
shapes = (
{
closed = 1;
nodes = (
(1086,-32,o),
(1280,201,o),
(1280,558,cs),
(1280,916,o),
(1084,1152,o),
(787,1152,cs),
(608,1152,o),
(479,1067,o),
(443,926,c),
(435,926,l),
(449,1011,o),
(449,1019,o),
(449,1550,c),
(161,1550,l),
(161,0,l),
(420,0,l),
(432,100,o),
(435,145,o),
(435,194,c),
(443,194,l),
(476,54,o),
(606,-32,o),
(787,-32,cs)
);
},
{
closed = 1;
nodes = (
(570,208,o),
(449,342,o),
(449,514,cs),
(449,606,ls),
(449,778,o),
(570,912,o),
(725,912,cs),
(883,912,o),
(986,773,o),
(986,560,cs),
(986,347,o),
(883,208,o),
(725,208,cs)
);
}
);
width = 1365;
},
{
anchors = (
{
name = bottom;
pos = (737,0);
},
{
name = center;
pos = (737,560);
},
{
name = top;
pos = (737,1120);
}
);
background = {
anchors = (
{
name = bottom;
pos = (661,0);
},
{
name = center;
pos = (661,560);
},
{
name = ogonek;
pos = (1193,20);
},
{
name = top;
pos = (661,1120);
},
{
name = topright;
pos = (1287,1120);
}
);
shapes = (
{
closed = 1;
nodes = (
(993,-32,o),
(1205,200,o),
(1205,558,cs),
(1205,916,o),
(993,1152,o),
(681,1152,cs),
(379,1152,o),
(157,916,o),
(157,558,cs),
(157,200,o),
(379,-32,o),
(681,-32,cs)
);
},
{
closed = 1;
nodes = (
(487,136,o),
(355,286,o),
(355,558,cs),
(355,830,o),
(487,984,o),
(681,984,cs),
(877,984,o),
(1007,830,o),
(1007,558,cs),
(1007,286,o),
(877,136,o),
(681,136,cs)
);
}
);
};
layerId = m003;
shapes = (
{
closed = 1;
nodes = (
(1175,-30,o),
(1409,203,o),
(1409,565,cs),
(1409,918,o),
(1186,1152,o),
(832,1152,cs),
(628,1152,o),
(463,1074,o),
(370,934,c),
(365,934,l),
(365,970,o),
(367,1019,o),
(367,1550,c),
(175,1550,l),
(175,0,l),
(348,0,l),
(363,121,o),
(365,140,o),
(365,168,c),
(370,168,l),
(472,38,o),
(615,-30,o),
(811,-30,cs)
);
},
{
closed = 1;
nodes = (
(522,138,o),
(350,292,o),
(350,560,cs),
(350,564,ls),
(350,826,o),
(529,984,o),
(816,984,cs),
(1084,984,o),
(1210,847,o),
(1210,557,cs),
(1210,275,o),
(1092,138,o),
(815,138,cs)
);
}
);
width = 1506;
},
{
anchors = (
{
name = bottom;
pos = (775,0);
},
{
name = center;
pos = (775,560);
},
{
name = top;
pos = (775,1120);
}
);
layerId = m004;
shapes = (
{
closed = 1;
nodes = (
(1241,-32,o),
(1480,200,o),
(1480,560,cs),
(1480,917,o),
(1245,1152,o),
(887,1152,cs),
(671,1152,o),
(510,1067,o),
(446,926,c),
(441,926,l),
(449,1017,o),
(449,1097,o),
(449,1550,c),
(161,1550,l),
(161,0,l),
(420,0,l),
(437,100,o),
(441,143,o),
(441,194,c),
(446,194,l),
(513,48,o),
(667,-32,o),
(879,-32,cs)
);
},
{
closed = 1;
nodes = (
(605,208,o),
(442,338,o),
(442,514,cs),
(442,606,ls),
(442,782,o),
(608,912,o),
(830,912,cs),
(1064,912,o),
(1185,768,o),
(1185,559,cs),
(1185,352,o),
(1066,208,o),
(830,208,cs)
);
}
);
width = 1565;
}
);
metricLeft = h;
metricRight = p;
unicode = 98;
},
{
color = 5;
glyphname = c;
kernLeft = KO_c;
kernRight = KO_c;
lastChange = "2022-03-23 19:27:15 +0000";
layers = (
{
anchors = (
{
name = bottom;
pos = (557,0);
},
{
name = top;
pos = (621,1152);
}
);
background = {
shapes = (
{
closed = 1;
nodes = (
(911,-32,o),
(1123,200,o),
(1123,558,cs),
(1123,916,o),
(911,1152,o),
(601,1152,cs),
(299,1152,o),
(77,916,o),
(77,558,cs),
(77,200,o),
(299,-32,o),
(601,-32,cs)
);
},
{
closed = 1;
nodes = (
(407,136,o),
(275,286,o),
(275,558,cs),
(275,830,o),
(407,984,o),
(599,984,cs),
(795,984,o),
(925,830,o),
(925,558,cs),
(925,286,o),
(795,136,o),
(599,136,cs)
);
},
{
closed = 1;
nodes = (
(822,-32,o),
(975,61,o),
(1044,226,c),
(1065,168,l),
(850,322,l),
(913,322,l),
(850,197,o),
(751,136,o),
(614,136,cs),
(405,136,o),
(290,283,o),
(290,552,cs),
(290,822,o),
(410,984,o),
(610,984,cs),
(756,984,o),
(867,895,o),
(867,776,c),
(801,786,l),
(1068,893,l),
(1036,843,l),
(989,1040,o),
(838,1152,o),
(621,1152,cs),
(303,1152,o),
(92,916,o),
(92,561,cs),
(92,204,o),
(302,-32,o),
(620,-32,cs)
);
}
);
};
layerId = "FC837317-1536-49E4-8B36-958C77713550";
shapes = (
{
closed = 1;
nodes = (
(808,-32,o),
(954,49,o),
(1029,194,c),
(892,292,l),
(834,185,o),
(732,136,o),
(613,136,cs),
(405,136,o),
(290,284,o),
(290,550,cs),
(290,822,o),
(410,984,o),
(610,984,cs),
(741,984,o),
(844,912,o),
(864,811,c),
(1027,876,l),
(971,1053,o),
(825,1152,o),
(621,1152,cs),
(303,1152,o),
(92,916,o),
(92,561,cs),
(92,204,o),
(302,-32,o),
(620,-32,cs)
);
}
);
width = 1103;
},
{
anchors = (
{
name = bottom;
pos = (590,0);
},
{
name = top;
pos = (619,1120);
}
);
background = {
shapes = (
{
closed = 1;
nodes = (
(824,-32,o),
(971,47,o),
(1060,168,c),
(1073,113,l),
(839,378,l),
(920,413,l),
(879,355,o),
(818,212,o),
(638,212,cs),
(504,212,o),
(374,292,o),
(374,564,cs),
(374,822,o),
(491,907,o),
(628,907,cs),
(816,907,o),
(844,766,o),
(853,738,c),
(802,740,l),
(1096,949,l),
(1073,895,l),
(992,1068,o),
(852,1152,o),
(639,1152,cs),
(303,1152,o),
(85,941,o),
(85,550,cs),
(85,157,o),
(305,-32,o),
(622,-32,cs)
);
}
);
};
layerId = m014;
shapes = (
{
closed = 1;
nodes = (
(801,-32,o),
(947,30,o),
(1043,147,c),
(869,344,l),
(787,242,o),
(730,212,o),
(643,212,cs),
(467,212,o),
(374,340,o),
(374,564,cs),
(374,786,o),
(465,907,o),
(624,907,cs),
(728,907,o),
(803,856,o),
(842,768,c),
(1059,923,l),
(976,1078,o),
(839,1152,o),
(639,1152,cs),
(291,1152,o),
(85,928,o),
(85,550,cs),
(85,182,o),
(282,-32,o),
(619,-32,cs)
);
}
);
width = 1100;
},
{
anchors = (
{
name = bottom;
pos = (711,0);
},
{
name = top;
pos = (727,1120);
}
);
background = {
shapes = (
{
closed = 1;
nodes = (
(911,-32,o),
(1123,200,o),
(1123,558,cs),
(1123,916,o),
(911,1152,o),
(601,1152,cs),
(299,1152,o),
(77,916,o),
(77,558,cs),
(77,200,o),
(299,-32,o),
(601,-32,cs)
);
},
{
closed = 1;
nodes = (
(407,136,o),
(275,286,o),
(275,558,cs),
(275,830,o),
(407,984,o),
(599,984,cs),
(795,984,o),
(925,830,o),
(925,558,cs),
(925,286,o),
(795,136,o),
(599,136,cs)
);
},
{
closed = 1;
nodes = (
(984,-32,o),
(1165,64,o),
(1243,240,c),
(1267,170,l),
(1029,335,l),
(1077,320,l),
(1012,197,o),
(892,136,o),
(715,136,cs),
(443,136,o),
(294,282,o),
(294,549,cs),
(294,825,o),
(448,984,o),
(715,984,cs),
(893,984,o),
(1000,914,o),
(1060,758,c),
(979,777,l),
(1260,891,l),
(1226,847,l),
(1182,1037,o),
(994,1152,o),
(728,1152,cs),
(344,1152,o),
(92,915,o),
(92,556,cs),
(92,196,o),
(339,-32,o),
(730,-32,cs)
);
}
);
};
layerId = m003;
shapes = (
{
closed = 1;
nodes = (
(959,-32,o),
(1132,36,o),
(1223,200,c),
(1071,306,l),
(1007,179,o),
(883,136,o),
(727,136,cs),
(437,136,o),
(294,282,o),
(294,550,cs),
(294,825,o),
(445,984,o),
(723,984,cs),
(886,984,o),
(985,929,o),
(1042,803,c),
(1219,874,l),
(1164,1048,o),
(981,1152,o),
(727,1152,cs),
(344,1152,o),
(92,916,o),
(92,553,cs),
(92,196,o),
(336,-32,o),
(739,-32,cs)
);
}
);
width = 1303;
},
{
anchors = (
{
name = bottom;
pos = (664,0);
},
{
name = top;
pos = (755,1120);
}
);
background = {
shapes = (
{
pos = (-6,0);
ref = o;
}
);
};
layerId = m004;
shapes = (
{
closed = 1;
nodes = (
(971,-32,o),
(1144,35,o),
(1253,147,c),
(1063,339,l),
(1021,288,o),
(938,212,o),
(739,212,cs),
(529,212,o),
(378,297,o),
(378,558,cs),
(378,823,o),
(533,907,o),
(731,907,cs),
(935,907,o),
(995,819,o),
(1024,770,c),
(1259,923,l),
(1175,1077,o),
(997,1152,o),
(755,1152,cs),
(352,1152,o),
(85,944,o),
(85,544,cs),
(85,157,o),
(334,-32,o),
(733,-32,cs)
);
}
);
width = 1300;
}
);
metricLeft = e;
unicode = 99;
userData = {
KernOnName = c;
};
},
{
color = 5;
glyphname = d;
kernLeft = KO_d;
kernRight = KO_d;
lastChange = "2022-03-23 19:20:27 +0000";
layers = (
{
anchors = (
{
name = bottom;
pos = (655,0);
},
{
name = center;
pos = (938,1302);
},
{
name = top;
pos = (655,1800);
},
{
name = topright;
pos = (1131,1551);
}
);
layerId = "FC837317-1536-49E4-8B36-958C77713550";
shapes = (
{
closed = 1;
nodes = (
(742,-32,o),
(873,46,o),
(938,186,c),
(944,186,l),
(944,114,o),
(947,63,o),
(953,0,c),
(1131,0,l),
(1131,1551,l),
(939,1551,l),
(943,1120,o),
(944,1034,o),
(944,952,c),
(938,952,l),
(868,1082,o),
(747,1150,o),
(586,1150,cs),
(288,1150,o),
(97,917,o),
(97,556,cs),
(97,201,o),
(282,-32,o),
(573,-32,cs)
);
},
{
closed = 1;
nodes = (
(396,136,o),
(295,274,o),
(295,563,cs),
(295,844,o),
(391,982,o),
(597,982,cs),
(814,982,o),
(949,828,o),
(949,560,cs),
(949,556,ls),
(949,294,o),
(810,136,o),
(596,136,cs)
);
}
);
width = 1306;
},
{
anchors = (
{
name = bottom;
pos = (677,0);
},
{
name = center;
pos = (1013,1315);
},
{
name = top;
pos = (639,1550);
},
{
name = topright;
pos = (1400,1550);
}
);
background = {
anchors = (
{
name = bottom;
pos = (767,0);
},
{
name = ogonek;
pos = (1251,20);
},
{
name = top;
pos = (767,1120);
}
);
shapes = (
{
pos = (129,0);
ref = a;
}
);
};
layerId = m014;
shapes = (
{
closed = 1;
nodes = (
(748,-32,o),
(876,41,o),
(938,174,c),
(946,174,l),
(947,126,o),
(950,66,o),
(955,0,c),
(1204,0,l),
(1204,1550,l),
(916,1550,l),
(916,1381,o),
(923,1073,o),
(930,926,c),
(922,926,l),
(883,1069,o),
(757,1152,o),
(579,1152,cs),
(280,1152,o),
(85,917,o),
(85,558,cs),
(85,200,o),
(279,-32,o),
(579,-32,cs)
);
},
{
closed = 1;
nodes = (
(481,208,o),
(379,343,o),
(379,558,cs),
(379,773,o),
(481,912,o),
(639,912,cs),
(794,912,o),
(916,778,o),
(916,606,cs),
(916,514,ls),
(916,336,o),
(802,208,o),
(644,208,cs)
);
}
);
width = 1365;
},
{
anchors = (
{
name = bottom;
pos = (768,0);
},
{
name = center;
pos = (1068,1303);
},
{
name = top;
pos = (694,1550);
},
{
name = topright;
pos = (1331,1551);
}
);
layerId = m003;
shapes = (
{
closed = 1;
nodes = (
(878,-32,o),
(1045,44,o),
(1129,186,c),
(1134,186,l),
(1133,114,o),
(1137,59,o),
(1145,0,c),
(1331,0,l),
(1331,1551,l),
(1139,1551,l),
(1144,1120,o),
(1143,1039,o),
(1141,952,c),
(1136,952,l),
(1036,1082,o),
(890,1150,o),
(694,1150,cs),
(331,1150,o),
(97,917,o),
(97,555,cs),
(97,201,o),
(321,-32,o),
(675,-32,cs)
);
},
{
closed = 1;
nodes = (
(423,136,o),
(296,272,o),
(296,563,cs),
(296,845,o),
(414,982,o),
(691,982,cs),
(984,982,o),
(1156,828,o),
(1156,560,cs),
(1156,556,ls),
(1156,294,o),
(977,136,o),
(690,136,cs)
);
}
);
width = 1506;
},
{
anchors = (
{
name = bottom;
pos = (790,0);
},
{
name = center;
pos = (1185,1308);
},
{
name = top;
pos = (790,1800);
},
{
name = topright;
pos = (1589,1550);
}
);
background = {
anchors = (
{
name = bottom;
pos = (767,0);
},
{
name = ogonek;
pos = (1251,20);
},
{
name = top;
pos = (767,1120);
}
);
shapes = (
{
pos = (129,0);
ref = a;
}
);
};
layerId = m004;
shapes = (
{
closed = 1;
nodes = (
(890,-32,o),
(1050,46,o),
(1128,174,c),
(1133,174,l),
(1133,131,o),
(1138,61,o),
(1147,0,c),
(1404,0,l),
(1404,1550,l),
(1116,1550,l),
(1121,1129,o),
(1121,1067,o),
(1124,926,c),
(1119,926,l),
(1050,1068,o),
(902,1152,o),
(686,1152,cs),
(325,1152,o),
(85,917,o),
(85,556,cs),
(85,199,o),
(319,-32,o),
(680,-32,cs)
);
},
{
closed = 1;
nodes = (
(498,208,o),
(380,353,o),
(380,560,cs),
(380,768,o),
(499,912,o),
(735,912,cs),
(960,912,o),
(1123,782,o),
(1123,606,cs),
(1123,514,ls),
(1123,318,o),
(953,208,o),
(741,208,cs)
);
}
);
width = 1565;
}
);
metricLeft = "=|b";
metricRight = "=|h";
unicode = 100;
userData = {
KernOnName = d;
};
},
{
color = 4;
glyphname = eth;
kernLeft = KO_eth;
kernRight = KO_eth;
lastChange = "2022-03-15 18:04:34 +0000";
layers = (
{
layerId = "FC837317-1536-49E4-8B36-958C77713550";
shapes = (
{
closed = 1;
nodes = (
(933,-31,o),
(1141,165,o),
(1141,460,cs),
(1141,600,o),
(1095,718,o),
(935,967,cs),
(612,1470,l),
(398,1470,l),
(789,892,ls),
(799,877,o),
(812,862,o),
(823,847,c),
(820,844,l),
(775,877,o),
(687,914,o),
(565,914,cs),
(292,914,o),
(97,730,o),
(97,454,cs),
(97,169,o),
(304,-31,o),
(620,-31,cs)
);
},
{
closed = 1;
nodes = (
(420,145,o),
(299,266,o),
(299,464,cs),
(299,653,o),
(409,772,o),
(612,772,cs),
(821,772,o),
(939,646,o),
(939,458,cs),
(939,266,o),
(816,145,o),
(618,145,cs)
);
},
{
closed = 1;
nodes = (
(1049,1181,l),
(1037,1315,l),
(408,1150,l),
(420,1016,l)
);
}
);
width = 1238;
},
{
layerId = m014;
shapes = (
{
closed = 1;
nodes = (
(958,-32,o),
(1188,159,o),
(1188,472,cs),
(1188,614,o),
(1143,737,o),
(985,987,cs),
(679,1470,l),
(358,1470,l),
(757,896,ls),
(766,884,o),
(774,872,o),
(783,860,c),
(780,857,l),
(738,889,o),
(657,918,o),
(547,918,cs),
(275,918,o),
(85,741,o),
(85,460,cs),
(85,159,o),
(304,-32,o),
(631,-32,cs)
);
},
{
closed = 1;
nodes = (
(470,210,o),
(379,297,o),
(379,456,cs),
(379,617,o),
(473,708,o),
(632,708,cs),
(796,708,o),
(894,611,o),
(894,453,cs),
(894,299,o),
(800,210,o),
(634,210,cs)
);
},
{
closed = 1;
nodes = (
(1045,1188,l),
(1033,1383,l),
(404,1143,l),
(416,948,l)
);
}
);
width = 1273;
},
{
layerId = m003;
shapes = (
{
closed = 1;
nodes = (
(1100,-31,o),
(1334,164,o),
(1334,465,cs),
(1334,613,o),
(1277,732,o),
(1114,938,cs),
(694,1470,l),
(460,1470,l),
(931,892,ls),
(943,878,o),
(956,864,o),
(968,850,c),
(964,847,l),
(903,885,o),
(801,915,o),
(663,915,cs),
(336,915,o),
(97,748,o),
(97,459,cs),
(97,175,o),
(329,-31,o),
(720,-31,cs)
);
},
{
closed = 1;
nodes = (
(451,145,o),
(303,274,o),
(303,468,cs),
(303,661,o),
(448,762,o),
(702,762,cs),
(976,762,o),
(1128,645,o),
(1128,457,cs),
(1128,269,o),
(975,145,o),
(716,145,cs)
);
},
{
closed = 1;
nodes = (
(1235,1181,l),
(1220,1315,l),
(422,1150,l),
(437,1016,l)
);
}
);
width = 1431;
},
{
layerId = m004;
shapes = (
{
closed = 1;
nodes = (
(1152,-32,o),
(1398,178,o),
(1398,472,cs),
(1398,613,o),
(1342,743,o),
(1149,987,cs),
(768,1470,l),
(442,1469,l),
(921,898,l),
(933,885,o),
(944,873,o),
(956,860,c),
(952,857,l),
(895,891,o),
(802,918,o),
(663,918,cs),
(306,918,o),
(85,741,o),
(85,461,cs),
(85,163,o),
(334,-32,o),
(735,-32,cs)
);
},
{
closed = 1;
nodes = (
(456,210,o),
(383,340,o),
(383,462,cs),
(383,617,o),
(501,708,o),
(731,708,cs),
(969,708,o),
(1100,611,o),
(1100,460,cs),
(1100,314,o),
(978,210,o),
(732,210,cs)
);
},
{
closed = 1;
nodes = (
(1304,1188,l),
(1289,1383,l),
(491,1143,l),
(506,948,l)
);
}
);
width = 1483;
}
);
metricLeft = o;
metricRight = b;
unicode = 240;
},
{
color = 5;
glyphname = e;
kernLeft = KO_e;
kernRight = KO_e;
lastChange = "2022-03-23 19:20:27 +0000";
layers = (
{
anchors = (
{
name = bottom;
pos = (558,0);
},
{
name = ogonek;
pos = (715,0);
},
{
name = top;
pos = (588,1152);
}
);
background = {
shapes = (
{
closed = 1;
nodes = (
(884,-32,o),
(1096,200,o),
(1096,558,cs),
(1096,916,o),
(884,1152,o),
(574,1152,cs),
(272,1152,o),
(50,916,o),
(50,558,cs),
(50,200,o),
(272,-32,o),
(574,-32,cs)
);
},
{
closed = 1;
nodes = (
(380,136,o),
(248,286,o),
(248,558,cs),
(248,830,o),
(380,984,o),
(572,984,cs),
(768,984,o),
(898,830,o),
(898,558,cs),
(898,286,o),
(768,136,o),
(572,136,cs)
);
},
{
closed = 1;
nodes = (
(707,-32,o),
(836,0,o),
(978,88,c),
(938,266,l),
(925,246,o),
(763,136,o),
(595,136,cs),
(383,136,o),
(270,279,o),
(266,546,c),
(270,874,o),
(384,984,o),
(565,984,cs),
(726,984,o),
(802,876,o),
(802,552,c),
(964,650,l),
(148,650,l),
(148,494,l),
(994,494,l),
(998,530,o),
(998,590,o),
(998,590,cs),
(998,964,o),
(824,1152,o),
(567,1152,cs),
(272,1152,o),
(72,907,o),
(72,558,cs),
(72,203,o),
(280,-32,o),
(585,-32,cs)
);
}
);
};
layerId = "FC837317-1536-49E4-8B36-958C77713550";
shapes = (
{
closed = 1;
nodes = (
(802,-32,o),
(970,61,o),
(1040,210,c),
(1059,151,l),
(847,313,l),
(918,321,l),
(869,215,o),
(738,136,o),
(601,136,cs),
(415,136,o),
(299,282,o),
(286,546,c),
(291,839,o),
(390,984,o),
(582,984,cs),
(743,984,o),
(834,882,o),
(834,706,cs),
(834,674,o),
(831,639,o),
(824,602,c),
(989,650,l),
(173,650,l),
(173,494,l),
(1015,494,l),
(1019,516,o),
(1023,582,o),
(1023,634,cs),
(1023,960,o),
(863,1152,o),
(588,1152,cs),
(286,1152,o),
(92,921,o),
(92,569,cs),
(92,207,o),
(297,-32,o),
(608,-32,cs)
);
}
);
width = 1116;
},
{
anchors = (
{
name = bottom;
pos = (594,0);
},
{
name = ogonek;
pos = (805,0);
},
{
name = top;
pos = (637,1120);
}
);
background = {
shapes = (
{
closed = 1;
nodes = (
(1007,-32,o),
(1225,192,o),
(1225,558,cs),
(1225,924,o),
(1007,1152,o),
(659,1152,cs),
(311,1152,o),
(91,922,o),
(91,558,cs),
(91,192,o),
(311,-32,o),
(659,-32,cs)
);
},
{
closed = 1;
nodes = (
(489,208,o),
(385,340,o),
(385,558,cs),
(385,776,o),
(489,912,o),
(657,912,cs),
(827,912,o),
(931,776,o),
(931,558,cs),
(931,340,o),
(827,208,o),
(657,208,cs)
);
}
);
};
layerId = m014;
shapes = (
{
closed = 1;
nodes = (
(835,-32,o),
(1010,24,o),
(1113,243,c),
(1135,186,l),
(847,356,l),
(887,337,l),
(885,334,o),
(863,202,o),
(655,202,cs),
(426,202,o),
(360,363,o),
(368,584,c),
(371,784,o),
(420,918,o),
(615,918,cs),
(747,918,o),
(834,857,o),
(834,716,cs),
(834,676,o),
(827,632,o),
(814,582,c),
(929,656,l),
(219,656,l),
(222,466,l),
(1085,466,l),
(1091,498,o),
(1102,566,o),
(1102,651,cs),
(1102,975,o),
(940,1152,o),
(637,1152,cs),
(259,1152,o),
(85,877,o),
(85,548,cs),
(85,170,o),
(314,-32,o),
(655,-32,cs)
);
}
);
width = 1188;
},
{
anchors = (
{
name = bottom;
pos = (717,0);
},
{
name = ogonek;
pos = (839,0);
},
{
name = top;
pos = (692,1152);
}
);
background = {
shapes = (
{
closed = 1;
nodes = (
(884,-32,o),
(1096,200,o),
(1096,558,cs),
(1096,916,o),
(884,1152,o),
(574,1152,cs),
(272,1152,o),
(50,916,o),
(50,558,cs),
(50,200,o),
(272,-32,o),
(574,-32,cs)
);
},
{
closed = 1;
nodes = (
(380,136,o),
(248,286,o),
(248,558,cs),
(248,830,o),
(380,984,o),
(572,984,cs),
(768,984,o),
(898,830,o),
(898,558,cs),
(898,286,o),
(768,136,o),
(572,136,cs)
);
},
{
closed = 1;
nodes = (
(707,-32,o),
(836,0,o),
(978,88,c),
(938,266,l),
(925,246,o),
(763,136,o),
(595,136,cs),
(383,136,o),
(270,279,o),
(266,546,c),
(270,874,o),
(384,984,o),
(565,984,cs),
(726,984,o),
(802,876,o),
(802,552,c),
(964,650,l),
(148,650,l),
(148,494,l),
(994,494,l),
(998,530,o),
(998,590,o),
(998,590,cs),
(998,964,o),
(824,1152,o),
(567,1152,cs),
(272,1152,o),
(72,907,o),
(72,558,cs),
(72,203,o),
(280,-32,o),
(585,-32,cs)
);
}
);
};
layerId = m003;
shapes = (
{
closed = 1;
nodes = (
(923,-32,o),
(1139,65,o),
(1221,206,c),
(1239,151,l),
(1027,313,l),
(1110,360,l),
(1039,224,o),
(876,136,o),
(694,136,cs),
(443,136,o),
(278,303,o),
(290,546,c),
(269,815,o),
(424,984,o),
(694,984,cs),
(910,984,o),
(1009,875,o),
(1009,632,cs),
(1009,608,o),
(1008,582,o),
(1006,572,c),
(1123,644,l),
(167,644,l),
(166,494,l),
(1194,494,l),
(1197,498,o),
(1200,575,o),
(1200,621,cs),
(1200,973,o),
(1026,1152,o),
(692,1152,cs),
(320,1152,o),
(92,930,o),
(92,569,cs),
(92,203,o),
(326,-32,o),
(689,-32,cs)
);
}
);
width = 1316;
},
{
anchors = (
{
name = bottom;
pos = (744,0);
},
{
name = ogonek;
pos = (918,0);
},
{
name = top;
pos = (754,1120);
}
);
background = {
shapes = (
{
closed = 1;
nodes = (
(1007,-32,o),
(1225,192,o),
(1225,558,cs),
(1225,924,o),
(1007,1152,o),
(659,1152,cs),
(311,1152,o),
(91,922,o),
(91,558,cs),
(91,192,o),
(311,-32,o),
(659,-32,cs)
);
},
{
closed = 1;
nodes = (
(489,208,o),
(385,340,o),
(385,558,cs),
(385,776,o),
(489,912,o),
(657,912,cs),
(827,912,o),
(931,776,o),
(931,558,cs),
(931,340,o),
(827,208,o),
(657,208,cs)
);
}
);
};
layerId = m004;
shapes = (
{
closed = 1;
nodes = (
(1009,-32,o),
(1212,55,o),
(1316,212,c),
(1338,114,l),
(1071,363,l),
(1122,388,l),
(1108,280,o),
(957,202,o),
(763,202,cs),
(511,202,o),
(376,334,o),
(372,584,c),
(381,808,o),
(503,918,o),
(747,918,cs),
(941,918,o),
(1020,849,o),
(1020,687,cs),
(1020,646,o),
(1015,615,o),
(1004,582,c),
(1193,653,l),
(212,653,l),
(214,466,l),
(1287,466,l),
(1295,505,o),
(1302,582,o),
(1302,644,cs),
(1302,972,o),
(1107,1152,o),
(751,1152,cs),
(345,1152,o),
(85,918,o),
(85,552,cs),
(85,191,o),
(339,-32,o),
(751,-32,cs)
);
}
);
width = 1388;
}
);
unicode = 101;
userData = {
KernOnName = e;
};
},
{
color = 5;
glyphname = f;
kernLeft = KO_f;
kernRight = KO_f;
lastChange = "2022-03-23 19:20:27 +0000";
layers = (
{
anchors = (
{
name = bottom;
pos = (366,0);
},
{
name = top;
pos = (366,1800);
}
);
background = {
anchors = (
{
name = bottom;
pos = (342,0);
},
{
name = top;
pos = (342,1600);
}
);
shapes = (
{
closed = 1;
nodes = (
(390,0,l),
(390,1226,ls),
(390,1350,o),
(429,1402,o),
(534,1402,cs),
(596,1402,o),
(659,1385,o),
(682,1373,c),
(682,1542,l),
(642,1555,o),
(562,1571,o),
(487,1571,cs),
(198,1571,o),
(198,1330,o),
(198,1268,cs),
(198,0,l)
);
},
{
closed = 1;
nodes = (
(658,972,l),
(658,1120,l),
(72,1120,l),
(72,972,l)
);
}
);
};
layerId = "FC837317-1536-49E4-8B36-958C77713550";
shapes = (
{
closed = 1;
nodes = (
(415,0,l),
(415,1246,ls),
(415,1356,o),
(456,1402,o),
(553,1402,cs),
(613,1402,o),
(698,1384,o),
(707,1373,c),
(707,1542,l),
(661,1559,o),
(602,1571,o),
(533,1571,cs),
(328,1571,o),
(223,1467,o),
(223,1258,cs),
(223,0,l)
);
},
{
closed = 1;
nodes = (
(683,972,l),
(683,1120,l),
(97,1120,l),
(97,972,l)
);
}
);
width = 732;
},
{
anchors = (
{
name = bottom;
pos = (404,0);
},
{
name = top;
pos = (404,1800);
}
);
layerId = m014;
shapes = (
{
closed = 1;
nodes = (
(507,0,l),
(507,1198,ls),
(507,1304,o),
(548,1333,o),
(643,1333,cs),
(721,1333,o),
(784,1313,o),
(785,1308,c),
(785,1559,l),
(750,1571,o),
(666,1590,o),
(574,1590,cs),
(346,1590,o),
(219,1475,o),
(219,1243,cs),
(219,0,l)
);
},
{
closed = 1;
nodes = (
(773,900,l),
(773,1120,l),
(67,1120,l),
(67,900,l)
);
}
);
width = 818;
},
{
anchors = (
{
name = bottom;
pos = (434,0);
},
{
name = top;
pos = (434,1800);
}
);
background = {
anchors = (
{
name = bottom;
pos = (342,0);
},
{
name = top;
pos = (342,1600);
}
);
shapes = (
{
closed = 1;
nodes = (
(390,0,l),
(390,1226,ls),
(390,1350,o),
(429,1402,o),
(534,1402,cs),
(596,1402,o),
(659,1385,o),
(682,1373,c),
(682,1542,l),
(642,1555,o),
(562,1571,o),
(487,1571,cs),
(198,1571,o),
(198,1330,o),
(198,1268,cs),
(198,0,l)
);
},
{
closed = 1;
nodes = (
(658,972,l),
(658,1120,l),
(72,1120,l),
(72,972,l)
);
}
);
};
layerId = m003;
shapes = (
{
closed = 1;
nodes = (
(453,0,l),
(453,1246,ls),
(453,1273,o),
(445,1402,o),
(658,1402,cs),
(740,1402,o),
(886,1383,o),
(907,1373,c),
(907,1542,l),
(879,1549,o),
(764,1573,o),
(650,1573,cs),
(261,1573,o),
(261,1294,o),
(261,1258,cs),
(261,0,l)
);
},
{
closed = 1;
nodes = (
(859,972,l),
(859,1120,l),
(97,1120,l),
(97,972,l)
);
}
);
width = 932;
},
{
anchors = (
{
name = bottom;
pos = (472,0);
},
{
name = top;
pos = (472,1800);
}
);
layerId = m004;
shapes = (
{
closed = 1;
nodes = (
(545,0,l),
(545,1198,ls),
(545,1311,o),
(600,1353,o),
(737,1353,cs),
(846,1353,o),
(943,1326,o),
(985,1308,c),
(985,1559,l),
(964,1565,o),
(824,1591,o),
(713,1591,cs),
(446,1591,o),
(257,1447,o),
(257,1243,cs),
(257,0,l)
);
},
{
closed = 1;
nodes = (
(949,900,l),
(949,1120,l),
(67,1120,l),
(67,900,l)
);
}
);
width = 1018;
}
);
unicode = 102;
userData = {
KernOnName = f;
};
},
{
color = 5;
glyphname = g;
kernLeft = KO_g;
kernRight = KO_g;
lastChange = "2022-03-23 19:20:27 +0000";
layers = (
{
anchors = (
{
name = bottom;
pos = (625,-400);
},
{
name = top;
pos = (703,1123);
}
);
background = {
shapes = (
{
closed = 1;
nodes = (
(948,-421,o),
(1121,-232,o),
(1121,117,cs),
(1121,1122,l),
(946,1122,l),
(939,1043,o),
(936,987,o),
(936,916,c),
(929,916,l),
(873,1068,o),
(743,1154,o),
(570,1154,cs),
(286,1154,o),
(97,920,o),
(97,566,cs),
(97,213,o),
(288,-16,o),
(582,-16,cs),
(744,-16,o),
(861,54,o),
(929,190,c),
(936,190,l),
(935,95,ls),
(933,-141,o),
(825,-253,o),
(597,-253,cs),
(455,-253,o),
(334,-208,o),
(184,-100,c),
(238,-80,l),
(181,-350,l),
(145,-283,l),
(264,-367,o),
(453,-421,o),
(628,-421,cs)
);
},
{
closed = 1;
nodes = (
(395,152,o),
(295,285,o),
(295,556,cs),
(295,838,o),
(399,986,o),
(598,986,cs),
(807,986,o),
(939,823,o),
(939,566,c),
(939,562,l),
(939,303,o),
(813,152,o),
(597,152,cs)
);
}
);
};
guides = (
{
angle = 270;
pos = (315,234);
}
);
layerId = "FC837317-1536-49E4-8B36-958C77713550";
shapes = (
{
closed = 1;
nodes = (
(948,-421,o),
(1121,-232,o),
(1121,117,cs),
(1121,1122,l),
(946,1122,l),
(939,1043,o),
(936,987,o),
(936,916,c),
(929,916,l),
(873,1067,o),
(743,1152,o),
(571,1152,cs),
(286,1152,o),
(97,918,o),
(97,567,cs),
(97,213,o),
(288,-16,o),
(582,-16,cs),
(744,-16,o),
(861,54,o),
(929,190,c),
(936,190,l),
(935,95,ls),
(933,-133,o),
(832,-253,o),
(599,-253,cs),
(469,-253,o),
(358,-216,o),
(227,-130,c),
(189,-311,l),
(308,-379,o),
(473,-421,o),
(625,-421,cs)
);
},
{
closed = 1;
nodes = (
(395,152,o),
(295,285,o),
(295,559,cs),
(295,837,o),
(399,984,o),
(598,984,cs),
(807,984,o),
(939,822,o),
(939,566,cs),
(939,562,ls),
(939,303,o),
(813,152,o),
(597,152,cs)
);
}
);
width = 1265;
},
{
anchors = (
{
name = bottom;
pos = (630,-398);
},
{
name = top;
pos = (783,1120);
}
);
background = {
shapes = (
{
closed = 1;
nodes = (
(1046,-428,o),
(1210,-214,o),
(1209,76,cs),
(1204,1122,l),
(955,1122,l),
(948,1061,o),
(943,998,o),
(942,948,c),
(938,948,l),
(878,1076,o),
(753,1154,o),
(579,1154,cs),
(280,1154,o),
(85,924,o),
(85,565,cs),
(85,205,o),
(282,-30,o),
(579,-30,cs),
(753,-30,o),
(882,51,o),
(922,196,c),
(926,196,l),
(926,65,ls),
(926,-99,o),
(844,-214,o),
(633,-214,cs),
(476,-214,o),
(287,-151,o),
(277,-108,c),
(297,-75,l),
(164,-462,l),
(142,-285,l),
(241,-365,o),
(402,-428,o),
(628,-428,cs)
);
},
{
closed = 1;
nodes = (
(478,210,o),
(379,354,o),
(379,563,cs),
(379,769,o),
(476,914,o),
(643,914,cs),
(789,914,o),
(916,804,o),
(916,608,cs),
(916,516,ls),
(916,340,o),
(791,210,o),
(639,210,cs)
);
}
);
};
layerId = m014;
shapes = (
{
closed = 1;
nodes = (
(1000,-428,o),
(1211,-242,o),
(1209,76,cs),
(1204,1122,l),
(955,1122,l),
(950,1056,o),
(947,996,o),
(946,948,c),
(938,948,l),
(876,1081,o),
(748,1154,o),
(579,1154,cs),
(279,1154,o),
(85,922,o),
(85,564,cs),
(85,205,o),
(280,-30,o),
(578,-30,cs),
(755,-30,o),
(880,53,o),
(919,196,c),
(926,196,l),
(926,65,ls),
(926,-129,o),
(837,-214,o),
(634,-214,cs),
(505,-214,o),
(383,-180,o),
(273,-115,c),
(187,-327,l),
(313,-392,o),
(467,-428,o),
(630,-428,cs)
);
},
{
closed = 1;
nodes = (
(481,210,o),
(379,349,o),
(379,564,cs),
(379,779,o),
(481,914,o),
(644,914,cs),
(802,914,o),
(916,786,o),
(916,608,cs),
(916,516,ls),
(916,344,o),
(794,210,o),
(639,210,cs)
);
}
);
width = 1324;
},
{
anchors = (
{
name = bottom;
pos = (801,-400);
},
{
name = top;
pos = (854,1120);
}
);
background = {
shapes = (
{
closed = 1;
nodes = (
(1027,-421,o),
(1353,-300,o),
(1354,87,cs),
(1356,1122,l),
(1171,1122,l),
(1163,1059,o),
(1160,1004,o),
(1160,936,c),
(1156,936,l),
(1081,1075,o),
(940,1154,o),
(723,1154,cs),
(350,1154,o),
(97,921,o),
(97,567,cs),
(97,205,o),
(362,-28,o),
(742,-28,cs),
(935,-28,o),
(1064,32,o),
(1161,170,c),
(1167,170,l),
(1165,35,ls),
(1162,-161,o),
(994,-253,o),
(723,-253,cs),
(459,-253,o),
(298,-166,o),
(287,-125,c),
(303,-90,l),
(229,-359,l),
(222,-280,l),
(252,-351,o),
(518,-421,o),
(737,-421,cs)
);
},
{
closed = 1;
nodes = (
(435,140,o),
(296,298,o),
(296,556,cs),
(296,820,o),
(442,986,o),
(733,986,cs),
(1016,986,o),
(1180,828,o),
(1180,566,cs),
(1180,562,ls),
(1180,294,o),
(1031,140,o),
(735,140,cs)
);
}
);
};
guides = (
{
angle = 270;
pos = (353,234);
}
);
layerId = m003;
shapes = (
{
closed = 1;
nodes = (
(1117,-421,o),
(1353,-226,o),
(1354,87,cs),
(1356,1122,l),
(1171,1122,l),
(1163,1063,o),
(1160,1008,o),
(1160,936,c),
(1156,936,l),
(1078,1080,o),
(932,1154,o),
(722,1154,cs),
(348,1154,o),
(97,919,o),
(97,568,cs),
(97,211,o),
(356,-28,o),
(741,-28,cs),
(936,-28,o),
(1065,33,o),
(1161,170,c),
(1167,170,l),
(1165,35,ls),
(1162,-152,o),
(1008,-253,o),
(747,-253,cs),
(574,-253,o),
(403,-209,o),
(288,-145,c),
(242,-312,l),
(379,-381,o),
(552,-421,o),
(728,-421,cs)
);
},
{
closed = 1;
nodes = (
(449,140,o),
(296,285,o),
(296,556,cs),
(296,831,o),
(453,986,o),
(733,986,cs),
(1014,986,o),
(1180,830,o),
(1180,566,cs),
(1180,562,ls),
(1180,288,o),
(1024,140,o),
(735,140,cs)
);
}
);
width = 1459;
},
{
anchors = (
{
name = bottom;
pos = (758,-400);
},
{
name = top;
pos = (866,1120);
}
);
background = {
anchors = (
{
name = bottom;
pos = (719,-600);
},
{
name = top;
pos = (719,1120);
}
);
shapes = (
{
closed = 1;
nodes = (
(1217,-428,o),
(1435,-249,o),
(1434,143,cs),
(1431,1122,l),
(1175,1122,l),
(1166,1056,o),
(1162,1001,o),
(1161,948,c),
(1156,948,l),
(1077,1084,o),
(928,1154,o),
(720,1154,cs),
(339,1154,o),
(85,919,o),
(85,566,cs),
(85,211,o),
(343,-30,o),
(723,-30,cs),
(936,-30,o),
(1078,46,o),
(1147,196,c),
(1150,196,l),
(1150,95,ls),
(1150,-131,o),
(1059,-204,o),
(778,-204,cs),
(567,-204,o),
(321,-142,o),
(280,-78,c),
(210,-319,l),
(297,-379,o),
(533,-428,o),
(738,-428,cs)
);
},
{
closed = 1;
nodes = (
(532,210,o),
(380,348,o),
(380,562,cs),
(380,778,o),
(533,914,o),
(775,914,cs),
(1005,914,o),
(1149,796,o),
(1149,608,cs),
(1149,516,ls),
(1149,335,o),
(994,210,o),
(769,210,cs)
);
},
{
closed = 1;
nodes = (
(1216,-428,o),
(1435,-243,o),
(1434,143,cs),
(1431,1122,l),
(1175,1122,l),
(1167,1060,o),
(1162,1004,o),
(1161,948,c),
(1156,948,l),
(1077,1084,o),
(928,1154,o),
(720,1154,cs),
(339,1154,o),
(85,919,o),
(85,566,cs),
(85,211,o),
(343,-30,o),
(723,-30,cs),
(936,-30,o),
(1078,46,o),
(1147,196,c),
(1150,196,l),
(1150,95,ls),
(1150,-132,o),
(1059,-204,o),
(775,-204,cs),
(504,-204,o),
(282,-132,o),
(251,-35,c),
(293,-35,l),
(193,-375,l),
(170,-285,l),
(238,-366,o),
(492,-428,o),
(759,-428,cs)
);
},
{
closed = 1;
nodes = (
(532,210,o),
(380,348,o),
(380,562,cs),
(380,778,o),
(533,914,o),
(777,914,cs),
(1005,914,o),
(1149,795,o),
(1149,608,cs),
(1149,516,ls),
(1149,335,o),
(994,210,o),
(769,210,cs)
);
}
);
};
layerId = m004;
shapes = (
{
closed = 1;
nodes = (
(1216,-428,o),
(1435,-243,o),
(1434,143,cs),
(1431,1122,l),
(1175,1122,l),
(1167,1060,o),
(1162,1004,o),
(1161,948,c),
(1156,948,l),
(1077,1084,o),
(928,1154,o),
(720,1154,cs),
(339,1154,o),
(85,919,o),
(85,566,cs),
(85,211,o),
(343,-30,o),
(723,-30,cs),
(936,-30,o),
(1078,46,o),
(1147,196,c),
(1150,196,l),
(1150,95,ls),
(1150,-131,o),
(1059,-204,o),
(779,-204,cs),
(548,-204,o),
(354,-154,o),
(280,-79,c),
(210,-318,l),
(310,-382,o),
(530,-428,o),
(758,-428,cs)
);
},
{
closed = 1;
nodes = (
(532,210,o),
(380,348,o),
(380,563,cs),
(380,778,o),
(533,914,o),
(777,914,cs),
(1005,914,o),
(1149,795,o),
(1149,608,cs),
(1149,516,ls),
(1149,335,o),
(994,210,o),
(769,210,cs)
);
}
);
width = 1546;
}
);
metricLeft = o;
unicode = 103;
userData = {
KernOnName = g;
};
},
{
color = 5;
glyphname = h;
kernLeft = KO_h;
kernRight = KO_n;
lastChange = "2022-03-23 22:13:43 +0000";
layers = (
{
anchors = (
{
name = bottom;
pos = (620,0);
},
{
name = center;
pos = (367,1298);
},
{
name = top;
pos = (710,1550);
}
);
background = {
shapes = (
{
closed = 1;
nodes = (
(342,0,l),
(342,836,l),
(468,938,o),
(576,984,o),
(682,984,cs),
(802,984,o),
(854,912,o),
(854,756,cs),
(854,0,l),
(1046,0,l),
(1046,814,ls),
(1046,1028,o),
(928,1152,o),
(726,1152,cs),
(592,1152,o),
(460,1098,o),
(342,994,c),
(342,1550,l),
(150,1550,l),
(150,0,l)
);
}
);
};
layerId = "FC837317-1536-49E4-8B36-958C77713550";
shapes = (
{
closed = 1;
nodes = (
(367,0,l),
(367,700,ls),
(367,879,o),
(473,984,o),
(655,984,cs),
(814,984,o),
(879,903,o),
(879,706,cs),
(879,0,l),
(1071,0,l),
(1071,794,ls),
(1071,1026,o),
(952,1152,o),
(733,1152,cs),
(556,1152,o),
(416,1068,o),
(367,934,c),
(360,934,l),
(366,967,o),
(367,1056,o),
(367,1550,c),
(175,1550,l),
(175,0,l)
);
}
);
width = 1240;
},
{
anchors = (
{
name = bottom;
pos = (666,0);
},
{
name = center;
pos = (403,1314);
},
{
name = top;
pos = (763,1550);
}
);
background = {
shapes = (
{
closed = 1;
nodes = (
(424,0,l),
(424,556,ls),
(424,775,o),
(526,912,o),
(691,912,cs),
(756,912,o),
(808,891,o),
(836,854,cs),
(869,810,o),
(874,740,o),
(874,560,cs),
(874,0,l),
(1162,0,l),
(1162,766,ls),
(1162,902,o),
(1124,1004,o),
(1061,1065,cs),
(1002,1122,o),
(915,1152,o),
(795,1152,cs),
(601,1152,o),
(478,1073,o),
(408,906,c),
(404,906,l),
(412,974,o),
(414,1011,o),
(414,1120,c),
(136,1120,l),
(136,1048,o),
(136,974,o),
(136,902,c),
(136,0,l)
);
},
{
closed = 1;
nodes = (
(424,0,l),
(424,666,ls),
(424,802,o),
(535,912,o),
(689,912,cs),
(754,912,o),
(809,892,o),
(839,851,cs),
(867,812,o),
(874,756,o),
(874,620,cs),
(874,0,l),
(1162,0,l),
(1162,732,ls),
(1162,894,o),
(1136,997,o),
(1068,1064,cs),
(1011,1121,o),
(921,1152,o),
(806,1152,cs),
(612,1152,o),
(482,1063,o),
(418,886,c),
(414,886,l),
(422,973,o),
(424,1024,o),
(424,1550,c),
(136,1550,l),
(136,0,l)
);
}
);
};
layerId = m014;
shapes = (
{
closed = 1;
nodes = (
(449,0,l),
(449,556,ls),
(449,794,o),
(537,912,o),
(716,912,cs),
(852,912,o),
(899,843,o),
(899,640,cs),
(899,0,l),
(1187,0,l),
(1187,766,ls),
(1187,1024,o),
(1065,1152,o),
(820,1152,cs),
(627,1152,o),
(502,1073,o),
(433,906,c),
(425,906,l),
(444,1135,o),
(449,1255,o),
(449,1550,c),
(161,1550,l),
(161,0,l)
);
}
);
width = 1332;
},
{
anchors = (
{
name = bottom;
pos = (722,0);
},
{
name = center;
pos = (425,1304);
},
{
name = top;
pos = (763,1550);
}
);
background = {
shapes = (
{
closed = 1;
nodes = (
(342,0,l),
(342,836,l),
(468,938,o),
(576,984,o),
(682,984,cs),
(802,984,o),
(854,912,o),
(854,756,cs),
(854,0,l),
(1046,0,l),
(1046,814,ls),
(1046,1028,o),
(928,1152,o),
(726,1152,cs),
(592,1152,o),
(460,1098,o),
(342,994,c),
(342,1550,l),
(150,1550,l),
(150,0,l)
);
}
);
};
layerId = m003;
shapes = (
{
closed = 1;
nodes = (
(367,0,l),
(367,700,ls),
(367,873,o),
(505,984,o),
(769,984,cs),
(974,984,o),
(1079,917,o),
(1079,706,cs),
(1079,0,l),
(1271,0,l),
(1271,794,ls),
(1271,1062,o),
(1075,1152,o),
(847,1152,cs),
(622,1152,o),
(425,1064,o),
(377,934,c),
(372,934,l),
(369,970,o),
(367,1025,o),
(367,1550,c),
(175,1550,l),
(175,0,l)
);
}
);
width = 1440;
},
{
anchors = (
{
name = bottom;
pos = (768,0);
},
{
name = center;
pos = (406,1312);
},
{
name = top;
pos = (835,1550);
}
);
background = {
shapes = (
{
closed = 1;
nodes = (
(424,0,l),
(424,556,ls),
(424,775,o),
(526,912,o),
(691,912,cs),
(756,912,o),
(808,891,o),
(836,854,cs),
(869,810,o),
(874,740,o),
(874,560,cs),
(874,0,l),
(1162,0,l),
(1162,766,ls),
(1162,902,o),
(1124,1004,o),
(1061,1065,cs),
(1002,1122,o),
(915,1152,o),
(795,1152,cs),
(601,1152,o),
(478,1073,o),
(408,906,c),
(404,906,l),
(412,974,o),
(414,1011,o),
(414,1120,c),
(136,1120,l),
(136,1048,o),
(136,974,o),
(136,902,c),
(136,0,l)
);
},
{
closed = 1;
nodes = (
(424,0,l),
(424,666,ls),
(424,802,o),
(535,912,o),
(689,912,cs),
(754,912,o),
(809,892,o),
(839,851,cs),
(867,812,o),
(874,756,o),
(874,620,cs),
(874,0,l),
(1162,0,l),
(1162,732,ls),
(1162,894,o),
(1136,997,o),
(1068,1064,cs),
(1011,1121,o),
(921,1152,o),
(806,1152,cs),
(612,1152,o),
(482,1063,o),
(418,886,c),
(414,886,l),
(422,973,o),
(424,1024,o),
(424,1550,c),
(136,1550,l),
(136,0,l)
);
}
);
};
layerId = m004;
shapes = (
{
closed = 1;
nodes = (
(449,0,l),
(449,556,ls),
(449,792,o),
(574,912,o),
(827,912,cs),
(1030,912,o),
(1099,835,o),
(1099,600,cs),
(1099,0,l),
(1387,0,l),
(1387,726,ls),
(1387,1008,o),
(1239,1152,o),
(929,1152,cs),
(688,1152,o),
(509,1065,o),
(443,906,c),
(438,906,l),
(447,1132,o),
(449,1235,o),
(449,1550,c),
(161,1550,l),
(161,0,l)
);
}
);
width = 1532;
}
);
metricLeft = n;
metricRight = n;
unicode = 104;
userData = {
KernOnName = h;
};
},
{
color = 5;
glyphname = i;
kernLeft = KO_i;
kernRight = KO_i;
lastChange = "2022-03-23 19:20:27 +0000";
layers = (
{
anchors = (
{
name = bottom;
pos = (374,0);
}
);
layerId = "FC837317-1536-49E4-8B36-958C77713550";
shapes = (
{
closed = 1;
nodes = (
(472,0,l),
(472,1120,l),
(38,1120,l),
(38,972,l),
(366,972,l),
(278,1042,l),
(278,0,l)
);
},
{
closed = 1;
nodes = (
(448,1308,o),
(506,1370,o),
(506,1442,cs),
(506,1513,o),
(448,1570,o),
(375,1570,cs),
(302,1570,o),
(242,1514,o),
(242,1442,cs),
(242,1369,o),
(302,1308,o),
(375,1308,cs)
);
}
);
width = 681;
},
{
anchors = (
{
name = bottom;
pos = (467,0);
}
);
layerId = m014;
shapes = (
{
closed = 1;
nodes = (
(616,0,l),
(616,1120,l),
(42,1120,l),
(42,900,l),
(454,900,l),
(322,1042,l),
(322,0,l)
);
},
{
closed = 1;
nodes = (
(585,1244,o),
(660,1307,o),
(660,1408,cs),
(660,1508,o),
(585,1570,o),
(467,1570,cs),
(349,1570,o),
(274,1508,o),
(274,1408,cs),
(274,1307,o),
(349,1244,o),
(467,1244,cs)
);
}
);
width = 821;
},
{
anchors = (
{
name = bottom;
pos = (542,0);
}
);
layerId = m003;
shapes = (
{
closed = 1;
nodes = (
(642,0,l),
(642,1120,l),
(98,1120,l),
(98,964,l),
(536,964,l),
(448,1042,l),
(448,0,l)
);
},
{
closed = 1;
nodes = (
(618,1308,o),
(676,1370,o),
(676,1442,cs),
(676,1513,o),
(618,1570,o),
(545,1570,cs),
(472,1570,o),
(412,1514,o),
(412,1442,cs),
(412,1369,o),
(472,1308,o),
(545,1308,cs)
);
}
);
width = 861;
},
{
anchors = (
{
name = bottom;
pos = (617,0);
}
);
layerId = m004;
shapes = (
{
closed = 1;
nodes = (
(766,0,l),
(766,1120,l),
(82,1120,l),
(82,925,l),
(604,925,l),
(472,1042,l),
(472,0,l)
);
},
{
closed = 1;
nodes = (
(735,1244,o),
(810,1307,o),
(810,1408,cs),
(810,1508,o),
(735,1570,o),
(617,1570,cs),
(499,1570,o),
(424,1508,o),
(424,1408,cs),
(424,1307,o),
(499,1244,o),
(617,1244,cs)
);
}
);
width = 961;
}
);
unicode = 105;
userData = {
KernOnName = i;
};
},
{
color = 5;
glyphname = idotless;
kernLeft = KO_iacute;
kernRight = KO_idotless;
lastChange = "2022-03-16 18:05:44 +0000";
layers = (
{
anchors = (
{
name = bottom;
pos = (374,0);
},
{
name = ogonek;
pos = (472,0);
},
{
name = top;
pos = (301,1152);
}
);
layerId = "FC837317-1536-49E4-8B36-958C77713550";
shapes = (
{
closed = 1;
nodes = (
(472,0,l),
(472,1120,l),
(38,1120,l),
(38,972,l),
(366,972,l),
(278,1042,l),
(278,0,l)
);
}
);
width = 681;
},
{
anchors = (
{
name = bottom;
pos = (467,0);
},
{
name = ogonek;
pos = (616,0);
},
{
name = top;
pos = (374,1120);
}
);
layerId = m014;
shapes = (
{
closed = 1;
nodes = (
(616,0,l),
(616,1120,l),
(42,1120,l),
(42,900,l),
(454,900,l),
(322,1042,l),
(322,0,l)
);
}
);
width = 821;
},
{
anchors = (
{
name = bottom;
pos = (584,0);
},
{
name = ogonek;
pos = (682,0);
},
{
name = top;
pos = (451,1120);
}
);
layerId = m003;
shapes = (
{
closed = 1;
nodes = (
(682,0,l),
(682,1120,l),
(98,1120,l),
(98,964,l),
(576,964,l),
(488,1042,l),
(488,0,l)
);
}
);
width = 901;
},
{
anchors = (
{
name = bottom;
pos = (657,0);
},
{
name = ogonek;
pos = (806,0);
},
{
name = top;
pos = (501,1120);
}
);
layerId = m004;
shapes = (
{
closed = 1;
nodes = (
(806,0,l),
(806,1120,l),
(82,1120,l),
(82,925,l),
(644,925,l),
(512,1042,l),
(512,0,l)
);
}
);
width = 1001;
}
);
unicode = 305;
},
{
color = 5;
glyphname = j;
kernLeft = KO_j;
kernRight = KO_j;
lastChange = "2022-03-23 19:20:27 +0000";
layers = (
{
background = {
shapes = (
{
closed = 1;
nodes = (
(294,-422,o),
(378,-334,o),
(378,-150,cs),
(378,1120,l),
(186,1120,l),
(186,-118,ls),
(186,-222,o),
(156,-254,o),
(82,-254,cs),
(50,-254,o),
(-14,-248,o),
(-76,-240,c),
(-76,-408,l),
(-30,-416,o),
(60,-422,o),
(116,-422,cs)
);
},
{
closed = 1;
nodes = (
(356,1308,o),
(414,1370,o),
(414,1440,cs),
(414,1514,o),
(356,1570,o),
(282,1570,cs),
(210,1570,o),
(150,1514,o),
(150,1440,cs),
(150,1370,o),
(210,1308,o),
(282,1308,cs)
);
}
);
};
layerId = "FC837317-1536-49E4-8B36-958C77713550";
shapes = (
{
closed = 1;
nodes = (
(298,-424,o),
(403,-320,o),
(403,-121,cs),
(403,1120,l),
(211,1120,l),
(211,-99,ls),
(211,-208,o),
(168,-255,o),
(70,-255,cs),
(18,-255,o),
(-43,-242,o),
(-71,-226,c),
(-81,-395,l),
(-35,-412,o),
(24,-424,o),
(93,-424,cs)
);
},
{
closed = 1;
nodes = (
(381,1308,o),
(439,1371,o),
(439,1442,cs),
(439,1514,o),
(381,1570,o),
(308,1570,cs),
(235,1570,o),
(175,1515,o),
(175,1442,cs),
(175,1370,o),
(235,1308,o),
(308,1308,cs)
);
}
);
width = 596;
},
{
layerId = m014;
shapes = (
{
closed = 1;
nodes = (
(352,-424,o),
(475,-309,o),
(475,-67,cs),
(475,1120,l),
(187,1120,l),
(187,-22,ls),
(187,-139,o),
(162,-184,o),
(87,-184,cs),
(41,-184,o),
(6,-167,o),
(-11,-155,c),
(-21,-390,l),
(16,-412,o),
(54,-424,o),
(127,-424,cs)
);
},
{
closed = 1;
nodes = (
(443,1244,o),
(514,1308,o),
(514,1408,cs),
(514,1509,o),
(443,1570,o),
(331,1570,cs),
(219,1570,o),
(148,1509,o),
(148,1408,cs),
(148,1308,o),
(219,1244,o),
(331,1244,cs)
);
}
);
width = 653;
},
{
background = {
shapes = (
{
closed = 1;
nodes = (
(294,-422,o),
(378,-334,o),
(378,-150,cs),
(378,1120,l),
(186,1120,l),
(186,-118,ls),
(186,-222,o),
(156,-254,o),
(82,-254,cs),
(50,-254,o),
(-14,-248,o),
(-76,-240,c),
(-76,-408,l),
(-30,-416,o),
(60,-422,o),
(116,-422,cs)
);
},
{
closed = 1;
nodes = (
(356,1308,o),
(414,1370,o),
(414,1440,cs),
(414,1514,o),
(356,1570,o),
(282,1570,cs),
(210,1570,o),
(150,1514,o),
(150,1440,cs),
(150,1370,o),
(210,1308,o),
(282,1308,cs)
);
}
);
};
layerId = m003;
shapes = (
{
closed = 1;
nodes = (
(300,-424,o),
(403,-320,o),
(403,-121,cs),
(403,1120,l),
(211,1120,l),
(211,-99,ls),
(211,-208,o),
(169,-255,o),
(66,-255,cs),
(12,-255,o),
(-75,-242,o),
(-101,-226,c),
(-111,-395,l),
(-65,-412,o),
(14,-424,o),
(87,-424,cs)
);
},
{
closed = 1;
nodes = (
(381,1308,o),
(439,1371,o),
(439,1442,cs),
(439,1514,o),
(381,1570,o),
(308,1570,cs),
(235,1570,o),
(175,1515,o),
(175,1442,cs),
(175,1370,o),
(235,1308,o),
(308,1308,cs)
);
}
);
width = 596;
},
{
layerId = m004;
shapes = (
{
closed = 1;
nodes = (
(353,-424,o),
(475,-315,o),
(475,-67,cs),
(475,1120,l),
(187,1120,l),
(187,-22,ls),
(187,-143,o),
(165,-184,o),
(79,-184,cs),
(35,-184,o),
(-29,-173,o),
(-41,-165,c),
(-51,-400,l),
(-14,-414,o),
(41,-424,o),
(114,-424,cs)
);
},
{
closed = 1;
nodes = (
(443,1244,o),
(514,1308,o),
(514,1408,cs),
(514,1509,o),
(443,1570,o),
(331,1570,cs),
(219,1570,o),
(148,1509,o),
(148,1408,cs),
(148,1308,o),
(219,1244,o),
(331,1244,cs)
);
}
);
width = 653;
}
);
unicode = 106;
userData = {
KernOnName = j;
};
},
{
color = 5;
glyphname = jdotless;
lastChange = "2022-03-16 19:26:47 +0000";
layers = (
{
anchors = (
{
name = bottom;
pos = (298,-400);
},
{
name = top;
pos = (298,1120);
}
);
layerId = "FC837317-1536-49E4-8B36-958C77713550";
shapes = (
{
closed = 1;
nodes = (
(298,-424,o),
(403,-320,o),
(403,-121,cs),
(403,1120,l),
(211,1120,l),
(211,-99,ls),
(211,-210,o),
(170,-255,o),
(70,-255,cs),
(16,-255,o),
(-51,-242,o),
(-81,-226,c),
(-81,-395,l),
(-35,-412,o),
(24,-424,o),
(93,-424,cs)
);
}
);
width = 596;
},
{
anchors = (
{
name = bottom;
pos = (327,-400);
},
{
name = top;
pos = (333,1120);
}
);
layerId = m014;
shapes = (
{
closed = 1;
nodes = (
(353,-424,o),
(475,-309,o),
(475,-67,cs),
(475,1120,l),
(187,1120,l),
(187,-22,ls),
(187,-145,o),
(164,-184,o),
(87,-184,cs),
(36,-184,o),
(-2,-167,o),
(-21,-155,c),
(-21,-390,l),
(16,-412,o),
(55,-424,o),
(127,-424,cs)
);
}
);
width = 653;
},
{
anchors = (
{
name = bottom;
pos = (298,-400);
},
{
name = top;
pos = (298,1120);
}
);
layerId = m003;
shapes = (
{
closed = 1;
nodes = (
(300,-424,o),
(403,-320,o),
(403,-121,cs),
(403,1120,l),
(211,1120,l),
(211,-99,ls),
(211,-212,o),
(170,-255,o),
(66,-255,cs),
(10,-255,o),
(-83,-242,o),
(-111,-226,c),
(-111,-395,l),
(-65,-412,o),
(14,-424,o),
(87,-424,cs)
);
}
);
width = 596;
},
{
anchors = (
{
name = bottom;
pos = (327,-400);
},
{
name = top;
pos = (339,1120);
}
);
layerId = m004;
shapes = (
{
closed = 1;
nodes = (
(353,-424,o),
(475,-315,o),
(475,-67,cs),
(475,1120,l),
(187,1120,l),
(187,-22,ls),
(187,-151,o),
(164,-184,o),
(79,-184,cs),
(30,-184,o),
(-29,-173,o),
(-51,-165,c),
(-51,-400,l),
(-14,-414,o),
(41,-424,o),
(114,-424,cs)
);
}
);
width = 653;
}
);
unicode = 567;
},
{
color = 5;
glyphname = k;
kernLeft = KO_h;
kernRight = KO_k;
lastChange = "2022-03-23 19:20:27 +0000";
layers = (
{
anchors = (
{
name = bottom;
pos = (574,0);
},
{
name = top;
pos = (574,1800);
}
);
background = {
shapes = (
{
closed = 1;
nodes = (
(561,593,l),
(1113,1120,l),
(857,1120,l),
(433,696,l),
(367,624,l),
(367,413,l)
);
},
{
closed = 1;
nodes = (
(367,0,l),
(367,1550,l),
(175,1550,l),
(175,0,l)
);
},
{
closed = 1;
nodes = (
(1123,0,l),
(645,718,l),
(513,590,l),
(893,0,l)
);
}
);
};
layerId = "FC837317-1536-49E4-8B36-958C77713550";
shapes = (
{
closed = 1;
nodes = (
(561,593,l),
(1113,1120,l),
(857,1120,l),
(433,676,l),
(367,604,l),
(367,393,l)
);
},
{
closed = 1;
nodes = (
(367,0,l),
(367,1550,l),
(175,1550,l),
(175,0,l)
);
},
{
closed = 1;
nodes = (
(1123,0,l),
(645,718,l),
(513,590,l),
(893,0,l)
);
}
);
width = 1148;
},
{
anchors = (
{
name = bottom;
pos = (627,0);
},
{
name = top;
pos = (627,1800);
}
);
layerId = m014;
shapes = (
{
closed = 1;
nodes = (
(651,564,l),
(1209,1120,l),
(857,1120,l),
(621,864,l),
(449,688,l),
(449,399,l)
);
},
{
closed = 1;
nodes = (
(449,0,l),
(449,1550,l),
(161,1550,l),
(161,0,l)
);
},
{
closed = 1;
nodes = (
(1239,0,l),
(735,766,l),
(537,586,l),
(911,0,l)
);
}
);
width = 1254;
},
{
anchors = (
{
name = bottom;
pos = (651,0);
},
{
name = top;
pos = (651,1800);
}
);
background = {
shapes = (
{
closed = 1;
nodes = (
(1088,1120,l),
(832,1120,l),
(326,614,l),
(326,392,l)
);
},
{
closed = 1;
nodes = (
(342,0,l),
(342,1550,l),
(150,1550,l),
(150,0,l)
);
},
{
closed = 1;
nodes = (
(1098,0,l),
(620,718,l),
(488,590,l),
(868,0,l)
);
}
);
};
layerId = m003;
shapes = (
{
closed = 1;
nodes = (
(637,634,l),
(1322,1120,l),
(1047,1120,l),
(277,580,l),
(367,624,l),
(367,447,l)
);
},
{
closed = 1;
nodes = (
(367,0,l),
(367,1550,l),
(175,1550,l),
(175,0,l)
);
},
{
closed = 1;
nodes = (
(1323,0,l),
(721,718,l),
(566,634,l),
(1083,0,l)
);
}
);
width = 1348;
},
{
anchors = (
{
name = bottom;
pos = (675,0);
},
{
name = top;
pos = (704,1800);
}
);
layerId = m004;
shapes = (
{
closed = 1;
nodes = (
(703,564,l),
(1418,1120,l),
(1047,1120,l),
(631,779,l),
(449,648,l),
(449,399,l)
);
},
{
closed = 1;
nodes = (
(449,0,l),
(449,1550,l),
(161,1550,l),
(161,0,l)
);
},
{
closed = 1;
nodes = (
(1439,0,l),
(811,766,l),
(603,610,l),
(1101,0,l)
);
}
);
width = 1454;
}
);
metricLeft = h;
unicode = 107;
userData = {
KernOnName = k;
};
},
{
color = 5;
glyphname = l;
kernLeft = KO_l;
kernRight = KO_l;
lastChange = "2022-03-23 19:20:27 +0000";
layers = (
{
anchors = (
{
name = bottom;
pos = (345,0);
},
{
name = center;
pos = (373,865);
},
{
name = top;
pos = (290,1550);
},
{
name = topright;
pos = (406,1550);
}
);
layerId = "FC837317-1536-49E4-8B36-958C77713550";
shapes = (
{
closed = 1;
nodes = (
(504,-21,o),
(570,-6,o),
(605,8,c),
(605,177,l),
(578,161,o),
(517,148,o),
(474,148,cs),
(406,148,o),
(373,183,o),
(373,297,cs),
(373,1550,l),
(181,1550,l),
(181,282,ls),
(181,72,o),
(265,-21,o),
(430,-21,cs)
);
}
);
width = 658;
},
{
anchors = (
{
name = bottom;
pos = (363,0);
},
{
name = center;
pos = (337,931);
},
{
name = top;
pos = (343,1550);
},
{
name = topright;
pos = (661,1550);
}
);
layerId = m014;
shapes = (
{
closed = 1;
nodes = (
(526,-32,o),
(601,-16,o),
(637,2,c),
(637,241,l),
(625,225,o),
(580,207,o),
(532,207,cs),
(474,207,o),
(449,237,o),
(449,347,cs),
(449,1551,l),
(161,1551,l),
(161,295,ls),
(161,66,o),
(274,-32,o),
(442,-32,cs)
);
}
);
width = 706;
},
{
anchors = (
{
name = bottom;
pos = (458,0);
},
{
name = center;
pos = (305,865);
},
{
name = top;
pos = (287,1550);
},
{
name = topright;
pos = (374,1550);
}
);
layerId = m003;
shapes = (
{
closed = 1;
nodes = (
(532,-21,o),
(616,1,o),
(655,22,c),
(655,191,l),
(622,167,o),
(548,148,o),
(496,148,cs),
(413,148,o),
(373,181,o),
(373,302,cs),
(373,1550,l),
(181,1550,l),
(181,282,ls),
(181,72,o),
(274,-21,o),
(458,-21,cs)
);
}
);
width = 688;
},
{
anchors = (
{
name = bottom;
pos = (363,0);
},
{
name = center;
pos = (363,968);
},
{
name = top;
pos = (443,1550);
},
{
name = topright;
pos = (691,1550);
}
);
layerId = m004;
shapes = (
{
closed = 1;
nodes = (
(596,-32,o),
(691,-11,o),
(736,11,c),
(736,256,l),
(709,237,o),
(650,207,o),
(569,207,cs),
(489,207,o),
(449,246,o),
(449,360,cs),
(449,1550,l),
(161,1550,l),
(161,309,ls),
(161,70,o),
(284,-32,o),
(483,-32,cs)
);
}
);
width = 766;
}
);
unicode = 108;
userData = {
KernOnName = l;
};
},
{
color = 5;
glyphname = m;
kernLeft = KO_n;
kernRight = KO_m;
lastChange = "2022-02-23 20:19:58 +0000";
layers = (
{
anchors = (
{
name = bottom;
pos = (948,0);
},
{
name = top;
pos = (948,1120);
}
);
background = {
shapes = (
{
closed = 1;
nodes = (
(1022,0,l),
(1022,814,ls),
(1022,1028,o),
(908,1152,o),
(714,1152,cs),
(584,1152,o),
(456,1098,o),
(342,994,c),
(342,836,l),
(464,938,o),
(568,984,o),
(670,984,cs),
(782,984,o),
(830,912,o),
(830,756,cs),
(830,0,l)
);
},
{
closed = 1;
nodes = (
(1702,0,l),
(1702,814,ls),
(1702,1028,o),
(1588,1152,o),
(1394,1152,cs),
(1264,1152,o),
(1136,1098,o),
(1022,994,c),
(1022,836,l),
(1144,938,o),
(1248,984,o),
(1350,984,cs),
(1462,984,o),
(1510,912,o),
(1510,756,cs),
(1510,0,l)
);
},
{
closed = 1;
nodes = (
(342,0,l),
(342,836,l),
(460,934,o),
(568,984,o),
(664,984,cs),
(780,984,o),
(830,916,o),
(830,756,cs),
(830,0,l),
(1022,0,l),
(1022,836,l),
(1140,934,o),
(1248,984,o),
(1344,984,cs),
(1460,984,o),
(1510,916,o),
(1510,756,cs),
(1510,0,l),
(1702,0,l),
(1702,814,ls),
(1702,1028,o),
(1588,1152,o),
(1394,1152,cs),
(1260,1152,o),
(1132,1094,o),
(996,974,c),
(994,974,l),
(952,1088,o),
(852,1152,o),
(714,1152,cs),
(584,1152,o),
(456,1098,o),
(342,994,c),
(342,1120,l),
(150,1120,l),
(150,0,l)
);
}
);
};
layerId = "FC837317-1536-49E4-8B36-958C77713550";
shapes = (
{
closed = 1;
nodes = (
(367,0,l),
(367,700,ls),
(367,873,o),
(460,984,o),
(639,984,cs),
(810,984,o),
(855,882,o),
(855,706,cs),
(855,0,l),
(1047,0,l),
(1047,794,ls),
(1047,1051,o),
(903,1152,o),
(714,1152,cs),
(538,1152,o),
(412,1064,o),
(367,934,c),
(361,934,l),
(367,969,o),
(367,978,o),
(367,1120,c),
(175,1120,l),
(175,0,l)
);
},
{
closed = 1;
nodes = (
(1727,0,l),
(1727,794,ls),
(1727,1029,o),
(1607,1152,o),
(1395,1152,cs),
(1220,1152,o),
(1085,1069,o),
(1034,934,c),
(981,934,l),
(1047,700,l),
(1047,873,o),
(1140,984,o),
(1319,984,cs),
(1490,984,o),
(1535,882,o),
(1535,706,cs),
(1535,0,l)
);
}
);
width = 1896;
},
{
anchors = (
{
name = bottom;
pos = (985,0);
},
{
name = top;
pos = (985,1120);
}
);
background = {
shapes = (
{
closed = 1;
nodes = (
(384,0,l),
(384,768,l),
(464,870,o),
(536,912,o),
(632,912,cs),
(754,912,o),
(804,846,o),
(804,680,cs),
(804,0,l),
(1092,0,l),
(1092,768,l),
(1172,870,o),
(1244,912,o),
(1340,912,cs),
(1462,912,o),
(1512,846,o),
(1512,680,cs),
(1512,0,l),
(1800,0,l),
(1800,812,ls),
(1800,1022,o),
(1662,1152,o),
(1438,1152,cs),
(1280,1152,o),
(1144,1088,o),
(1060,970,c),
(1058,970,l),
(1008,1084,o),
(882,1152,o),
(720,1152,cs),
(592,1152,o),
(482,1104,o),
(384,1006,c),
(384,1120,l),
(96,1120,l),
(96,0,l)
);
}
);
};
guides = (
{
pos = (2147,906);
}
);
layerId = m014;
shapes = (
{
closed = 1;
nodes = (
(449,0,l),
(449,576,ls),
(449,756,o),
(522,912,o),
(680,912,cs),
(830,912,o),
(849,770,o),
(849,620,cs),
(849,0,l),
(1137,0,l),
(1137,642,ls),
(1137,942,o),
(1086,1152,o),
(787,1152,cs),
(594,1152,o),
(476,1065,o),
(437,906,c),
(429,906,l),
(439,986,o),
(439,1054,o),
(439,1120,c),
(161,1120,l),
(161,0,l)
);
},
{
closed = 1;
nodes = (
(1825,0,l),
(1825,732,ls),
(1825,997,o),
(1727,1152,o),
(1472,1152,cs),
(1286,1152,o),
(1156,1069,o),
(1119,902,c),
(1111,902,l),
(1137,576,l),
(1137,756,o),
(1210,912,o),
(1368,912,cs),
(1518,912,o),
(1537,770,o),
(1537,620,cs),
(1537,0,l)
);
}
);
width = 1970;
},
{
anchors = (
{
name = bottom;
pos = (1049,0);
},
{
name = top;
pos = (1049,1120);
}
);
background = {
shapes = (
{
closed = 1;
nodes = (
(1022,0,l),
(1022,814,ls),
(1022,1028,o),
(908,1152,o),
(714,1152,cs),
(584,1152,o),
(456,1098,o),
(342,994,c),
(342,836,l),
(464,938,o),
(568,984,o),
(670,984,cs),
(782,984,o),
(830,912,o),
(830,756,cs),
(830,0,l)
);
},
{
closed = 1;
nodes = (
(1702,0,l),
(1702,814,ls),
(1702,1028,o),
(1588,1152,o),
(1394,1152,cs),
(1264,1152,o),
(1136,1098,o),
(1022,994,c),
(1022,836,l),
(1144,938,o),
(1248,984,o),
(1350,984,cs),
(1462,984,o),
(1510,912,o),
(1510,756,cs),
(1510,0,l)
);
},
{
closed = 1;
nodes = (
(342,0,l),
(342,836,l),
(460,934,o),
(568,984,o),
(664,984,cs),
(780,984,o),
(830,916,o),
(830,756,cs),
(830,0,l),
(1022,0,l),
(1022,836,l),
(1140,934,o),
(1248,984,o),
(1344,984,cs),
(1460,984,o),
(1510,916,o),
(1510,756,cs),
(1510,0,l),
(1702,0,l),
(1702,814,ls),
(1702,1028,o),
(1588,1152,o),
(1394,1152,cs),
(1260,1152,o),
(1132,1094,o),
(996,974,c),
(994,974,l),
(952,1088,o),
(852,1152,o),
(714,1152,cs),
(584,1152,o),
(456,1098,o),
(342,994,c),
(342,1120,l),
(150,1120,l),
(150,0,l)
);
}
);
};
layerId = m003;
shapes = (
{
closed = 1;
nodes = (
(367,0,l),
(367,700,ls),
(367,873,o),
(478,984,o),
(696,984,cs),
(881,984,o),
(955,904,o),
(955,706,cs),
(955,0,l),
(1147,0,l),
(1147,794,ls),
(1147,1036,o),
(996,1152,o),
(768,1152,cs),
(572,1152,o),
(424,1064,o),
(371,934,c),
(366,934,l),
(370,969,o),
(370,978,o),
(370,1120,c),
(175,1120,l),
(175,0,l)
);
},
{
closed = 1;
nodes = (
(1927,0,l),
(1927,794,ls),
(1927,1044,o),
(1769,1152,o),
(1549,1152,cs),
(1355,1152,o),
(1195,1068,o),
(1134,934,c),
(1059,934,l),
(1147,700,l),
(1147,873,o),
(1258,984,o),
(1476,984,cs),
(1661,984,o),
(1735,904,o),
(1735,706,cs),
(1735,0,l)
);
}
);
width = 2096;
},
{
anchors = (
{
name = bottom;
pos = (1086,0);
},
{
name = top;
pos = (1086,1120);
}
);
background = {
shapes = (
{
closed = 1;
nodes = (
(384,0,l),
(384,768,l),
(464,870,o),
(536,912,o),
(632,912,cs),
(754,912,o),
(804,846,o),
(804,680,cs),
(804,0,l),
(1092,0,l),
(1092,768,l),
(1172,870,o),
(1244,912,o),
(1340,912,cs),
(1462,912,o),
(1512,846,o),
(1512,680,cs),
(1512,0,l),
(1800,0,l),
(1800,812,ls),
(1800,1022,o),
(1662,1152,o),
(1438,1152,cs),
(1280,1152,o),
(1144,1088,o),
(1060,970,c),
(1058,970,l),
(1008,1084,o),
(882,1152,o),
(720,1152,cs),
(592,1152,o),
(482,1104,o),
(384,1006,c),
(384,1120,l),
(96,1120,l),
(96,0,l)
);
}
);
};
guides = (
{
pos = (2147,906);
}
);
layerId = m004;
shapes = (
{
closed = 1;
nodes = (
(449,0,l),
(449,576,ls),
(449,748,o),
(534,912,o),
(737,912,cs),
(909,912,o),
(949,795,o),
(949,620,cs),
(949,0,l),
(1237,0,l),
(1237,642,ls),
(1237,967,o),
(1156,1152,o),
(843,1152,cs),
(634,1152,o),
(489,1070,o),
(441,906,c),
(436,906,l),
(442,986,o),
(442,1054,o),
(442,1120,c),
(161,1120,l),
(161,0,l)
);
},
{
closed = 1;
nodes = (
(2025,0,l),
(2025,732,ls),
(2025,1008,o),
(1900,1152,o),
(1627,1152,cs),
(1415,1152,o),
(1262,1067,o),
(1214,906,c),
(1189,906,l),
(1237,576,l),
(1237,748,o),
(1322,912,o),
(1525,912,cs),
(1697,912,o),
(1737,795,o),
(1737,620,cs),
(1737,0,l)
);
}
);
width = 2170;
}
);
metricLeft = n;
metricRight = "=n";
unicode = 109;
},
{
color = 5;
glyphname = n;
kernLeft = KO_n;
kernRight = KO_n;
lastChange = "2022-03-23 19:20:27 +0000";
layers = (
{
anchors = (
{
name = bottom;
pos = (588,0);
},
{
name = top;
pos = (626,1152);
}
);
background = {
shapes = (
{
closed = 1;
nodes = (
(534,306,l),
(534,448,l),
(342,448,l),
(342,306,l)
);
},
{
closed = 1;
nodes = (
(726,336,l),
(726,416,l),
(534,416,l),
(534,336,l)
);
},
{
closed = 1;
nodes = (
(854,354,l),
(854,400,l),
(726,400,l),
(726,354,l)
);
},
{
closed = 1;
nodes = (
(134,0,l),
(134,192,l),
(-58,192,l),
(-58,0,l)
);
},
{
closed = 1;
nodes = (
(174,192,l),
(174,384,l),
(-18,384,l),
(-18,192,l)
);
},
{
closed = 1;
nodes = (
(134,384,l),
(134,576,l),
(-58,576,l),
(-58,384,l)
);
},
{
closed = 1;
nodes = (
(174,576,l),
(174,768,l),
(-18,768,l),
(-18,576,l)
);
},
{
closed = 1;
nodes = (
(134,768,l),
(134,960,l),
(-58,960,l),
(-58,768,l)
);
},
{
closed = 1;
nodes = (
(174,960,l),
(174,1120,l),
(-18,1120,l),
(-18,960,l)
);
},
{
closed = 1;
nodes = (
(226,1120,l),
(226,1152,l),
(34,1152,l),
(34,1120,l)
);
},
{
closed = 1;
nodes = (
(342,0,l),
(342,836,l),
(468,938,o),
(576,984,o),
(682,984,cs),
(800,984,o),
(854,914,o),
(854,756,cs),
(854,0,l),
(1046,0,l),
(1046,814,ls),
(1046,1028,o),
(928,1152,o),
(726,1152,cs),
(592,1152,o),
(460,1098,o),
(342,994,c),
(338,994,l),
(342,1032,o),
(342,1072,o),
(342,1120,c),
(150,1120,l),
(150,1048,o),
(150,974,o),
(150,902,c),
(150,0,l)
);
}
);
};
layerId = "FC837317-1536-49E4-8B36-958C77713550";
shapes = (
{
closed = 1;
nodes = (
(367,0,l),
(367,700,ls),
(367,878,o),
(476,984,o),
(660,984,cs),
(818,984,o),
(879,906,o),
(879,706,cs),
(879,0,l),
(1071,0,l),
(1071,794,ls),
(1071,1027,o),
(954,1152,o),
(736,1152,cs),
(558,1152,o),
(416,1068,o),
(367,934,c),
(360,934,l),
(366,963,o),
(367,982,o),
(367,1120,c),
(175,1120,l),
(175,0,l)
);
}
);
width = 1240;
},
{
associatedMasterId = "FC837317-1536-49E4-8B36-958C77713550";
layerId = "2E24A844-5F01-4DE2-B947-F8EB51F198C8";
name = N;
width = 1102;
},
{
associatedMasterId = "FC837317-1536-49E4-8B36-958C77713550";
layerId = "CEE766EC-36B9-4A84-B468-CBDB8ACA5BF7";
name = M;
width = 1102;
},
{
anchors = (
{
name = bottom;
pos = (636,0);
},
{
name = top;
pos = (706,1120);
}
);
layerId = m014;
shapes = (
{
closed = 1;
nodes = (
(449,0,l),
(449,556,ls),
(449,778,o),
(545,912,o),
(735,912,cs),
(864,912,o),
(899,850,o),
(899,640,cs),
(899,0,l),
(1187,0,l),
(1187,766,ls),
(1187,1023,o),
(1064,1152,o),
(820,1152,cs),
(626,1152,o),
(503,1073,o),
(433,906,c),
(425,906,l),
(436,978,o),
(439,1016,o),
(439,1120,c),
(161,1120,l),
(161,0,l)
);
}
);
width = 1332;
},
{
associatedMasterId = m014;
layerId = "898C5115-48A2-4BB1-968B-379AE02B7070";
name = N;
width = 1102;
},
{
associatedMasterId = m014;
layerId = "B18DA7A4-894A-486B-9966-06D3DE539BCD";
name = M;
width = 1102;
},
{
anchors = (
{
name = bottom;
pos = (722,0);
},
{
name = top;
pos = (782,1120);
}
);
background = {
shapes = (
{
closed = 1;
nodes = (
(534,306,l),
(534,448,l),
(342,448,l),
(342,306,l)
);
},
{
closed = 1;
nodes = (
(726,336,l),
(726,416,l),
(534,416,l),
(534,336,l)
);
},
{
closed = 1;
nodes = (
(854,354,l),
(854,400,l),
(726,400,l),
(726,354,l)
);
},
{
closed = 1;
nodes = (
(134,0,l),
(134,192,l),
(-58,192,l),
(-58,0,l)
);
},
{
closed = 1;
nodes = (
(174,192,l),
(174,384,l),
(-18,384,l),
(-18,192,l)
);
},
{
closed = 1;
nodes = (
(134,384,l),
(134,576,l),
(-58,576,l),
(-58,384,l)
);
},
{
closed = 1;
nodes = (
(174,576,l),
(174,768,l),
(-18,768,l),
(-18,576,l)
);
},
{
closed = 1;
nodes = (
(134,768,l),
(134,960,l),
(-58,960,l),
(-58,768,l)
);
},
{
closed = 1;
nodes = (
(174,960,l),
(174,1120,l),
(-18,1120,l),
(-18,960,l)
);
},
{
closed = 1;
nodes = (
(226,1120,l),
(226,1152,l),
(34,1152,l),
(34,1120,l)
);
},
{
closed = 1;
nodes = (
(342,0,l),
(342,836,l),
(468,938,o),
(576,984,o),
(682,984,cs),
(800,984,o),
(854,914,o),
(854,756,cs),
(854,0,l),
(1046,0,l),
(1046,814,ls),
(1046,1028,o),
(928,1152,o),
(726,1152,cs),
(592,1152,o),
(460,1098,o),
(342,994,c),
(338,994,l),
(342,1032,o),
(342,1072,o),
(342,1120,c),
(150,1120,l),
(150,1048,o),
(150,974,o),
(150,902,c),
(150,0,l)
);
}
);
};
layerId = m003;
shapes = (
{
closed = 1;
nodes = (
(367,0,l),
(367,700,ls),
(367,879,o),
(517,984,o),
(768,984,cs),
(990,984,o),
(1079,902,o),
(1079,706,cs),
(1079,0,l),
(1271,0,l),
(1271,774,ls),
(1271,1023,o),
(1130,1152,o),
(850,1152,cs),
(619,1152,o),
(427,1064,o),
(377,934,c),
(372,934,l),
(373,949,o),
(373,947,o),
(373,1120,c),
(175,1120,l),
(175,0,l)
);
}
);
width = 1440;
},
{
associatedMasterId = m003;
layerId = "1AABE261-5AD2-44CF-8A6F-83682435179A";
name = N;
width = 1102;
},
{
associatedMasterId = m003;
layerId = "A32861D9-0480-4443-8634-843CB91A36DE";
name = M;
width = 1102;
},
{
anchors = (
{
name = bottom;
pos = (768,0);
},
{
name = top;
pos = (853,1120);
}
);
layerId = m004;
shapes = (
{
closed = 1;
nodes = (
(449,0,l),
(449,556,ls),
(449,792,o),
(576,912,o),
(828,912,cs),
(1031,912,o),
(1099,834,o),
(1099,600,cs),
(1099,0,l),
(1387,0,l),
(1387,726,ls),
(1387,1011,o),
(1236,1152,o),
(930,1152,cs),
(686,1152,o),
(509,1063,o),
(443,906,c),
(438,906,l),
(444,977,o),
(445,1005,o),
(445,1120,c),
(161,1120,l),
(161,0,l)
);
}
);
width = 1532;
},
{
associatedMasterId = m004;
layerId = "3D61BFE3-C021-4764-BC43-DC2481E273E2";
name = N;
width = 1102;
},
{
associatedMasterId = m004;
layerId = "A5F7F1CE-934D-497D-BEF9-2E9DAA112C62";
name = M;
width = 1102;
}
);
unicode = 110;
userData = {
KernOnName = n;
};
},
{
color = 3;
glyphname = eng;
lastChange = "2022-03-23 21:56:02 +0000";
layers = (
{
layerId = "FC837317-1536-49E4-8B36-958C77713550";
shapes = (
{
closed = 1;
nodes = (
(966,-424,o),
(1071,-320,o),
(1071,-121,cs),
(1071,794,ls),
(1071,1027,o),
(954,1152,o),
(736,1152,cs),
(558,1152,o),
(416,1068,o),
(367,934,c),
(360,934,l),
(366,963,o),
(367,982,o),
(367,1120,c),
(175,1120,l),
(175,0,l),
(367,0,l),
(367,700,ls),
(367,878,o),
(476,984,o),
(660,984,cs),
(818,984,o),
(879,906,o),
(879,706,cs),
(879,-99,ls),
(879,-208,o),
(836,-255,o),
(738,-255,cs),
(686,-255,o),
(625,-242,o),
(597,-226,c),
(587,-395,l),
(633,-412,o),
(692,-424,o),
(761,-424,cs)
);
}
);
width = 1240;
},
{
layerId = m014;
shapes = (
{
closed = 1;
nodes = (
(1065,-423,o),
(1187,-308,o),
(1187,-66,cs),
(1187,766,ls),
(1187,1023,o),
(1064,1152,o),
(820,1152,cs),
(626,1152,o),
(503,1073,o),
(433,906,c),
(425,906,l),
(436,978,o),
(439,1016,o),
(439,1120,c),
(161,1120,l),
(161,0,l),
(449,0,l),
(449,556,ls),
(449,778,o),
(545,912,o),
(735,912,cs),
(864,912,o),
(899,850,o),
(899,640,cs),
(899,-21,ls),
(899,-144,o),
(876,-183,o),
(799,-183,cs),
(748,-183,o),
(710,-166,o),
(691,-154,c),
(691,-389,l),
(728,-411,o),
(767,-423,o),
(839,-423,cs)
);
}
);
width = 1332;
},
{
layerId = m003;
shapes = (
{
closed = 1;
nodes = (
(1168,-424,o),
(1271,-320,o),
(1271,-121,cs),
(1271,774,ls),
(1271,1023,o),
(1130,1152,o),
(850,1152,cs),
(619,1152,o),
(427,1064,o),
(377,934,c),
(372,934,l),
(373,949,o),
(373,947,o),
(373,1120,c),
(175,1120,l),
(175,0,l),
(367,0,l),
(367,700,ls),
(367,879,o),
(517,984,o),
(768,984,cs),
(990,984,o),
(1079,902,o),
(1079,706,cs),
(1079,-99,ls),
(1079,-212,o),
(1038,-255,o),
(934,-255,cs),
(878,-255,o),
(785,-242,o),
(757,-226,c),
(757,-395,l),
(803,-412,o),
(882,-424,o),
(955,-424,cs)
);
}
);
width = 1440;
},
{
layerId = m004;
shapes = (
{
closed = 1;
nodes = (
(1265,-424,o),
(1387,-315,o),
(1387,-67,cs),
(1387,726,ls),
(1387,1011,o),
(1236,1152,o),
(930,1152,cs),
(686,1152,o),
(509,1063,o),
(443,906,c),
(438,906,l),
(444,977,o),
(445,1005,o),
(445,1120,c),
(161,1120,l),
(161,0,l),
(449,0,l),
(449,556,ls),
(449,792,o),
(576,912,o),
(828,912,cs),
(1031,912,o),
(1099,834,o),
(1099,600,cs),
(1099,-22,ls),
(1099,-151,o),
(1076,-184,o),
(991,-184,cs),
(942,-184,o),
(883,-173,o),
(861,-165,c),
(861,-400,l),
(898,-414,o),
(953,-424,o),
(1026,-424,cs)
);
}
);
width = 1532;
}
);
metricLeft = n;
metricRight = n;
unicode = 331;
},
{
color = 5;
glyphname = o;
kernLeft = KO_o;
kernRight = KO_o;
lastChange = "2022-03-23 19:20:27 +0000";
layers = (
{
anchors = (
{
name = bottom;
pos = (611,0);
},
{
name = center;
pos = (611,560);
},
{
name = ogonek;
pos = (746,0);
},
{
name = top;
pos = (615,1152);
},
{
name = topright;
pos = (1187,1120);
}
);
background = {
shapes = (
{
closed = 1;
nodes = (
(326,0,l),
(326,836,l),
(452,938,o),
(560,984,o),
(666,984,cs),
(786,984,o),
(838,912,o),
(838,756,cs),
(838,0,l),
(1030,0,l),
(1030,814,ls),
(1030,1028,o),
(912,1152,o),
(710,1152,cs),
(576,1152,o),
(444,1098,o),
(326,994,c),
(326,1028,o),
(326,1070,o),
(326,1120,c),
(134,1120,l),
(134,1048,o),
(134,974,o),
(134,902,c),
(134,0,l)
);
},
{
closed = 1;
nodes = (
(934,740,l),
(934,774,l),
(262,774,l),
(262,740,l)
);
}
);
};
layerId = "FC837317-1536-49E4-8B36-958C77713550";
shapes = (
{
closed = 1;
nodes = (
(921,-32,o),
(1125,205,o),
(1125,558,cs),
(1125,913,o),
(919,1152,o),
(615,1152,cs),
(309,1152,o),
(97,909,o),
(97,558,cs),
(97,208,o),
(308,-32,o),
(615,-32,cs)
);
},
{
closed = 1;
nodes = (
(403,136,o),
(295,280,o),
(295,558,cs),
(295,836,o),
(405,984,o),
(611,984,cs),
(818,984,o),
(927,838,o),
(927,558,cs),
(927,280,o),
(819,136,o),
(611,136,cs)
);
}
);
width = 1222;
},
{
anchors = (
{
name = bottom;
pos = (632,12);
},
{
name = center;
pos = (632,560);
},
{
name = ogonek;
pos = (788,10);
},
{
name = top;
pos = (633,1120);
},
{
name = topright;
pos = (1229,1120);
}
);
layerId = m014;
shapes = (
{
closed = 1;
nodes = (
(961,-32,o),
(1179,204,o),
(1179,558,cs),
(1179,914,o),
(960,1152,o),
(633,1152,cs),
(306,1152,o),
(85,912,o),
(85,558,cs),
(85,205,o),
(305,-32,o),
(633,-32,cs)
);
},
{
closed = 1;
nodes = (
(482,208,o),
(379,300,o),
(379,558,cs),
(379,816,o),
(483,912,o),
(631,912,cs),
(781,912,o),
(885,817,o),
(885,558,cs),
(885,299,o),
(782,208,o),
(631,208,cs)
);
}
);
width = 1264;
},
{
anchors = (
{
name = bottom;
pos = (711,0);
},
{
name = center;
pos = (711,560);
},
{
name = ogonek;
pos = (1287,10);
},
{
name = top;
pos = (717,1120);
},
{
name = topright;
pos = (1406,1120);
}
);
background = {
shapes = (
{
closed = 1;
nodes = (
(326,0,l),
(326,836,l),
(452,938,o),
(560,984,o),
(666,984,cs),
(786,984,o),
(838,912,o),
(838,756,cs),
(838,0,l),
(1030,0,l),
(1030,814,ls),
(1030,1028,o),
(912,1152,o),
(710,1152,cs),
(576,1152,o),
(444,1098,o),
(326,994,c),
(326,1028,o),
(326,1070,o),
(326,1120,c),
(134,1120,l),
(134,1048,o),
(134,974,o),
(134,902,c),
(134,0,l)
);
},
{
closed = 1;
nodes = (
(934,740,l),
(934,774,l),
(262,774,l),
(262,740,l)
);
}
);
};
layerId = m003;
shapes = (
{
closed = 1;
nodes = (
(1081,-32,o),
(1325,205,o),
(1325,558,cs),
(1325,913,o),
(1078,1152,o),
(717,1152,cs),
(353,1152,o),
(97,909,o),
(97,558,cs),
(97,208,o),
(351,-32,o),
(717,-32,cs)
);
},
{
closed = 1;
nodes = (
(431,136,o),
(296,280,o),
(296,557,cs),
(296,836,o),
(433,984,o),
(712,984,cs),
(990,984,o),
(1126,838,o),
(1126,558,cs),
(1126,280,o),
(991,136,o),
(711,136,cs)
);
}
);
width = 1422;
},
{
anchors = (
{
name = bottom;
pos = (732,0);
},
{
name = center;
pos = (732,560);
},
{
name = ogonek;
pos = (895,0);
},
{
name = top;
pos = (732,1120);
},
{
name = topright;
pos = (1448,1120);
}
);
layerId = m004;
shapes = (
{
closed = 1;
nodes = (
(1121,-32,o),
(1379,204,o),
(1379,558,cs),
(1379,913,o),
(1120,1152,o),
(735,1152,cs),
(349,1152,o),
(85,911,o),
(85,558,cs),
(85,206,o),
(347,-32,o),
(735,-32,cs)
);
},
{
closed = 1;
nodes = (
(491,208,o),
(380,318,o),
(380,558,cs),
(380,798,o),
(494,912,o),
(733,912,cs),
(972,912,o),
(1084,799,o),
(1084,558,cs),
(1084,319,o),
(972,208,o),
(731,208,cs)
);
}
);
width = 1464;
}
);
unicode = 111;
userData = {
KernOnName = o;
};
},
{
color = 5;
glyphname = p;
kernLeft = KO_p;
kernRight = KO_p;
lastChange = "2022-02-23 20:19:52 +0000";
layers = (
{
anchors = (
{
name = bottom;
pos = (651,0);
},
{
name = top;
pos = (651,1120);
}
);
layerId = "FC837317-1536-49E4-8B36-958C77713550";
shapes = (
{
closed = 1;
nodes = (
(367,-400,l),
(367,101,o),
(366,150,o),
(362,186,c),
(368,186,l),
(433,46,o),
(564,-32,o),
(733,-32,cs),
(1024,-32,o),
(1209,201,o),
(1209,555,cs),
(1209,917,o),
(1016,1150,o),
(725,1150,cs),
(557,1150,o),
(439,1073,o),
(368,922,c),
(362,922,l),
(362,949,o),
(363,977,o),
(367,1120,c),
(175,1120,l),
(175,-400,l)
);
},
{
closed = 1;
nodes = (
(496,136,o),
(357,294,o),
(357,556,cs),
(357,560,ls),
(357,828,o),
(492,982,o),
(709,982,cs),
(915,982,o),
(1011,844,o),
(1011,563,cs),
(1011,274,o),
(910,136,o),
(710,136,cs)
);
}
);
width = 1306;
},
{
anchors = (
{
name = bottom;
pos = (689,0);
},
{
name = top;
pos = (689,1120);
}
);
background = {
anchors = (
{
name = bottom;
pos = (627,0);
},
{
name = top;
pos = (627,1120);
}
);
shapes = (
{
closed = 1;
nodes = (
(411,0,l),
(411,666,ls),
(411,802,o),
(523,912,o),
(675,912,cs),
(746,912,o),
(799,888,o),
(828,848,cs),
(856,809,o),
(867,752,o),
(867,620,cs),
(867,0,l),
(1155,0,l),
(1155,732,ls),
(1155,893,o),
(1126,993,o),
(1060,1059,cs),
(998,1121,o),
(908,1152,o),
(793,1152,cs),
(599,1152,o),
(469,1063,o),
(405,886,c),
(401,886,l),
(409,973,o),
(411,1024,o),
(411,1120,c),
(123,1120,l),
(123,1048,o),
(123,974,o),
(123,902,c),
(123,0,l)
);
}
);
};
layerId = m014;
shapes = (
{
closed = 1;
nodes = (
(449,-400,l),
(449,-239,o),
(443,54,o),
(436,194,c),
(443,194,l),
(480,53,o),
(608,-32,o),
(786,-32,cs),
(1083,-32,o),
(1280,204,o),
(1280,562,cs),
(1280,919,o),
(1085,1152,o),
(787,1152,cs),
(606,1152,o),
(476,1066,o),
(443,926,c),
(435,926,l),
(445,985,o),
(449,1043,o),
(449,1120,c),
(161,1120,l),
(161,-400,l)
);
},
{
closed = 1;
nodes = (
(571,208,o),
(449,342,o),
(449,514,cs),
(449,606,ls),
(449,778,o),
(571,912,o),
(726,912,cs),
(883,912,o),
(986,773,o),
(986,559,cs),
(986,346,o),
(884,208,o),
(726,208,cs)
);
}
);
width = 1365;
},
{
anchors = (
{
name = bottom;
pos = (737,0);
},
{
name = top;
pos = (737,1120);
}
);
layerId = m003;
shapes = (
{
closed = 1;
nodes = (
(367,-400,l),
(367,144,o),
(367,163,o),
(365,186,c),
(370,186,l),
(463,45,o),
(625,-32,o),
(830,-32,cs),
(1183,-32,o),
(1409,197,o),
(1409,553,cs),
(1409,915,o),
(1175,1150,o),
(816,1150,cs),
(619,1150,o),
(479,1079,o),
(370,922,c),
(365,922,l),
(362,945,o),
(362,980,o),
(367,1120,c),
(175,1120,l),
(175,-400,l)
);
},
{
closed = 1;
nodes = (
(527,136,o),
(350,296,o),
(350,556,cs),
(350,560,ls),
(350,827,o),
(521,982,o),
(815,982,cs),
(1086,982,o),
(1210,851,o),
(1210,563,cs),
(1210,273,o),
(1084,136,o),
(816,136,cs)
);
}
);
width = 1506;
},
{
anchors = (
{
name = bottom;
pos = (775,0);
},
{
name = top;
pos = (775,1120);
}
);
background = {
anchors = (
{
name = bottom;
pos = (627,0);
},
{
name = top;
pos = (627,1120);
}
);
shapes = (
{
closed = 1;
nodes = (
(411,0,l),
(411,666,ls),
(411,802,o),
(523,912,o),
(675,912,cs),
(746,912,o),
(799,888,o),
(828,848,cs),
(856,809,o),
(867,752,o),
(867,620,cs),
(867,0,l),
(1155,0,l),
(1155,732,ls),
(1155,893,o),
(1126,993,o),
(1060,1059,cs),
(998,1121,o),
(908,1152,o),
(793,1152,cs),
(599,1152,o),
(469,1063,o),
(405,886,c),
(401,886,l),
(409,973,o),
(411,1024,o),
(411,1120,c),
(123,1120,l),
(123,1048,o),
(123,974,o),
(123,902,c),
(123,0,l)
);
}
);
};
layerId = m004;
shapes = (
{
closed = 1;
nodes = (
(449,-400,l),
(449,-254,o),
(446,60,o),
(441,194,c),
(446,194,l),
(512,45,o),
(676,-32,o),
(883,-32,cs),
(1245,-32,o),
(1480,203,o),
(1480,560,cs),
(1480,920,o),
(1241,1152,o),
(880,1152,cs),
(662,1152,o),
(512,1067,o),
(446,926,c),
(441,926,l),
(445,999,o),
(447,1043,o),
(449,1120,c),
(161,1120,l),
(161,-400,l)
);
},
{
closed = 1;
nodes = (
(608,208,o),
(442,338,o),
(442,514,cs),
(442,606,ls),
(442,782,o),
(605,912,o),
(830,912,cs),
(1066,912,o),
(1185,768,o),
(1185,561,cs),
(1185,352,o),
(1064,208,o),
(830,208,cs)
);
}
);
width = 1565;
}
);
metricLeft = n;
metricRight = o;
unicode = 112;
},
{
color = 5;
glyphname = thorn;
kernLeft = KO_h;
kernRight = KO_p;
lastChange = "2022-03-14 21:04:35 +0000";
layers = (
{
anchors = (
{
name = bottom;
pos = (651,0);
},
{
name = top;
pos = (651,1120);
}
);
layerId = "FC837317-1536-49E4-8B36-958C77713550";
shapes = (
{
closed = 1;
nodes = (
(367,-400,l),
(367,101,o),
(366,150,o),
(362,186,c),
(368,186,l),
(433,46,o),
(564,-32,o),
(733,-32,cs),
(1024,-32,o),
(1209,201,o),
(1209,555,cs),
(1209,917,o),
(1016,1150,o),
(725,1150,cs),
(557,1150,o),
(439,1073,o),
(368,922,c),
(362,922,l),
(362,1008,o),
(363,1096,o),
(367,1550,c),
(175,1550,l),
(175,-400,l)
);
},
{
closed = 1;
nodes = (
(496,136,o),
(357,294,o),
(357,556,cs),
(357,560,ls),
(357,828,o),
(492,982,o),
(709,982,cs),
(915,982,o),
(1011,844,o),
(1011,563,cs),
(1011,274,o),
(910,136,o),
(710,136,cs)
);
}
);
width = 1306;
},
{
anchors = (
{
name = bottom;
pos = (689,0);
},
{
name = top;
pos = (689,1120);
}
);
layerId = m014;
shapes = (
{
closed = 1;
nodes = (
(449,-400,l),
(449,-239,o),
(443,54,o),
(436,194,c),
(443,194,l),
(480,53,o),
(608,-32,o),
(786,-32,cs),
(1083,-32,o),
(1280,204,o),
(1280,562,cs),
(1280,919,o),
(1085,1152,o),
(787,1152,cs),
(606,1152,o),
(476,1066,o),
(443,926,c),
(435,926,l),
(445,1116,o),
(449,1302,o),
(449,1550,c),
(161,1550,l),
(161,-400,l)
);
},
{
closed = 1;
nodes = (
(571,208,o),
(449,342,o),
(449,514,cs),
(449,606,ls),
(449,778,o),
(571,912,o),
(726,912,cs),
(883,912,o),
(986,773,o),
(986,559,cs),
(986,346,o),
(884,208,o),
(726,208,cs)
);
}
);
width = 1365;
},
{
anchors = (
{
name = bottom;
pos = (737,0);
},
{
name = top;
pos = (737,1120);
}
);
layerId = m003;
shapes = (
{
closed = 1;
nodes = (
(367,-400,l),
(367,144,o),
(367,163,o),
(365,186,c),
(370,186,l),
(463,45,o),
(625,-32,o),
(830,-32,cs),
(1183,-32,o),
(1409,197,o),
(1409,553,cs),
(1409,915,o),
(1175,1150,o),
(816,1150,cs),
(619,1150,o),
(479,1079,o),
(370,922,c),
(365,922,l),
(362,995,o),
(362,1106,o),
(367,1550,c),
(175,1550,l),
(175,-400,l)
);
},
{
closed = 1;
nodes = (
(527,136,o),
(350,296,o),
(350,556,cs),
(350,560,ls),
(350,827,o),
(521,982,o),
(815,982,cs),
(1086,982,o),
(1210,851,o),
(1210,563,cs),
(1210,273,o),
(1084,136,o),
(816,136,cs)
);
}
);
width = 1506;
},
{
anchors = (
{
name = bottom;
pos = (775,0);
},
{
name = top;
pos = (775,1120);
}
);
layerId = m004;
shapes = (
{
closed = 1;
nodes = (
(449,-400,l),
(449,-254,o),
(446,60,o),
(441,194,c),
(446,194,l),
(512,45,o),
(676,-32,o),
(883,-32,cs),
(1245,-32,o),
(1480,203,o),
(1480,560,cs),
(1480,920,o),
(1241,1152,o),
(880,1152,cs),
(662,1152,o),
(512,1067,o),
(446,926,c),
(441,926,l),
(445,1161,o),
(447,1302,o),
(449,1550,c),
(161,1550,l),
(161,-400,l)
);
},
{
closed = 1;
nodes = (
(608,208,o),
(442,338,o),
(442,514,cs),
(442,606,ls),
(442,782,o),
(605,912,o),
(830,912,cs),
(1066,912,o),
(1185,768,o),
(1185,561,cs),
(1185,352,o),
(1064,208,o),
(830,208,cs)
);
}
);
width = 1565;
}
);
unicode = 254;
},
{
color = 5;
glyphname = q;
kernLeft = KO_d;
kernRight = KO_q;
lastChange = "2022-02-24 18:46:33 +0000";
layers = (
{
anchors = (
{
name = bottom;
pos = (655,0);
},
{
name = top;
pos = (655,1120);
}
);
layerId = "FC837317-1536-49E4-8B36-958C77713550";
shapes = (
{
closed = 1;
nodes = (
(1131,-400,l),
(1131,1120,l),
(954,1120,l),
(948,999,o),
(944,975,o),
(944,952,c),
(938,952,l),
(868,1082,o),
(747,1150,o),
(586,1150,cs),
(288,1150,o),
(97,917,o),
(97,556,cs),
(97,201,o),
(282,-32,o),
(573,-32,cs),
(742,-32,o),
(873,46,o),
(938,186,c),
(944,186,l),
(940,150,o),
(939,101,o),
(939,-400,c)
);
},
{
closed = 1;
nodes = (
(396,136,o),
(295,274,o),
(295,563,cs),
(295,844,o),
(391,982,o),
(597,982,cs),
(814,982,o),
(949,828,o),
(949,560,cs),
(949,556,ls),
(949,294,o),
(810,136,o),
(596,136,cs)
);
}
);
width = 1306;
},
{
anchors = (
{
name = bottom;
pos = (677,0);
},
{
name = top;
pos = (677,1120);
}
);
layerId = m014;
shapes = (
{
closed = 1;
nodes = (
(1204,-400,l),
(1204,1120,l),
(940,1120,l),
(934,1071,o),
(930,997,o),
(930,926,c),
(922,926,l),
(848,1082,o),
(743,1152,o),
(580,1152,cs),
(281,1152,o),
(85,917,o),
(85,558,cs),
(85,200,o),
(279,-32,o),
(577,-32,cs),
(747,-32,o),
(863,45,o),
(919,194,c),
(926,194,l),
(919,-35,o),
(916,-196,o),
(916,-400,c)
);
},
{
closed = 1;
nodes = (
(481,208,o),
(379,347,o),
(379,560,cs),
(379,773,o),
(481,912,o),
(639,912,cs),
(794,912,o),
(916,778,o),
(916,606,cs),
(916,514,ls),
(916,342,o),
(794,208,o),
(639,208,cs)
);
}
);
width = 1365;
},
{
anchors = (
{
name = bottom;
pos = (768,0);
},
{
name = top;
pos = (768,1120);
}
);
layerId = m003;
shapes = (
{
closed = 1;
nodes = (
(1331,-400,l),
(1331,1120,l),
(1153,1120,l),
(1146,999,o),
(1141,975,o),
(1141,952,c),
(1136,952,l),
(1051,1078,o),
(894,1150,o),
(693,1150,cs),
(331,1150,o),
(97,917,o),
(97,555,cs),
(97,201,o),
(321,-32,o),
(676,-32,cs),
(879,-32,o),
(1051,46,o),
(1136,186,c),
(1141,186,l),
(1139,150,o),
(1139,101,o),
(1139,-400,c)
);
},
{
closed = 1;
nodes = (
(422,136,o),
(296,273,o),
(296,563,cs),
(296,845,o),
(414,982,o),
(691,982,cs),
(984,982,o),
(1156,828,o),
(1156,560,cs),
(1156,556,ls),
(1156,294,o),
(977,136,o),
(690,136,cs)
);
}
);
width = 1506;
},
{
anchors = (
{
name = bottom;
pos = (790,0);
},
{
name = top;
pos = (790,1120);
}
);
layerId = m004;
shapes = (
{
closed = 1;
nodes = (
(1404,-400,l),
(1404,1120,l),
(1139,1120,l),
(1130,1064,o),
(1124,991,o),
(1124,926,c),
(1119,926,l),
(1034,1067,o),
(901,1152,o),
(685,1152,cs),
(326,1152,o),
(85,918,o),
(85,557,cs),
(85,200,o),
(320,-32,o),
(678,-32,cs),
(892,-32,o),
(1045,51,o),
(1119,194,c),
(1124,194,l),
(1118,-10,o),
(1116,-190,o),
(1116,-400,c)
);
},
{
closed = 1;
nodes = (
(501,208,o),
(380,352,o),
(380,561,cs),
(380,768,o),
(499,912,o),
(735,912,cs),
(960,912,o),
(1123,782,o),
(1123,606,cs),
(1123,514,ls),
(1123,338,o),
(957,208,o),
(735,208,cs)
);
}
);
width = 1565;
}
);
metricLeft = "=d";
metricRight = "=|n";
unicode = 113;
},
{
color = 5;
glyphname = r;
kernLeft = KO_n;
kernRight = KO_r;
lastChange = "2022-03-23 19:28:35 +0000";
layers = (
{
anchors = (
{
name = bottom;
pos = (480,0);
},
{
name = top;
pos = (469,1120);
}
);
background = {
shapes = (
{
closed = 1;
nodes = (
(367,0,l),
(367,724,l),
(449,889,o),
(548,968,o),
(680,984,cs),
(720,989,o),
(756,988,o),
(843,978,c),
(756,943,l),
(767,1221,l),
(801,1173,l),
(579,1198,o),
(444,1088,o),
(358,875,c),
(354,875,l),
(354,992,o),
(353,1017,o),
(350,1120,c),
(175,1120,l),
(175,0,l)
);
}
);
};
layerId = "FC837317-1536-49E4-8B36-958C77713550";
shapes = (
{
closed = 1;
nodes = (
(367,0,l),
(367,724,l),
(451,888,o),
(553,987,o),
(724,987,cs),
(790,987,o),
(860,972,o),
(907,955,c),
(756,943,l),
(767,1221,l),
(801,1173,l),
(579,1198,o),
(444,1093,o),
(358,889,c),
(352,889,l),
(352,999,o),
(352,1023,o),
(349,1120,c),
(175,1120,l),
(175,0,l)
);
}
);
width = 772;
},
{
anchors = (
{
name = bottom;
pos = (518,0);
},
{
name = top;
pos = (490,1120);
}
);
layerId = m014;
shapes = (
{
closed = 1;
nodes = (
(449,0,l),
(449,722,l),
(510,832,o),
(666,888,o),
(787,888,cs),
(836,888,o),
(882,879,o),
(907,865,c),
(839,835,l),
(862,1231,l),
(884,1183,l),
(657,1206,o),
(527,1117,o),
(443,908,c),
(436,908,l),
(436,978,o),
(432,1050,o),
(428,1120,c),
(161,1120,l),
(161,0,l)
);
}
);
width = 888;
},
{
anchors = (
{
name = bottom;
pos = (519,0);
},
{
name = top;
pos = (519,1120);
}
);
layerId = m003;
shapes = (
{
closed = 1;
nodes = (
(367,0,l),
(367,724,l),
(527,927,o),
(635,984,o),
(863,984,cs),
(929,984,o),
(960,979,o),
(1042,957,c),
(952,945,l),
(986,1221,l),
(1008,1165,l),
(703,1193,o),
(490,1103,o),
(351,889,c),
(345,889,l),
(343,963,o),
(338,1039,o),
(328,1120,c),
(175,1120,l),
(175,0,l)
);
}
);
width = 972;
},
{
anchors = (
{
name = bottom;
pos = (601,0);
},
{
name = top;
pos = (573,1120);
}
);
layerId = m004;
shapes = (
{
closed = 1;
nodes = (
(449,0,l),
(449,722,l),
(544,825,o),
(708,910,o),
(893,910,cs),
(972,910,o),
(1014,900,o),
(1076,885,c),
(1034,839,l),
(1059,1231,l),
(1088,1184,l),
(762,1204,o),
(564,1116,o),
(436,910,c),
(430,910,l),
(428,980,o),
(422,1060,o),
(409,1120,c),
(161,1120,l),
(161,0,l)
);
}
);
width = 1088;
}
);
metricLeft = n;
unicode = 114;
userData = {
KernOnName = r;
};
},
{
color = 4;
glyphname = s;
kernLeft = KO_s;
kernRight = KO_s;
lastChange = "2022-03-23 19:29:58 +0000";
layers = (
{
anchors = (
{
name = bottom;
pos = (502,0);
},
{
name = top;
pos = (507,1152);
}
);
background = {
shapes = (
{
closed = 1;
nodes = (
(732,-32,o),
(925,91,o),
(925,297,cs),
(925,474,o),
(782,549,o),
(601,630,cs),
(411,715,o),
(310,761,o),
(310,852,cs),
(310,939,o),
(401,984,o),
(513,984,cs),
(723,984,o),
(798,825,o),
(795,833,c),
(769,796,l),
(915,1019,l),
(900,964,l),
(856,1051,o),
(712,1152,o),
(511,1152,cs),
(282,1152,o),
(118,1022,o),
(118,846,cs),
(118,670,o),
(282,577,o),
(472,495,cs),
(642,422,o),
(733,379,o),
(733,284,cs),
(733,178,o),
(618,136,o),
(521,136,cs),
(236,136,o),
(15,491,o),
(168,304,c),
(193,340,l),
(62,91,l),
(61,153,l),
(179,26,o),
(355,-32,o),
(508,-32,cs)
);
}
);
};
layerId = "FC837317-1536-49E4-8B36-958C77713550";
shapes = (
{
closed = 1;
nodes = (
(751,-32,o),
(925,104,o),
(925,304,cs),
(925,446,o),
(838,519,o),
(601,630,cs),
(373,737,o),
(310,768,o),
(310,846,cs),
(310,942,o),
(405,984,o),
(507,984,cs),
(624,984,o),
(731,928,o),
(795,836,c),
(890,981,l),
(825,1083,o),
(671,1152,o),
(507,1152,cs),
(283,1152,o),
(118,1023,o),
(118,843,cs),
(118,687,o),
(242,600,o),
(472,495,cs),
(665,407,o),
(733,376,o),
(733,290,cs),
(733,180,o),
(620,136,o),
(527,136,cs),
(404,136,o),
(249,214,o),
(171,289,c),
(84,130,l),
(191,29,o),
(349,-32,o),
(510,-32,cs)
);
}
);
width = 1004;
},
{
anchors = (
{
name = bottom;
pos = (539,0);
},
{
name = top;
pos = (539,1120);
}
);
background = {
shapes = (
{
closed = 1;
nodes = (
(798,-30,o),
(968,101,o),
(968,310,cs),
(968,469,o),
(868,572,o),
(626,663,cs),
(465,724,o),
(398,775,o),
(398,836,cs),
(398,891,o),
(446,918,o),
(540,918,cs),
(649,918,o),
(720,884,o),
(812,786,c),
(927,1006,l),
(831,1098,o),
(686,1150,o),
(526,1150,cs),
(273,1150,o),
(114,1027,o),
(114,832,cs),
(114,669,o),
(226,543,o),
(446,460,cs),
(624,392,o),
(680,351,o),
(680,288,cs),
(680,229,o),
(628,200,o),
(523,200,cs),
(391,200,o),
(290,244,o),
(162,355,c),
(76,111,l),
(191,21,o),
(355,-30,o),
(526,-30,cs)
);
},
{
closed = 1;
nodes = (
(774,-30,o),
(1021,59,o),
(1021,318,cs),
(1021,495,o),
(906,579,o),
(647,673,cs),
(490,730,o),
(403,746,o),
(403,821,cs),
(403,890,o),
(475,921,o),
(552,921,cs),
(726,921,o),
(838,771,o),
(834,771,c),
(800,734,l),
(1036,969,l),
(1020,911,l),
(925,1072,o),
(764,1150,o),
(559,1150,cs),
(297,1150,o),
(119,1022,o),
(119,819,cs),
(119,643,o),
(259,524,o),
(470,462,cs),
(714,391,o),
(735,341,o),
(735,301,cs),
(735,231,o),
(669,198,o),
(565,198,cs),
(311,198,o),
(204,394,o),
(207,386,c),
(233,422,l),
(38,134,l),
(51,187,l),
(124,86,o),
(312,-30,o),
(558,-30,cs)
);
}
);
};
layerId = m014;
shapes = (
{
closed = 1;
nodes = (
(774,-30,o),
(1021,59,o),
(1021,318,cs),
(1021,495,o),
(906,579,o),
(647,673,cs),
(490,730,o),
(403,746,o),
(403,821,cs),
(403,890,o),
(475,921,o),
(555,921,cs),
(678,921,o),
(769,849,o),
(836,770,c),
(1004,937,l),
(907,1080,o),
(753,1150,o),
(559,1150,cs),
(297,1150,o),
(119,1022,o),
(119,821,cs),
(119,643,o),
(259,524,o),
(519,448,cs),
(714,391,o),
(735,341,o),
(735,301,cs),
(735,231,o),
(669,198,o),
(566,198,cs),
(396,198,o),
(281,289,o),
(207,383,c),
(63,171,l),
(144,74,o),
(325,-30,o),
(558,-30,cs)
);
}
);
width = 1078;
},
{
anchors = (
{
name = bottom;
pos = (702,0);
},
{
name = top;
pos = (602,1120);
}
);
background = {
shapes = (
{
closed = 1;
nodes = (
(712,-32,o),
(880,111,o),
(880,300,cs),
(880,448,o),
(777,550,o),
(577,635,cs),
(375,721,o),
(302,779,o),
(302,862,cs),
(302,944,o),
(374,984,o),
(481,984,cs),
(582,984,o),
(682,949,o),
(772,892,c),
(842,1054,l),
(733,1115,o),
(603,1152,o),
(483,1152,cs),
(262,1152,o),
(110,1026,o),
(110,859,cs),
(110,715,o),
(224,588,o),
(422,510,cs),
(609,436,o),
(688,380,o),
(688,288,cs),
(688,198,o),
(612,136,o),
(493,136,cs),
(394,136,o),
(257,179,o),
(142,262,c),
(100,70,l),
(218,3,o),
(362,-32,o),
(478,-32,cs)
);
},
{
closed = 1;
nodes = (
(901,-32,o),
(1125,92,o),
(1125,292,cs),
(1125,466,o),
(975,555,o),
(728,627,cs),
(429,714,o),
(310,743,o),
(310,844,cs),
(310,949,o),
(445,984,o),
(622,984,cs),
(893,984,o),
(979,845,o),
(989,834,c),
(1067,981,l),
(1033,1060,o),
(852,1152,o),
(619,1152,cs),
(323,1152,o),
(116,1022,o),
(116,851,cs),
(116,654,o),
(326,565,o),
(587,492,cs),
(770,441,o),
(932,385,o),
(932,283,cs),
(932,175,o),
(801,136,o),
(607,136,cs),
(352,136,o),
(166,296,o),
(164,300,c),
(83,131,l),
(264,19,o),
(466,-32,o),
(602,-32,cs)
);
}
);
};
layerId = m003;
shapes = (
{
closed = 1;
nodes = (
(912,-32,o),
(1125,76,o),
(1125,288,cs),
(1125,452,o),
(1002,545,o),
(638,654,cs),
(355,738,o),
(310,791,o),
(310,850,cs),
(310,942,o),
(429,984,o),
(585,984,cs),
(754,984,o),
(901,935,o),
(1004,859,c),
(1083,1011,l),
(969,1100,o),
(798,1152,o),
(602,1152,cs),
(307,1152,o),
(116,1037,o),
(116,844,cs),
(116,698,o),
(194,615,o),
(558,502,cs),
(814,422,o),
(928,357,o),
(928,269,cs),
(928,175,o),
(808,136,o),
(652,136,cs),
(432,136,o),
(248,213,o),
(160,282,c),
(83,127,l),
(199,46,o),
(384,-32,o),
(627,-32,cs)
);
}
);
width = 1204;
},
{
anchors = (
{
name = bottom;
pos = (639,0);
},
{
name = top;
pos = (635,1120);
}
);
background = {
shapes = (
{
closed = 1;
nodes = (
(798,-30,o),
(968,101,o),
(968,310,cs),
(968,469,o),
(868,572,o),
(626,663,cs),
(465,724,o),
(398,775,o),
(398,836,cs),
(398,891,o),
(446,918,o),
(540,918,cs),
(649,918,o),
(720,884,o),
(812,786,c),
(927,1006,l),
(831,1098,o),
(686,1150,o),
(526,1150,cs),
(273,1150,o),
(114,1027,o),
(114,832,cs),
(114,669,o),
(226,543,o),
(446,460,cs),
(624,392,o),
(680,351,o),
(680,288,cs),
(680,229,o),
(628,200,o),
(523,200,cs),
(391,200,o),
(290,244,o),
(162,355,c),
(76,111,l),
(191,21,o),
(355,-30,o),
(526,-30,cs)
);
}
);
};
layerId = m004;
shapes = (
{
closed = 1;
nodes = (
(1005,-30,o),
(1221,113,o),
(1221,333,cs),
(1221,494,o),
(1092,589,o),
(774,661,cs),
(485,727,o),
(403,762,o),
(403,820,cs),
(403,885,o),
(497,927,o),
(642,927,cs),
(801,927,o),
(981,853,o),
(1033,766,c),
(1183,941,l),
(1080,1070,o),
(869,1150,o),
(633,1150,cs),
(325,1150,o),
(117,1016,o),
(117,818,cs),
(117,652,o),
(262,543,o),
(586,465,cs),
(871,396,o),
(934,366,o),
(934,299,cs),
(934,231,o),
(862,198,o),
(715,198,cs),
(519,198,o),
(307,274,o),
(212,378,c),
(70,177,l),
(211,48,o),
(438,-30,o),
(671,-30,cs)
);
}
);
width = 1278;
}
);
unicode = 115;
userData = {
KernOnName = s;
};
},
{
color = 4;
glyphname = germandbls;
kernLeft = KO_germandbls;
kernRight = KO_germandbls;
lastChange = "2022-03-15 19:53:55 +0000";
layers = (
{
layerId = "FC837317-1536-49E4-8B36-958C77713550";
shapes = (
{
closed = 1;
nodes = (
(967,-32,o),
(1133,111,o),
(1133,339,cs),
(1133,676,o),
(770,709,o),
(770,821,cs),
(770,908,o),
(989,941,o),
(989,1209,cs),
(989,1430,o),
(841,1571,o),
(595,1571,cs),
(345,1571,o),
(181,1425,o),
(181,1202,cs),
(181,0,l),
(373,0,l),
(373,1162,ls),
(373,1339,o),
(467,1402,o),
(599,1402,cs),
(723,1402,o),
(807,1346,o),
(807,1219,cs),
(807,1008,o),
(573,985,o),
(573,802,cs),
(573,570,o),
(946,574,o),
(946,317,cs),
(946,180,o),
(839,136,o),
(743,136,cs),
(663,136,o),
(593,167,o),
(535,243,c),
(452,98,l),
(494,29,o),
(614,-32,o),
(753,-32,cs)
);
}
);
width = 1212;
},
{
layerId = m014;
shapes = (
{
closed = 1;
nodes = (
(1022,-32,o),
(1213,122,o),
(1213,384,cs),
(1213,736,o),
(870,715,o),
(870,806,cs),
(870,879,o),
(1089,910,o),
(1089,1168,cs),
(1089,1392,o),
(923,1571,o),
(630,1571,cs),
(344,1571,o),
(161,1401,o),
(161,1142,cs),
(161,0,l),
(453,0,l),
(453,1102,ls),
(453,1278,o),
(522,1342,o),
(635,1342,cs),
(746,1342,o),
(807,1281,o),
(807,1173,cs),
(807,962,o),
(573,943,o),
(573,791,cs),
(573,604,o),
(926,621,o),
(926,369,cs),
(926,243,o),
(838,216,o),
(765,216,cs),
(686,216,o),
(612,247,o),
(555,323,c),
(472,98,l),
(512,33,o),
(625,-32,o),
(781,-32,cs)
);
}
);
width = 1270;
},
{
layerId = m003;
shapes = (
{
closed = 1;
nodes = (
(1136,-32,o),
(1337,111,o),
(1337,332,cs),
(1337,648,o),
(924,677,o),
(924,784,cs),
(924,875,o),
(1223,947,o),
(1223,1214,cs),
(1223,1429,o),
(1029,1570,o),
(723,1570,cs),
(390,1570,o),
(181,1404,o),
(181,1151,cs),
(181,0,l),
(377,0,l),
(377,1111,ls),
(377,1318,o),
(517,1391,o),
(722,1391,cs),
(897,1391,o),
(1021,1338,o),
(1021,1201,cs),
(1021,987,o),
(717,962,o),
(717,772,cs),
(717,548,o),
(1140,552,o),
(1140,317,cs),
(1140,180,o),
(995,136,o),
(869,136,cs),
(763,136,o),
(673,167,o),
(599,243,c),
(516,98,l),
(566,29,o),
(709,-32,o),
(878,-32,cs)
);
}
);
width = 1416;
},
{
layerId = m004;
shapes = (
{
closed = 1;
nodes = (
(1237,-32,o),
(1473,110,o),
(1473,380,cs),
(1473,724,o),
(1090,741,o),
(1090,807,cs),
(1090,861,o),
(1349,939,o),
(1349,1191,cs),
(1349,1425,o),
(1126,1570,o),
(774,1570,cs),
(384,1570,o),
(161,1392,o),
(161,1122,cs),
(161,0,l),
(453,0,l),
(453,1082,ls),
(453,1272,o),
(586,1341,o),
(787,1341,cs),
(975,1341,o),
(1067,1281,o),
(1067,1164,cs),
(1067,963,o),
(793,950,o),
(793,795,cs),
(793,609,o),
(1186,617,o),
(1186,381,cs),
(1186,239,o),
(1044,216,o),
(946,216,cs),
(833,216,o),
(746,247,o),
(675,323,c),
(592,98,l),
(638,33,o),
(765,-32,o),
(955,-32,cs)
);
}
);
width = 1530;
}
);
metricLeft = l;
metricRight = s;
unicode = 223;
},
{
color = 5;
glyphname = t;
kernLeft = KO_t;
kernRight = KO_t;
lastChange = "2022-03-23 21:30:01 +0000";
layers = (
{
anchors = (
{
name = bottom;
pos = (520,0);
},
{
name = center;
pos = (390,660);
},
{
name = top;
pos = (400,1120);
},
{
name = topright;
pos = (484,1550);
}
);
background = {
shapes = (
{
closed = 1;
nodes = (
(676,952,l),
(676,1120,l),
(80,1120,l),
(80,952,l)
);
},
{
closed = 1;
nodes = (
(524,0,o),
(614,6,o),
(660,14,c),
(660,182,l),
(598,174,o),
(534,168,o),
(502,168,cs),
(428,168,o),
(398,200,o),
(398,304,cs),
(398,1314,l),
(206,1314,l),
(206,272,ls),
(206,88,o),
(290,0,o),
(468,0,cs)
);
}
);
};
layerId = "FC837317-1536-49E4-8B36-958C77713550";
shapes = (
{
closed = 1;
nodes = (
(610,-21,o),
(669,-9,o),
(715,8,c),
(715,177,l),
(701,163,o),
(619,148,o),
(563,148,cs),
(464,148,o),
(423,194,o),
(423,304,cs),
(423,1414,l),
(231,1364,l),
(231,282,ls),
(231,83,o),
(336,-21,o),
(541,-21,cs)
);
},
{
closed = 1;
nodes = (
(721,972,l),
(721,1120,l),
(85,1120,l),
(85,972,l)
);
}
);
width = 800;
},
{
anchors = (
{
name = bottom;
pos = (558,20);
},
{
name = center;
pos = (443,660);
},
{
name = top;
pos = (443,1120);
},
{
name = topright;
pos = (764,1645);
}
);
background = {
shapes = (
{
closed = 1;
nodes = (
(568,-32,o),
(686,-26,o),
(742,-18,c),
(742,222,l),
(676,214,o),
(614,208,o),
(584,208,cs),
(526,208,o),
(504,244,o),
(504,344,cs),
(504,1318,l),
(216,1318,l),
(216,240,ls),
(216,56,o),
(304,-32,o),
(490,-32,cs)
);
},
{
closed = 1;
nodes = (
(730,904,l),
(730,1120,l),
(56,1120,l),
(56,904,l)
);
}
);
};
guides = (
{
pos = (757,1645);
},
{
angle = 90;
pos = (805,1120);
}
);
layerId = m014;
shapes = (
{
closed = 1;
nodes = (
(698,-20,o),
(764,1,o),
(807,24,c),
(807,259,l),
(795,244,o),
(720,220,o),
(643,220,cs),
(554,220,o),
(529,253,o),
(529,372,cs),
(529,1465,l),
(241,1365,l),
(241,327,ls),
(241,87,o),
(363,-20,o),
(597,-20,cs)
);
},
{
closed = 1;
nodes = (
(805,904,l),
(805,1120,l),
(81,1120,l),
(81,904,l)
);
}
);
width = 886;
},
{
anchors = (
{
name = bottom;
pos = (684,0);
},
{
name = center;
pos = (474,649);
},
{
name = top;
pos = (496,1120);
},
{
name = topright;
pos = (687,1572);
}
);
background = {
shapes = (
{
closed = 1;
nodes = (
(676,952,l),
(676,1120,l),
(80,1120,l),
(80,952,l)
);
},
{
closed = 1;
nodes = (
(524,0,o),
(614,6,o),
(660,14,c),
(660,182,l),
(598,174,o),
(534,168,o),
(502,168,cs),
(428,168,o),
(398,200,o),
(398,304,cs),
(398,1314,l),
(206,1314,l),
(206,272,ls),
(206,88,o),
(290,0,o),
(468,0,cs)
);
}
);
};
layerId = m003;
shapes = (
{
closed = 1;
nodes = (
(750,-22,o),
(843,-8,o),
(905,8,c),
(905,177,l),
(878,161,o),
(760,148,o),
(687,148,cs),
(547,148,o),
(474,197,o),
(474,304,cs),
(474,1414,l),
(282,1364,l),
(282,282,ls),
(282,83,o),
(433,-22,o),
(665,-22,cs)
);
},
{
closed = 1;
nodes = (
(921,972,l),
(921,1120,l),
(85,1120,l),
(85,972,l)
);
}
);
width = 1000;
},
{
anchors = (
{
name = bottom;
pos = (716,0);
},
{
name = center;
pos = (540,590);
},
{
name = top;
pos = (540,1120);
},
{
name = topright;
pos = (973,1640);
}
);
background = {
shapes = (
{
closed = 1;
nodes = (
(568,-32,o),
(686,-26,o),
(742,-18,c),
(742,222,l),
(676,214,o),
(614,208,o),
(584,208,cs),
(526,208,o),
(504,244,o),
(504,344,cs),
(504,1318,l),
(216,1318,l),
(216,240,ls),
(216,56,o),
(304,-32,o),
(490,-32,cs)
);
},
{
closed = 1;
nodes = (
(730,904,l),
(730,1120,l),
(56,1120,l),
(56,904,l)
);
}
);
};
layerId = m004;
shapes = (
{
closed = 1;
nodes = (
(851,-20,o),
(926,-1,o),
(999,24,c),
(999,259,l),
(973,243,o),
(871,220,o),
(768,220,cs),
(638,220,o),
(581,257,o),
(581,372,cs),
(581,1465,l),
(293,1365,l),
(293,327,ls),
(293,91,o),
(447,-20,o),
(733,-20,cs)
);
},
{
closed = 1;
nodes = (
(1007,904,l),
(1007,1120,l),
(81,1120,l),
(81,904,l)
);
}
);
width = 1086;
}
);
unicode = 116;
userData = {
KernOnName = t;
};
},
{
color = 5;
glyphname = u;
kernLeft = KO_u;
kernRight = KO_u;
lastChange = "2022-03-23 19:20:27 +0000";
layers = (
{
anchors = (
{
name = bottom;
pos = (578,0);
},
{
name = ogonek;
pos = (1053,0);
},
{
name = top;
pos = (614,1151);
},
{
name = topright;
pos = (1053,1120);
}
);
background = {
shapes = (
{
closed = 1;
nodes = (
(602,-32,o),
(726,22,o),
(836,126,c),
(836,0,l),
(1028,0,l),
(1028,1120,l),
(836,1120,l),
(836,284,l),
(718,182,o),
(618,136,o),
(520,136,cs),
(392,136,o),
(336,220,o),
(336,404,cs),
(336,1120,l),
(144,1120,l),
(144,346,ls),
(144,106,o),
(266,-32,o),
(476,-32,cs)
);
}
);
};
layerId = "FC837317-1536-49E4-8B36-958C77713550";
shapes = (
{
closed = 1;
nodes = (
(680,-32,o),
(818,58,o),
(861,186,c),
(868,186,l),
(862,82,o),
(862,77,o),
(862,0,c),
(1053,0,l),
(1053,1120,l),
(861,1120,l),
(861,420,ls),
(861,242,o),
(761,136,o),
(582,136,cs),
(423,136,o),
(361,219,o),
(361,454,cs),
(361,1120,l),
(169,1120,l),
(169,366,ls),
(169,115,o),
(302,-32,o),
(514,-32,cs)
);
}
);
width = 1228;
},
{
anchors = (
{
name = bottom;
pos = (580,0);
},
{
name = ogonek;
pos = (1107,0);
},
{
name = top;
pos = (634,1120);
},
{
name = topright;
pos = (1233,1120);
}
);
background = {
shapes = (
{
closed = 1;
nodes = (
(558,-32,o),
(668,8,o),
(782,102,c),
(782,0,l),
(1070,0,l),
(1070,1120,l),
(782,1120,l),
(782,328,l),
(700,246,o),
(616,208,o),
(516,208,cs),
(392,208,o),
(350,268,o),
(350,440,cs),
(350,1120,l),
(62,1120,l),
(62,308,ls),
(62,94,o),
(192,-32,o),
(426,-32,cs)
);
}
);
};
layerId = m014;
shapes = (
{
closed = 1;
nodes = (
(658,-32,o),
(770,46,o),
(825,204,c),
(833,204,l),
(833,158,o),
(833,122,o),
(836,0,c),
(1107,0,l),
(1107,1120,l),
(819,1120,l),
(819,514,ls),
(819,333,o),
(728,208,o),
(603,208,cs),
(486,208,o),
(433,317,o),
(433,540,cs),
(433,1120,l),
(145,1120,l),
(145,428,ls),
(145,119,o),
(258,-32,o),
(491,-32,cs)
);
}
);
width = 1268;
},
{
anchors = (
{
name = bottom;
pos = (712,0);
},
{
name = ogonek;
pos = (1253,0);
},
{
name = top;
pos = (712,1120);
},
{
name = topright;
pos = (1439,1120);
}
);
background = {
shapes = (
{
closed = 1;
nodes = (
(602,-32,o),
(726,22,o),
(836,126,c),
(836,0,l),
(1028,0,l),
(1028,1120,l),
(836,1120,l),
(836,284,l),
(718,182,o),
(618,136,o),
(520,136,cs),
(392,136,o),
(336,220,o),
(336,404,cs),
(336,1120,l),
(144,1120,l),
(144,346,ls),
(144,106,o),
(266,-32,o),
(476,-32,cs)
);
}
);
};
layerId = m003;
shapes = (
{
closed = 1;
nodes = (
(818,-32,o),
(1010,63,o),
(1058,186,c),
(1063,186,l),
(1055,79,o),
(1054,71,o),
(1053,0,c),
(1253,0,l),
(1253,1120,l),
(1061,1120,l),
(1061,420,ls),
(1061,238,o),
(918,136,o),
(662,136,cs),
(436,136,o),
(361,215,o),
(361,454,cs),
(361,1120,l),
(169,1120,l),
(169,366,ls),
(169,117,o),
(337,-32,o),
(604,-32,cs)
);
}
);
width = 1428;
},
{
anchors = (
{
name = bottom;
pos = (732,0);
},
{
name = ogonek;
pos = (1307,0);
},
{
name = top;
pos = (732,1120);
},
{
name = topright;
pos = (1479,1120);
}
);
background = {
shapes = (
{
closed = 1;
nodes = (
(558,-32,o),
(668,8,o),
(782,102,c),
(782,0,l),
(1070,0,l),
(1070,1120,l),
(782,1120,l),
(782,328,l),
(700,246,o),
(616,208,o),
(516,208,cs),
(392,208,o),
(350,268,o),
(350,440,cs),
(350,1120,l),
(62,1120,l),
(62,308,ls),
(62,94,o),
(192,-32,o),
(426,-32,cs)
);
}
);
};
layerId = m004;
shapes = (
{
closed = 1;
nodes = (
(814,-32,o),
(968,62,o),
(1022,204,c),
(1027,204,l),
(1026,102,o),
(1027,84,o),
(1030,0,c),
(1307,0,l),
(1307,1120,l),
(1019,1120,l),
(1019,514,ls),
(1019,325,o),
(898,208,o),
(670,208,cs),
(490,208,o),
(433,281,o),
(433,500,cs),
(433,1120,l),
(145,1120,l),
(145,388,ls),
(145,126,o),
(312,-32,o),
(595,-32,cs)
);
}
);
width = 1468;
}
);
metricLeft = "=|n";
metricRight = "=|n";
unicode = 117;
userData = {
KernOnName = u;
};
},
{
color = 5;
glyphname = v;
kernLeft = KO_v;
kernRight = KO_v;
lastChange = "2022-03-23 19:20:27 +0000";
layers = (
{
anchors = (
{
name = bottom;
pos = (535,0);
},
{
name = top;
pos = (535,1120);
}
);
background = {
shapes = (
{
closed = 1;
nodes = (
(628,0,l),
(1018,1120,l),
(810,1120,l),
(520,202,l),
(230,1120,l),
(22,1120,l),
(412,0,l)
);
}
);
};
layerId = "FC837317-1536-49E4-8B36-958C77713550";
shapes = (
{
closed = 1;
nodes = (
(643,0,l),
(1033,1120,l),
(825,1120,l),
(535,202,l),
(245,1120,l),
(37,1120,l),
(427,0,l)
);
}
);
width = 1070;
},
{
anchors = (
{
name = bottom;
pos = (576,0);
},
{
name = top;
pos = (576,1120);
}
);
background = {
shapes = (
{
closed = 1;
nodes = (
(715,0,l),
(1109,1120,l),
(791,1120,l),
(561,254,l),
(331,1120,l),
(13,1120,l),
(407,0,l)
);
}
);
};
layerId = m014;
shapes = (
{
closed = 1;
nodes = (
(730,0,l),
(1124,1120,l),
(806,1120,l),
(576,254,l),
(346,1120,l),
(28,1120,l),
(422,0,l)
);
}
);
width = 1152;
},
{
anchors = (
{
name = bottom;
pos = (635,0);
},
{
name = top;
pos = (635,1120);
}
);
background = {
shapes = (
{
closed = 1;
nodes = (
(628,0,l),
(1018,1120,l),
(810,1120,l),
(520,202,l),
(230,1120,l),
(22,1120,l),
(412,0,l)
);
}
);
};
layerId = m003;
shapes = (
{
closed = 1;
nodes = (
(747,0,l),
(1233,1120,l),
(1028,1120,l),
(635,202,l),
(242,1120,l),
(37,1120,l),
(523,0,l)
);
}
);
width = 1270;
},
{
anchors = (
{
name = bottom;
pos = (676,0);
},
{
name = top;
pos = (676,1120);
}
);
background = {
shapes = (
{
closed = 1;
nodes = (
(715,0,l),
(1109,1120,l),
(791,1120,l),
(561,254,l),
(331,1120,l),
(13,1120,l),
(407,0,l)
);
}
);
};
layerId = m004;
shapes = (
{
closed = 1;
nodes = (
(834,0,l),
(1324,1120,l),
(1009,1120,l),
(676,254,l),
(343,1120,l),
(28,1120,l),
(518,0,l)
);
}
);
width = 1352;
}
);
unicode = 118;
userData = {
KernOnName = v;
};
},
{
color = 5;
glyphname = w;
kernLeft = KO_w;
kernRight = KO_w;
lastChange = "2022-03-23 19:20:27 +0000";
layers = (
{
anchors = (
{
name = bottom;
pos = (833,0);
},
{
name = top;
pos = (833,1151);
}
);
layerId = "FC837317-1536-49E4-8B36-958C77713550";
shapes = (
{
closed = 1;
nodes = (
(593,0,l),
(833,810,l),
(1073,0,l),
(1289,0,l),
(1629,1120,l),
(1421,1120,l),
(1187,218,l),
(927,1108,l),
(739,1108,l),
(479,218,l),
(245,1120,l),
(37,1120,l),
(377,0,l)
);
}
);
width = 1666;
},
{
anchors = (
{
name = bottom;
pos = (855,0);
},
{
name = top;
pos = (855,1120);
}
);
layerId = m014;
shapes = (
{
closed = 1;
nodes = (
(665,0,l),
(855,810,l),
(1045,0,l),
(1363,0,l),
(1685,1120,l),
(1377,1120,l),
(1209,274,l),
(1000,1098,l),
(710,1098,l),
(501,274,l),
(333,1120,l),
(25,1120,l),
(347,0,l)
);
}
);
width = 1710;
},
{
anchors = (
{
name = bottom;
pos = (933,0);
},
{
name = top;
pos = (933,1120);
}
);
layerId = m003;
shapes = (
{
closed = 1;
nodes = (
(646,0,l),
(933,810,l),
(1220,0,l),
(1437,0,l),
(1829,1120,l),
(1620,1120,l),
(1336,218,l),
(1026,1108,l),
(840,1108,l),
(530,218,l),
(246,1120,l),
(37,1120,l),
(429,0,l)
);
}
);
width = 1866;
},
{
anchors = (
{
name = bottom;
pos = (955,0);
},
{
name = top;
pos = (955,1120);
}
);
layerId = m004;
shapes = (
{
closed = 1;
nodes = (
(718,0,l),
(955,810,l),
(1192,0,l),
(1511,0,l),
(1885,1120,l),
(1576,1120,l),
(1358,274,l),
(1099,1098,l),
(811,1098,l),
(552,274,l),
(334,1120,l),
(25,1120,l),
(399,0,l)
);
}
);
width = 1910;
}
);
unicode = 119;
userData = {
KernOnName = w;
};
},
{
color = 5;
glyphname = x;
kernLeft = KO_x;
kernRight = KO_x;
lastChange = "2022-03-23 19:20:27 +0000";
layers = (
{
anchors = (
{
name = bottom;
pos = (560,0);
},
{
name = top;
pos = (560,1120);
}
);
layerId = "FC837317-1536-49E4-8B36-958C77713550";
shapes = (
{
closed = 1;
nodes = (
(282,0,l),
(614,502,l),
(508,502,l),
(838,0,l),
(1073,0,l),
(621,634,l),
(621,506,l),
(1071,1120,l),
(838,1120,l),
(508,638,l),
(614,638,l),
(284,1120,l),
(51,1120,l),
(501,506,l),
(501,634,l),
(47,0,l)
);
}
);
width = 1120;
},
{
anchors = (
{
name = bottom;
pos = (568,0);
},
{
name = top;
pos = (568,1120);
}
);
layerId = m014;
shapes = (
{
closed = 1;
nodes = (
(357,0,l),
(613,474,l),
(515,474,l),
(779,0,l),
(1111,0,l),
(701,624,l),
(701,516,l),
(1109,1120,l),
(779,1120,l),
(525,666,l),
(623,666,l),
(359,1120,l),
(29,1120,l),
(437,516,l),
(437,624,l),
(25,0,l)
);
}
);
width = 1136;
},
{
anchors = (
{
name = bottom;
pos = (660,0);
},
{
name = top;
pos = (660,1120);
}
);
layerId = m003;
shapes = (
{
closed = 1;
nodes = (
(291,0,l),
(730,502,l),
(597,502,l),
(1029,0,l),
(1273,0,l),
(703,634,l),
(703,506,l),
(1271,1120,l),
(1029,1120,l),
(593,638,l),
(725,638,l),
(293,1120,l),
(52,1120,l),
(620,506,l),
(620,634,l),
(47,0,l)
);
}
);
width = 1320;
},
{
anchors = (
{
name = bottom;
pos = (668,0);
},
{
name = top;
pos = (668,1120);
}
);
layerId = m004;
shapes = (
{
closed = 1;
nodes = (
(366,0,l),
(729,474,l),
(604,474,l),
(970,0,l),
(1311,0,l),
(783,624,l),
(783,516,l),
(1309,1120,l),
(970,1120,l),
(610,666,l),
(734,666,l),
(368,1120,l),
(30,1120,l),
(556,516,l),
(556,624,l),
(25,0,l)
);
}
);
width = 1336;
}
);
unicode = 120;
userData = {
KernOnName = x;
};
},
{
color = 5;
glyphname = y;
kernLeft = KO_y;
kernRight = KO_y;
lastChange = "2022-03-23 19:20:27 +0000";
layers = (
{
anchors = (
{
name = bottom;
pos = (523,0);
},
{
name = top;
pos = (523,1152);
}
);
background = {
shapes = (
{
closed = 1;
nodes = (
(385,-422,o),
(500,-334,o),
(564,-150,cs),
(1006,1120,l),
(798,1120,l),
(524,244,l),
(508,194,l),
(493,241,l),
(218,1120,l),
(10,1120,l),
(426,-73,l),
(425,12,l),
(382,-118,ls),
(346,-223,o),
(307,-254,o),
(228,-254,cs),
(193,-254,o),
(114,-248,o),
(38,-240,c),
(20,-408,l),
(64,-416,o),
(151,-422,o),
(202,-422,cs)
);
}
);
};
layerId = "FC837317-1536-49E4-8B36-958C77713550";
shapes = (
{
closed = 1;
nodes = (
(460,-422,o),
(521,-314,o),
(588,-123,cs),
(1021,1120,l),
(815,1120,l),
(557,295,ls),
(533,218,o),
(528,202,o),
(528,165,c),
(522,165,l),
(522,200,o),
(516,214,o),
(491,295,cs),
(233,1120,l),
(25,1120,l),
(441,-73,l),
(445,12,l),
(418,-64,ls),
(366,-210,o),
(351,-254,o),
(230,-254,cs),
(142,-254,o),
(42,-229,o),
(35,-220,c),
(35,-398,l),
(64,-407,o),
(156,-422,o),
(238,-422,cs)
);
}
);
width = 1046;
},
{
anchors = (
{
name = bottom;
pos = (593,0);
},
{
name = top;
pos = (593,1120);
}
);
layerId = m014;
shapes = (
{
closed = 1;
nodes = (
(498,-424,o),
(615,-336,o),
(683,-152,cs),
(1151,1120,l),
(843,1120,l),
(628,411,ls),
(615,369,o),
(602,315,o),
(602,263,c),
(591,263,l),
(591,315,o),
(571,369,o),
(558,411,cs),
(343,1120,l),
(25,1120,l),
(457,-47,l),
(477,37,l),
(445,-48,ls),
(413,-134,o),
(371,-184,o),
(264,-184,cs),
(207,-184,o),
(101,-170,o),
(87,-150,c),
(87,-390,l),
(141,-409,o),
(232,-424,o),
(309,-424,cs)
);
}
);
width = 1176;
},
{
anchors = (
{
name = bottom;
pos = (627,0);
},
{
name = top;
pos = (627,1120);
}
);
background = {
shapes = (
{
closed = 1;
nodes = (
(385,-422,o),
(500,-334,o),
(564,-150,cs),
(1006,1120,l),
(798,1120,l),
(524,244,l),
(508,194,l),
(493,241,l),
(218,1120,l),
(10,1120,l),
(426,-73,l),
(425,12,l),
(382,-118,ls),
(346,-223,o),
(307,-254,o),
(228,-254,cs),
(193,-254,o),
(114,-248,o),
(38,-240,c),
(20,-408,l),
(64,-416,o),
(151,-422,o),
(202,-422,cs)
);
}
);
};
layerId = m003;
shapes = (
{
closed = 1;
nodes = (
(575,-422,o),
(623,-294,o),
(696,-123,cs),
(1221,1120,l),
(1014,1120,l),
(669,295,ls),
(652,253,o),
(631,221,o),
(631,185,c),
(627,185,l),
(627,221,o),
(609,247,o),
(589,295,cs),
(244,1120,l),
(39,1120,l),
(552,-73,l),
(549,12,l),
(479,-135,ls),
(434,-229,o),
(404,-254,o),
(278,-254,cs),
(186,-254,o),
(37,-234,o),
(25,-220,c),
(25,-398,l),
(54,-409,o),
(182,-422,o),
(269,-422,cs)
);
}
);
width = 1246;
},
{
anchors = (
{
name = bottom;
pos = (690,0);
},
{
name = top;
pos = (690,1120);
}
);
layerId = m004;
shapes = (
{
closed = 1;
nodes = (
(612,-424,o),
(709,-317,o),
(784,-152,cs),
(1351,1120,l),
(1042,1120,l),
(734,411,ls),
(715,367,o),
(697,321,o),
(697,253,c),
(690,253,l),
(690,308,o),
(668,366,o),
(648,411,cs),
(340,1120,l),
(25,1120,l),
(561,-47,l),
(574,37,l),
(530,-45,ls),
(483,-132,o),
(460,-184,o),
(288,-184,cs),
(187,-184,o),
(71,-166,o),
(61,-150,c),
(61,-390,l),
(113,-410,o),
(229,-424,o),
(331,-424,cs)
);
}
);
width = 1376;
}
);
unicode = 121;
userData = {
KernOnName = y;
};
},
{
color = 5;
glyphname = z;
kernLeft = KO_z;
kernRight = KO_z;
lastChange = "2022-03-23 19:19:50 +0000";
layers = (
{
anchors = (
{
name = bottom;
pos = (501,0);
},
{
name = center;
pos = (501,560);
},
{
name = top;
pos = (501,1152);
}
);
layerId = "FC837317-1536-49E4-8B36-958C77713550";
shapes = (
{
closed = 1;
nodes = (
(905,0,l),
(905,163,l),
(223,163,l),
(251,48,l),
(384,233,l),
(905,1012,l),
(905,1120,l),
(107,1120,l),
(107,957,l),
(815,957,l),
(757,1072,l),
(629,897,l),
(97,108,l),
(97,0,l)
);
}
);
width = 1002;
},
{
anchors = (
{
name = bottom;
pos = (523,0);
},
{
name = center;
pos = (523,560);
},
{
name = top;
pos = (523,1120);
}
);
layerId = m014;
shapes = (
{
closed = 1;
nodes = (
(961,0,l),
(961,240,l),
(247,240,l),
(299,48,l),
(500,301,l),
(961,932,l),
(961,1120,l),
(105,1120,l),
(105,880,l),
(805,880,l),
(753,1072,l),
(557,822,l),
(85,168,l),
(85,0,l)
);
}
);
width = 1046;
},
{
anchors = (
{
name = bottom;
pos = (598,0);
},
{
name = center;
pos = (598,560);
},
{
name = top;
pos = (598,1120);
}
);
layerId = m003;
shapes = (
{
closed = 1;
nodes = (
(1099,0,l),
(1099,163,l),
(238,163,l),
(250,48,l),
(433,233,l),
(1099,1012,l),
(1099,1120,l),
(101,1120,l),
(101,957,l),
(1021,957,l),
(951,1072,l),
(777,897,l),
(97,108,l),
(97,0,l)
);
}
);
width = 1196;
},
{
anchors = (
{
name = bottom;
pos = (623,0);
},
{
name = center;
pos = (623,560);
},
{
name = top;
pos = (623,1120);
}
);
layerId = m004;
shapes = (
{
closed = 1;
nodes = (
(1161,0,l),
(1161,235,l),
(263,235,l),
(309,48,l),
(539,301,l),
(1161,932,l),
(1161,1120,l),
(99,1120,l),
(99,885,l),
(1017,885,l),
(945,1072,l),
(721,822,l),
(85,168,l),
(85,0,l)
);
}
);
width = 1246;
}
);
metricLeft = o;
metricRight = o;
unicode = 122;
},
{
color = 4;
glyphname = i.ss01;
kernLeft = KO_i.ss01;
kernRight = KO_i.ss01;
lastChange = "2022-03-16 22:38:21 +0000";
layers = (
{
anchors = (
{
name = bottom;
pos = (287,0);
},
{
name = ogonek;
pos = (385,0);
}
);
layerId = "FC837317-1536-49E4-8B36-958C77713550";
shapes = (
{
closed = 1;
nodes = (
(385,0,l),
(385,1120,l),
(191,1120,l),
(191,0,l)
);
},
{
closed = 1;
nodes = (
(361,1308,o),
(419,1370,o),
(419,1442,cs),
(419,1513,o),
(361,1570,o),
(288,1570,cs),
(215,1570,o),
(155,1514,o),
(155,1442,cs),
(155,1369,o),
(215,1308,o),
(288,1308,cs)
);
}
);
width = 574;
},
{
anchors = (
{
name = bottom;
pos = (314,0);
},
{
name = ogonek;
pos = (463,0);
}
);
layerId = m014;
shapes = (
{
closed = 1;
nodes = (
(463,0,l),
(463,1120,l),
(169,1120,l),
(169,0,l)
);
},
{
closed = 1;
nodes = (
(432,1244,o),
(507,1307,o),
(507,1408,cs),
(507,1508,o),
(432,1570,o),
(314,1570,cs),
(196,1570,o),
(121,1508,o),
(121,1408,cs),
(121,1307,o),
(196,1244,o),
(314,1244,cs)
);
}
);
width = 628;
},
{
anchors = (
{
name = bottom;
pos = (287,0);
},
{
name = ogonek;
pos = (385,0);
}
);
layerId = m003;
shapes = (
{
closed = 1;
nodes = (
(385,0,l),
(385,1120,l),
(191,1120,l),
(191,0,l)
);
},
{
closed = 1;
nodes = (
(361,1308,o),
(419,1370,o),
(419,1442,cs),
(419,1513,o),
(361,1570,o),
(288,1570,cs),
(215,1570,o),
(155,1514,o),
(155,1442,cs),
(155,1369,o),
(215,1308,o),
(288,1308,cs)
);
}
);
width = 574;
},
{
anchors = (
{
name = bottom;
pos = (314,0);
},
{
name = ogonek;
pos = (463,0);
}
);
layerId = m004;
shapes = (
{
closed = 1;
nodes = (
(463,0,l),
(463,1120,l),
(169,1120,l),
(169,0,l)
);
},
{
closed = 1;
nodes = (
(432,1244,o),
(507,1307,o),
(507,1408,cs),
(507,1508,o),
(432,1570,o),
(314,1570,cs),
(196,1570,o),
(121,1508,o),
(121,1408,cs),
(121,1307,o),
(196,1244,o),
(314,1244,cs)
);
}
);
width = 628;
}
);
},
